SplineFontDB: 3.2
FontName: Rusimez_Basic
FullName: Rusimez_Basic
FamilyName: Rusimez_Basic
Weight: Regular
Copyright: Copyright (c) 2022, namhw
UComments: "2022-11-25: Created with FontForge (http://fontforge.org)"
Version: 001.000
ItalicAngle: 0
UnderlinePosition: -100
UnderlineWidth: 50
Ascent: 800
Descent: 200
InvalidEm: 0
LayerCount: 2
Layer: 0 0 "+tLe6dAAA" 1
Layer: 1 0 "+xV66dAAA" 0
XUID: [1021 328 918690791 307]
OS2Version: 0
OS2_WeightWidthSlopeOnly: 0
OS2_UseTypoMetrics: 1
CreationTime: 1669386597
ModificationTime: 1673398863
OS2TypoAscent: 0
OS2TypoAOffset: 1
OS2TypoDescent: 0
OS2TypoDOffset: 1
OS2TypoLinegap: 0
OS2WinAscent: 0
OS2WinAOffset: 1
OS2WinDescent: 0
OS2WinDOffset: 1
HheadAscent: 0
HheadAOffset: 1
HheadDescent: 0
HheadDOffset: 1
OS2Vendor: 'PfEd'
MarkAttachClasses: 1
DEI: 91125
Encoding: UnicodeBmp
UnicodeInterp: none
NameList: AGL For New Fonts
DisplaySize: -96
AntiAlias: 1
FitToEm: 0
WinInfo: 57779 19 8
BeginPrivate: 0
EndPrivate
BeginChars: 65536 289

StartChar: uniE100
Encoding: 57600 57600 0
Width: 1000
Flags: HW
LayerCount: 2
Fore
SplineSet
764.200195312 221.700195312 m 1
 827.400390625 188.5 870.5 122.299804688 870.5 45.900390625 c 0
 870.5 -63.7001953125 781.700195312 -152.5 672.099609375 -152.5 c 0
 562.5 -152.5 473.700195312 -63.7001953125 473.700195312 45.900390625 c 0
 473.700195312 60 475.200195312 73.7001953125 478 87 c 1
 428.700195312 62 387.200195312 21.2001953125 362.099609375 -32.400390625 c 0
 350.400390625 -57.2998046875 342.900390625 -84 339.900390625 -111.200195312 c 0
 339.799804688 -119.700195312 339.799804688 -128.099609375 339.799804688 -136.599609375 c 1
 338.400390625 -136.599609375 l 1
 338.400390625 -137.5 338.400390625 -135.700195312 338.400390625 -136.599609375 c 1
 193.299804688 -136.599609375 l 1
 193.299804688 -135.700195312 193.299804688 -137.5 193.299804688 -136.599609375 c 1
 166.799804688 -136.599609375 l 1
 166.799804688 161.099609375 211.099609375 457.200195312 298.299804688 741.900390625 c 1
 463.799804688 691.299804688 l 1
 413 525.299804688 377.599609375 355.200195312 358 183.200195312 c 1
 424.5 231.599609375 506.599609375 260.200195312 595.400390625 260.200195312 c 0
 653.900390625 260.200195312 711.099609375 246.200195312 764.200195312 221.700195312 c 1
 764.200195312 221.700195312 l 1
672.099609375 -6.599609375 m 0
 701.099609375 -6.599609375 724.700195312 16.900390625 724.700195312 46 c 0
 724.700195312 75.099609375 701.200195312 98.599609375 672.099609375 98.599609375 c 0
 643 98.599609375 619.5 75 619.5 46 c 0
 619.5 16.900390625 643.099609375 -6.599609375 672.099609375 -6.599609375 c 0
EndSplineSet
EndChar

StartChar: uniE101
Encoding: 57601 57601 1
Width: 1000
Flags: HW
LayerCount: 2
Fore
SplineSet
726.700195312 231.900390625 m 1
 830.5 194.599609375 884 81.2998046875 846.099609375 -21.099609375 c 0
 808.299804688 -123.5 693.5 -176.299804688 589.700195312 -139 c 0
 573.599609375 -133.200195312 558.400390625 -125.400390625 544.299804688 -115.799804688 c 1
 627.200195312 2.400390625 l 1
 652.700195312 -13.900390625 687.299804688 -7.400390625 704.400390625 17 c 0
 721.5 41.400390625 714.700195312 74.2998046875 689.099609375 90.599609375 c 0
 687.700195312 91.599609375 686.099609375 92.400390625 684.599609375 93.2001953125 c 1
 684.599609375 93.2001953125 l 1
 558 152.400390625 406.599609375 96.099609375 347.400390625 -30.5 c 0
 335.700195312 -55.599609375 328.200195312 -82.2998046875 325.099609375 -109.700195312 c 0
 325 -118.200195312 325 -126.599609375 325 -135.099609375 c 1
 323.599609375 -135.099609375 l 1
 323.599609375 -136 323.599609375 -134.200195312 323.599609375 -135.099609375 c 1
 179.299804688 -135.099609375 l 1
 179.299804688 -134.200195312 179.299804688 -136 179.299804688 -135.099609375 c 1
 153 -135.099609375 l 1
 153 161.099609375 197.099609375 455.599609375 283.799804688 738.799804688 c 1
 448.299804688 688.400390625 l 1
 397.799804688 523.5 362.700195312 354.599609375 343.200195312 183.799804688 c 1
 408.799804688 231.5 489.5 259.599609375 576.700195312 259.599609375 c 0
 628 259.599609375 679.299804688 251.200195312 726.700195312 231.900390625 c 1
 726.700195312 231.900390625 l 1
EndSplineSet
EndChar

StartChar: uniE102
Encoding: 57602 57602 2
Width: 1000
Flags: HW
LayerCount: 2
Fore
SplineSet
945 -42.7998046875 m 1
 800.700195312 -182.599609375 577.799804688 -191.299804688 423.700195312 -71.099609375 c 1
 387.400390625 -120.5 328.299804688 -152.700195312 261.700195312 -152.700195312 c 0
 151.200195312 -152.700195312 61.7001953125 -64.2998046875 61.7001953125 44.7001953125 c 0
 61.7001953125 153.700195312 151.200195312 242.099609375 261.700195312 242.099609375 c 0
 263.5 242.099609375 265.299804688 242 267 242 c 1
 267 721 l 1
 440.700195312 721 l 1
 440.700195312 244.5 l 1
 440.700195312 244.5 l 1
 439.900390625 120 542.200195312 18.2998046875 666.700195312 17.5 c 0
 725.799804688 17.099609375 782.700195312 39.900390625 825.099609375 81 c 1
 945 -42.7998046875 l 1
261.700195312 -7.599609375 m 0
 292.099609375 -7.599609375 316.599609375 15.7998046875 316.5 44.7001953125 c 0
 316.5 51.900390625 315 58.7001953125 312.299804688 64.900390625 c 0
 311.700195312 66.2001953125 311 67.5 310.400390625 68.7998046875 c 0
 303.799804688 81 292.099609375 90.400390625 278.099609375 94.599609375 c 0
 277.900390625 94.7001953125 277.700195312 94.7998046875 277.5 94.7998046875 c 2
 268.400390625 96.599609375 l 2
 268.299804688 96.7001953125 268.099609375 96.7001953125 268 96.7001953125 c 2
 267 96.7998046875 l 2
 265.200195312 96.900390625 263.5 97 261.700195312 97 c 0
 231.400390625 97 206.799804688 73.599609375 206.799804688 44.7001953125 c 0
 206.799804688 15.7998046875 231.400390625 -7.599609375 261.700195312 -7.599609375 c 0
EndSplineSet
EndChar

StartChar: uniE103
Encoding: 57603 57603 3
Width: 1000
Flags: HW
LayerCount: 2
Fore
SplineSet
405.299804688 326.299804688 m 0
 515.700195312 326.299804688 605.299804688 236.900390625 605.299804688 126.400390625 c 0
 605.299804688 15.900390625 515.799804688 -73.599609375 405.299804688 -73.599609375 c 0
 379.099609375 -73.599609375 354.099609375 -68.599609375 331.099609375 -59.400390625 c 1
 330.400390625 -85.2001953125 330 -111 330 -136.799804688 c 1
 157.900390625 -136.799804688 l 1
 157.900390625 159.299804688 202 453.900390625 288.700195312 737.099609375 c 1
 453.299804688 686.700195312 l 1
 416.700195312 567.200195312 388.200195312 445.700195312 367.799804688 322.799804688 c 1
 380 325.099609375 392.5 326.299804688 405.299804688 326.299804688 c 0
405.299804688 73.2998046875 m 0
 434.5 73.2998046875 458.299804688 97 458.299804688 126.299804688 c 0
 458.299804688 155.599609375 434.599609375 179.299804688 405.299804688 179.299804688 c 0
 376 179.299804688 352.299804688 155.599609375 352.299804688 126.299804688 c 0
 352.299804688 97 376 73.2998046875 405.299804688 73.2998046875 c 0
EndSplineSet
EndChar

StartChar: uniE104
Encoding: 57604 57604 4
Width: 1000
Flags: HW
LayerCount: 2
Fore
SplineSet
862.400390625 207 m 1
 946.599609375 162.700195312 989.200195312 63 958.900390625 -30.5 c 0
 924.900390625 -135 812.700195312 -192.200195312 708.200195312 -158.200195312 c 0
 679.200195312 -148.799804688 653.400390625 -133.099609375 632.200195312 -112.799804688 c 1
 581 -136.200195312 524 -149.099609375 464.099609375 -148.700195312 c 1
 464.099609375 -148.700195312 l 1
 440.5 -149 l 1
 440.5 -149 l 1
 278.5 -145.5 148.200195312 -13.599609375 147.299804688 147.400390625 c 1
 147.299804688 147.400390625 l 1
 147.299804688 347.299804688 177.5 546.099609375 236.700195312 737 c 1
 403.5 685.299804688 l 1
 350 512.900390625 322.599609375 333.5 322 153.099609375 c 1
 322 153.099609375 l 1
 320 86.599609375 372.900390625 30.7001953125 438.700195312 26.2998046875 c 2
 484.200195312 25.599609375 l 1
 484.200195312 25.599609375 l 1
 598.299804688 34.400390625 688.900390625 128.700195312 690.900390625 245.200195312 c 1
 864.599609375 242.200195312 l 1
 864.299804688 230.299804688 863.599609375 218.599609375 862.400390625 207 c 1
775.799804688 -23.599609375 m 0
 805.900390625 -20.2001953125 827.599609375 7 824.200195312 37.2001953125 c 0
 823.299804688 45.2001953125 820.700195312 52.7998046875 816.599609375 59.5 c 1
 800.400390625 29.599609375 780.400390625 2 757.400390625 -22.599609375 c 1
 763.299804688 -23.900390625 769.5 -24.2998046875 775.799804688 -23.599609375 c 0
EndSplineSet
EndChar

StartChar: uniE105
Encoding: 57605 57605 5
Width: 1000
Flags: HW
LayerCount: 2
Fore
SplineSet
871.400390625 242.099609375 m 1
 873.599609375 242.099609375 l 1
 873.599609375 -147.400390625 l 1
 736.799804688 -147.400390625 l 1
 736.799804688 -49.2001953125 l 1
 666 -111.700195312 572.700195312 -149.400390625 470.900390625 -148.700195312 c 1
 470.900390625 -148.700195312 l 1
 447.299804688 -149 l 1
 447.299804688 -149 l 1
 282.599609375 -145.5 154.299804688 -9.099609375 157.900390625 155.700195312 c 0
 157.900390625 156.599609375 157.900390625 157.400390625 157.900390625 158.299804688 c 1
 157.900390625 158.299804688 l 1
 159 354.299804688 189 549.099609375 246.900390625 736.299804688 c 1
 413.5 684.599609375 l 1
 359.700195312 510.599609375 332.299804688 329.5 332.299804688 147.400390625 c 1
 332.299804688 147.400390625 l 1
 333 97.599609375 361.900390625 54.5 405.5 35.900390625 c 1
 391.900390625 63 384.200195312 93.7998046875 384.200195312 126.299804688 c 0
 384.200195312 236.799804688 472.599609375 326.299804688 581.599609375 326.299804688 c 0
 647 326.299804688 705 294 740.900390625 244.400390625 c 1
 871.400390625 242.099609375 l 1
 871.400390625 242.099609375 l 1
581.599609375 181.200195312 m 0
 552.700195312 181.200195312 529.299804688 156.599609375 529.299804688 126.299804688 c 0
 529.299804688 96 552.700195312 71.400390625 581.599609375 71.400390625 c 0
 610.5 71.400390625 633.900390625 96 633.900390625 126.299804688 c 0
 633.900390625 156.599609375 610.5 181.200195312 581.599609375 181.200195312 c 0
EndSplineSet
EndChar

StartChar: uniE106
Encoding: 57606 57606 6
Width: 1000
Flags: HW
LayerCount: 2
Fore
SplineSet
862.299804688 241.900390625 m 1
 863.099609375 241.900390625 l 1
 863.099609375 -147.599609375 l 1
 726.299804688 -147.599609375 l 1
 726.299804688 -50.7998046875 l 1
 655.599609375 -112.599609375 563 -149.700195312 461.900390625 -149 c 1
 461.900390625 -149 l 1
 438.299804688 -149.299804688 l 1
 438.299804688 -149.299804688 l 1
 273.599609375 -145.700195312 143.700195312 -9.400390625 147.299804688 155.400390625 c 0
 147.299804688 156.299804688 147.400390625 157.200195312 147.400390625 158.099609375 c 1
 147.400390625 158.099609375 l 1
 148.5 354.299804688 178.5 549.299804688 236.700195312 736.700195312 c 1
 403.400390625 685.099609375 l 1
 349.400390625 510.900390625 321.900390625 329.599609375 321.900390625 147.200195312 c 1
 321.900390625 147.200195312 l 1
 322.900390625 83.099609375 372.700195312 30.2001953125 436.799804688 26.099609375 c 1
 436.799804688 26.099609375 l 1
 473.599609375 24.900390625 l 1
 473.599609375 24.900390625 l 1
 591.599609375 29.599609375 686.5 125.700195312 688.599609375 245 c 1
 862.299804688 241.900390625 l 1
 862.299804688 241.900390625 l 1
EndSplineSet
EndChar

StartChar: uniE107
Encoding: 57607 57607 7
Width: 1000
Flags: HW
LayerCount: 2
Fore
SplineSet
909.400390625 -57.900390625 m 5
 909.400390625 -57.900390625 l 1
 909.400390625 -142.299804688 l 1
 735.700195312 -142.299804688 l 1
 735.700195312 -58.099609375 l 1
 735.700195312 -58.099609375 l 1
 733.799804688 -43.7001953125 723.700195312 -32.599609375 708.799804688 -32.7001953125 c 0
 706.200195312 -32.7001953125 703.700195312 -33.099609375 701.200195312 -33.7998046875 c 2
 616.599609375 -94.099609375 l 1
 616.599609375 -94.099609375 l 1
 481.900390625 -189 296.200195312 -157.400390625 201.299804688 -22.7001953125 c 0
 166.200195312 27.2001953125 146.599609375 86.5 146.200195312 147.299804688 c 1
 146.200195312 147.299804688 l 1
 146.200195312 347.200195312 176.400390625 546 235.599609375 736.900390625 c 1
 402.299804688 685.200195312 l 1
 348.799804688 512.799804688 321.400390625 333.400390625 320.799804688 153 c 1
 320.799804688 153 l 1
 320.099609375 128.299804688 327.900390625 105.099609375 339.799804688 85.5 c 1
 337.099609375 98.7001953125 335.700195312 112.299804688 335.700195312 126.299804688 c 0
 335.700195312 236.799804688 424.099609375 326.299804688 533.099609375 326.299804688 c 0
 638.799804688 326.299804688 725.200195312 242 730.200195312 136.099609375 c 1
 785.099609375 130.200195312 837.299804688 101.599609375 871.599609375 53 c 0
 894.5 20.5 908.599609375 -18.099609375 909.400390625 -57.900390625 c 5
533 181.200195312 m 0
 504.200195312 181.200195312 480.700195312 156.599609375 480.700195312 126.299804688 c 0
 480.700195312 96 504.099609375 71.400390625 533 71.400390625 c 0
 541.799804688 71.400390625 550.099609375 73.7001953125 557.400390625 77.7001953125 c 2
 566.900390625 84.5 l 2
 578.200195312 94.599609375 585.299804688 109.599609375 585.299804688 126.299804688 c 0
 585.299804688 156.599609375 561.900390625 181.200195312 533 181.200195312 c 0
EndSplineSet
EndChar

StartChar: uniE108
Encoding: 57608 57608 8
Width: 1000
Flags: HW
LayerCount: 2
Fore
SplineSet
729.099609375 233.700195312 m 1
 831.400390625 196 883.700195312 82.5 845.900390625 -19.7998046875 c 0
 808.200195312 -122.099609375 694.700195312 -174.400390625 592.400390625 -136.599609375 c 0
 576.400390625 -130.700195312 561.299804688 -122.799804688 547.400390625 -113 c 1
 630.200195312 5.099609375 l 1
 654.200195312 -11.7001953125 687.299804688 -5.900390625 704.099609375 18.099609375 c 0
 720.900390625 42.099609375 715.099609375 75.2001953125 691.099609375 92 c 0
 690.099609375 92.7001953125 689.099609375 93.400390625 688.099609375 94 c 0
 561.700195312 152.599609375 411.599609375 97.900390625 352.5 -28.400390625 c 0
 340.799804688 -53.5 333.299804688 -80.2001953125 330.200195312 -107.599609375 c 0
 330.099609375 -116.099609375 330.099609375 -124.5 330.099609375 -133 c 1
 328.700195312 -133 l 1
 328.700195312 -133.900390625 328.700195312 -132.099609375 328.700195312 -133 c 1
 184.400390625 -133 l 1
 184.400390625 -132.099609375 184.400390625 -133.900390625 184.400390625 -133 c 1
 158.099609375 -133 l 1
 158.099609375 163.200195312 202.200195312 457.700195312 289 740.900390625 c 1
 453.400390625 690.5 l 1
 402.900390625 525.599609375 367.799804688 356.700195312 348.299804688 185.900390625 c 1
 413.900390625 233.599609375 494.599609375 261.700195312 581.799804688 261.700195312 c 0
 632.299804688 261.700195312 682.299804688 252.400390625 729.099609375 233.700195312 c 1
 729.099609375 233.700195312 l 1
763.400390625 274.900390625 m 0
 763.400390625 302.514648438 785.786132812 324.900390625 813.400390625 324.900390625 c 0
 841.014648438 324.900390625 863.400390625 302.514648438 863.400390625 274.900390625 c 0
 863.400390625 247.286132812 841.014648438 224.900390625 813.400390625 224.900390625 c 0
 785.786132812 224.900390625 763.400390625 247.286132812 763.400390625 274.900390625 c 0
894.26953125 118.198242188 m 0
 868.756835938 128.766601562 856.641601562 158.015625 867.209960938 183.528320312 c 0
 877.778320312 209.041015625 907.02734375 221.15625 932.540039062 210.587890625 c 0
 958.052734375 200.020507812 970.16796875 170.771484375 959.599609375 145.2578125 c 0
 949.032226562 119.745117188 919.782226562 107.629882812 894.26953125 118.198242188 c 0
EndSplineSet
EndChar

StartChar: uniE109
Encoding: 57609 57609 9
Width: 1000
Flags: HW
LayerCount: 2
Fore
SplineSet
915.599609375 28 m 1
 915.5 28 l 1
 915.5 -145.700195312 l 1
 444 -145.700195312 l 1
 444 -145.700195312 l 1
 279.299804688 -142.099609375 148.799804688 -7.400390625 152.400390625 157.400390625 c 0
 152.400390625 158.299804688 152.5 159.099609375 152.5 160 c 1
 152.5 160 l 1
 153.599609375 356.200195312 183.599609375 551.200195312 241.799804688 738.599609375 c 1
 408.599609375 686.900390625 l 1
 368.700195312 558.400390625 343.299804688 425.900390625 332.700195312 292 c 1
 365.099609375 314.700195312 404.599609375 328 447.200195312 328 c 0
 557.700195312 328 647.200195312 238.5 647.200195312 128 c 0
 647.200195312 91.599609375 637.400390625 57.400390625 620.400390625 28 c 1
 915.599609375 28 l 1
447.200195312 181 m 0
 417.900390625 181 394.200195312 157.299804688 394.200195312 128 c 0
 394.200195312 98.7001953125 417.900390625 75 447.200195312 75 c 0
 476.5 75 500.200195312 98.7001953125 500.200195312 128 c 0
 500.200195312 157.299804688 476.5 181 447.200195312 181 c 0
EndSplineSet
EndChar

StartChar: uniE10A
Encoding: 57610 57610 10
Width: 1000
Flags: HW
LayerCount: 2
Fore
SplineSet
920.900390625 27.599609375 m 1
 920.799804688 27.599609375 l 1
 920.799804688 -146 l 1
 450.599609375 -146 l 1
 450.599609375 -146 l 1
 288.700195312 -142.5 158.599609375 -12.2998046875 157.700195312 148.700195312 c 1
 157.700195312 148.700195312 l 1
 157.700195312 348.599609375 187.900390625 547.400390625 247.099609375 738.299804688 c 1
 413.799804688 686.5 l 1
 373.599609375 556.900390625 348.099609375 423.400390625 337.700195312 288.400390625 c 1
 370.5 313 411.099609375 327.599609375 455.099609375 327.599609375 c 0
 564.099609375 327.599609375 652.5 238.099609375 652.5 127.599609375 c 0
 652.5 91.2001953125 642.900390625 57 626.099609375 27.599609375 c 1
 920.900390625 27.599609375 l 1
455.099609375 182.599609375 m 0
 426.299804688 182.599609375 402.799804688 158 402.799804688 127.700195312 c 0
 402.799804688 97.400390625 426.200195312 72.7998046875 455.099609375 72.7998046875 c 0
 484 72.7998046875 507.400390625 97.400390625 507.400390625 127.700195312 c 0
 507.400390625 158 484 182.599609375 455.099609375 182.599609375 c 0
668.299804688 267.099609375 m 0
 668.299804688 294.713867188 690.685546875 317.099609375 718.299804688 317.099609375 c 0
 745.9140625 317.099609375 768.299804688 294.713867188 768.299804688 267.099609375 c 0
 768.299804688 239.485351562 745.9140625 217.099609375 718.299804688 217.099609375 c 0
 690.685546875 217.099609375 668.299804688 239.485351562 668.299804688 267.099609375 c 0
808.940429688 247.956054688 m 0
 798.372070312 273.46875 810.487304688 302.717773438 836 313.286132812 c 0
 861.512695312 323.853515625 890.762695312 311.73828125 901.330078125 286.225585938 c 0
 911.8984375 260.712890625 899.783203125 231.463867188 874.270507812 220.895507812 c 0
 848.7578125 210.328125 819.5078125 222.443359375 808.940429688 247.956054688 c 0
EndSplineSet
EndChar

StartChar: uniE10B
Encoding: 57611 57611 11
Width: 1000
Flags: HW
LayerCount: 2
Fore
SplineSet
743.400390625 305.299804688 m 0
 854.400390625 305.299804688 944.400390625 215.400390625 944.400390625 104.299804688 c 0
 944.400390625 -6.7998046875 854.299804688 -96.7998046875 743.299804688 -96.7998046875 c 0
 734.299804688 -96.7998046875 725.5 -96.2001953125 716.799804688 -95.099609375 c 1
 716.799804688 -149.700195312 l 1
 542.200195312 -149.700195312 l 1
 542.200195312 -20.599609375 l 1
 446.200195312 25.7001953125 l 1
 437.200195312 -75.599609375 351 -155 246 -155 c 0
 135 -155 45 -66.2001953125 45 43.400390625 c 0
 45 153 135 241.799804688 246.099609375 241.799804688 c 0
 258.700195312 241.799804688 271.099609375 240.599609375 283.099609375 238.400390625 c 1
 283.099609375 723.299804688 l 1
 457.700195312 723.299804688 l 1
 457.700195312 169.599609375 l 1
 543.799804688 128.099609375 l 1
 555.599609375 227.900390625 640.400390625 305.299804688 743.400390625 305.299804688 c 0
246 -9.2001953125 m 0
 276.5 -9.2001953125 301.200195312 14.400390625 301.200195312 43.400390625 c 0
 301.200195312 72.5 276.5 96 246 96 c 0
 215.5 96 190.799804688 72.400390625 190.799804688 43.400390625 c 0
 190.799804688 14.2998046875 215.5 -9.2001953125 246 -9.2001953125 c 0
743.400390625 51 m 0
 772.799804688 51 796.700195312 74.7998046875 796.700195312 104.299804688 c 0
 796.700195312 133.799804688 772.900390625 157.599609375 743.400390625 157.599609375 c 0
 713.900390625 157.599609375 690.099609375 133.700195312 690.099609375 104.299804688 c 0
 690.099609375 74.7998046875 714 51 743.400390625 51 c 0
EndSplineSet
EndChar

StartChar: uniE10C
Encoding: 57612 57612 12
Width: 1000
Flags: HW
LayerCount: 2
Fore
SplineSet
720.5 233.900390625 m 0
 800.200195312 208.5 857.900390625 133.900390625 857.900390625 45.7998046875 c 0
 857.900390625 -63.2001953125 769.5 -151.599609375 660.5 -151.599609375 c 0
 551.5 -151.599609375 463.099609375 -63.2001953125 463.099609375 45.7998046875 c 0
 463.099609375 60.099609375 464.599609375 74 467.5 87.5 c 1
 418.599609375 62.900390625 377.299804688 22.2998046875 352.299804688 -31.2001953125 c 0
 340.599609375 -56.2998046875 333.099609375 -83 330 -110.400390625 c 0
 329.900390625 -118.900390625 329.900390625 -127.299804688 329.900390625 -135.799804688 c 1
 328.5 -135.799804688 l 1
 328.5 -136.700195312 328.5 -134.900390625 328.5 -135.799804688 c 1
 184.200195312 -135.799804688 l 1
 184.200195312 -134.900390625 184.200195312 -136.700195312 184.200195312 -135.799804688 c 1
 157.900390625 -135.799804688 l 1
 157.900390625 160.400390625 202 454.900390625 288.700195312 738.099609375 c 1
 453.200195312 687.799804688 l 1
 402.700195312 522.900390625 367.599609375 354 348.099609375 183.200195312 c 1
 413.700195312 230.900390625 494.400390625 259 581.599609375 259 c 0
 629.099609375 259 676.099609375 250.5 720.5 233.900390625 c 0
660.5 -6.5 m 0
 689.400390625 -6.5 712.799804688 16.900390625 712.799804688 45.7998046875 c 0
 712.799804688 74.7001953125 689.400390625 98.099609375 660.5 98.099609375 c 0
 631.599609375 98.099609375 608.200195312 74.7001953125 608.200195312 45.7998046875 c 0
 608.200195312 16.900390625 631.599609375 -6.5 660.5 -6.5 c 0
865.5 222.700195312 m 2
 875 217.200195312 878.200195312 205 872.799804688 195.5 c 0
 867.299804688 186 855.099609375 182.700195312 845.599609375 188.200195312 c 2
 707.799804688 267.799804688 l 2
 698.299804688 273.299804688 695 285.5 700.5 295 c 0
 706 304.5 718.200195312 307.799804688 727.700195312 302.299804688 c 2
 865.5 222.700195312 l 2
EndSplineSet
EndChar

StartChar: uniE10D
Encoding: 57613 57613 13
Width: 1000
Flags: HW
LayerCount: 2
Fore
SplineSet
713.099609375 230.599609375 m 1
 815.400390625 192.799804688 867.700195312 79.2998046875 829.799804688 -23 c 0
 792.099609375 -125.299804688 678.599609375 -177.599609375 576.299804688 -139.799804688 c 0
 560.299804688 -133.900390625 545.200195312 -126 531.299804688 -116.200195312 c 1
 614.200195312 1.900390625 l 1
 638.200195312 -14.900390625 671.299804688 -9.099609375 688.099609375 14.900390625 c 0
 704.900390625 38.900390625 699.099609375 72 675.099609375 88.7998046875 c 0
 674.099609375 89.5 673.099609375 90.2001953125 672.099609375 90.7998046875 c 0
 545.700195312 149.400390625 395.599609375 94.7001953125 336.5 -31.599609375 c 0
 324.599609375 -57.2001953125 317 -84.5 314.099609375 -112.400390625 c 0
 314 -120.299804688 314 -128.299804688 314 -136.200195312 c 1
 312.700195312 -136.200195312 l 1
 312.700195312 -137.099609375 312.700195312 -135.299804688 312.700195312 -136.200195312 c 1
 168.400390625 -136.200195312 l 1
 168.400390625 -135.299804688 168.400390625 -137.099609375 168.400390625 -136.200195312 c 1
 142.099609375 -136.200195312 l 1
 142.099609375 159.700195312 186.099609375 454 272.599609375 737 c 1
 437 686.700195312 l 1
 386.700195312 522.099609375 351.700195312 353.299804688 332.200195312 182.700195312 c 1
 397.700195312 230.400390625 478.5 258.599609375 565.799804688 258.599609375 c 0
 616.299804688 258.599609375 666.299804688 249.299804688 713.099609375 230.599609375 c 1
 713.099609375 230.599609375 l 1
852.900390625 222.299804688 m 2
 862.400390625 216.799804688 865.599609375 204.599609375 860.200195312 195.099609375 c 0
 854.700195312 185.599609375 842.5 182.299804688 833 187.799804688 c 2
 695.099609375 267.400390625 l 2
 685.599609375 272.900390625 682.299804688 285.099609375 687.799804688 294.599609375 c 0
 693.299804688 304.099609375 705.5 307.400390625 715 301.900390625 c 2
 852.900390625 222.299804688 l 2
EndSplineSet
EndChar

StartChar: uniE10E
Encoding: 57614 57614 14
Width: 1000
Flags: HW
LayerCount: 2
Fore
SplineSet
815.200195312 82.2001953125 m 1
 935.200195312 -41.599609375 l 1
 791.200195312 -181.200195312 568.900390625 -190.099609375 414.900390625 -70.7001953125 c 1
 378.5 -119.700195312 319.799804688 -151.5 253.5 -151.5 c 0
 143 -151.5 53.5 -63.099609375 53.5 45.900390625 c 0
 53.5 154.900390625 143 243.299804688 253.5 243.299804688 c 0
 255.299804688 243.299804688 257.099609375 243.200195312 258.799804688 243.200195312 c 1
 258.799804688 722.200195312 l 1
 432.400390625 722.200195312 l 1
 432.400390625 245.700195312 l 1
 432.400390625 245.700195312 l 1
 431.599609375 121.200195312 532.299804688 19.5 656.799804688 18.7001953125 c 0
 715.900390625 18.2998046875 772.799804688 41.099609375 815.200195312 82.2001953125 c 1
253.5 -6.400390625 m 0
 283.799804688 -6.400390625 308.400390625 17 308.5 46 c 0
 308.5 49.900390625 308 53.7001953125 307.200195312 57.2998046875 c 0
 305.799804688 64.7001953125 302 71.5 296.900390625 78.099609375 c 0
 290.099609375 86.5 280.599609375 92.7998046875 269.700195312 96 c 2
 262.200195312 97.599609375 l 1
 258.799804688 98 l 2
 257 98.099609375 255.299804688 98.2001953125 253.5 98.2001953125 c 0
 223.200195312 98.2001953125 198.599609375 74.7998046875 198.599609375 45.900390625 c 0
 198.599609375 17 223.200195312 -6.400390625 253.5 -6.400390625 c 0
603.5 227.400390625 m 2
 593.299804688 227.400390625 585.099609375 235.700195312 585.099609375 245.799804688 c 0
 585.099609375 256 593.299804688 264.200195312 603.5 264.200195312 c 2
 761.400390625 264.200195312 l 2
 771.599609375 264.200195312 779.799804688 256 779.799804688 245.799804688 c 0
 779.799804688 235.599609375 771.599609375 227.400390625 761.400390625 227.400390625 c 2
 603.5 227.400390625 l 2
EndSplineSet
EndChar

StartChar: uniE10F
Encoding: 57615 57615 15
Width: 1000
Flags: HW
LayerCount: 2
Fore
SplineSet
395.700195312 326.299804688 m 0
 506.200195312 326.299804688 595.799804688 236.900390625 595.799804688 126.400390625 c 0
 595.799804688 15.900390625 506.299804688 -73.599609375 395.799804688 -73.599609375 c 0
 369.5 -73.599609375 344.400390625 -68.5 321.400390625 -59.2998046875 c 1
 320.700195312 -85.099609375 320.299804688 -111 320.299804688 -136.799804688 c 1
 148.400390625 -136.799804688 l 1
 148.400390625 159.099609375 192.400390625 453.400390625 278.900390625 736.400390625 c 1
 443.200195312 686 l 1
 406.700195312 566.700195312 378.299804688 445.400390625 358 322.700195312 c 1
 370.200195312 325.099609375 382.799804688 326.299804688 395.700195312 326.299804688 c 0
395.700195312 73.2998046875 m 0
 425 73.2998046875 448.700195312 97 448.700195312 126.299804688 c 0
 448.700195312 155.599609375 425 179.299804688 395.700195312 179.299804688 c 0
 366.400390625 179.299804688 342.700195312 155.599609375 342.700195312 126.299804688 c 0
 342.700195312 97 366.400390625 73.2998046875 395.700195312 73.2998046875 c 0
835.200195312 263.200195312 m 2
 845.400390625 263.200195312 853.599609375 254.900390625 853.700195312 244.799804688 c 0
 853.700195312 234.599609375 845.5 226.400390625 835.299804688 226.400390625 c 2
 672.099609375 226.400390625 l 2
 661.900390625 226.400390625 653.700195312 234.599609375 653.700195312 244.799804688 c 0
 653.700195312 255 661.900390625 263.200195312 672.099609375 263.200195312 c 2
 835.200195312 263.200195312 l 2
EndSplineSet
EndChar

StartChar: uniE110
Encoding: 57616 57616 16
Width: 1000
Flags: HW
LayerCount: 2
Fore
SplineSet
699.599609375 245.200195312 m 1
 873.400390625 242.200195312 l 1
 873.200195312 232.700195312 872.700195312 223.400390625 871.900390625 214.099609375 c 2
 871.900390625 -147.299804688 l 1
 740.299804688 -147.299804688 l 1
 740.299804688 -47.7998046875 l 1
 669.299804688 -111.200195312 575.5 -149.400390625 472.900390625 -148.700195312 c 1
 472.900390625 -148.700195312 l 1
 449.299804688 -149 l 1
 449.299804688 -149 l 1
 287.299804688 -145.5 156.900390625 -13.599609375 156 147.400390625 c 1
 156 147.400390625 l 1
 156 347.299804688 186.099609375 546.099609375 245.400390625 737 c 1
 412.099609375 685.400390625 l 1
 358.599609375 513 331.200195312 333.599609375 330.599609375 153.200195312 c 1
 330.599609375 153.200195312 l 1
 328.5 86.7001953125 381.599609375 30.7998046875 447.400390625 26.400390625 c 2
 482.299804688 25.099609375 l 1
 482.299804688 25.099609375 l 1
 601.299804688 28.599609375 697.5 125.099609375 699.599609375 245.200195312 c 1
866.5 310.599609375 m 2
 878.200195312 310.599609375 887.599609375 301.099609375 887.599609375 289.5 c 1
 887.599609375 289.5 l 1
 887.599609375 277.799804688 878.099609375 268.400390625 866.5 268.400390625 c 2
 708.599609375 268.400390625 l 2
 696.900390625 268.400390625 687.5 277.799804688 687.5 289.5 c 0
 687.5 301.200195312 697 310.599609375 708.599609375 310.599609375 c 2
 866.5 310.599609375 l 2
EndSplineSet
EndChar

StartChar: uniE111
Encoding: 57617 57617 17
Width: 1000
Flags: HW
LayerCount: 2
Fore
SplineSet
926.299804688 350.099609375 m 1
 382.099609375 350.099609375 l 1
 372.400390625 294.700195312 364.400390625 239.099609375 358 183.200195312 c 1
 424.5 231.599609375 506.599609375 260.200195312 595.400390625 260.200195312 c 0
 653.900390625 260.200195312 711.099609375 246.200195312 764.200195312 221.700195312 c 0
 827.400390625 188.5 870.5 122.299804688 870.5 45.900390625 c 0
 870.5 -63.7001953125 781.700195312 -152.5 672.099609375 -152.5 c 0
 562.5 -152.5 473.700195312 -63.7001953125 473.700195312 45.900390625 c 0
 473.700195312 60 475.200195312 73.7001953125 478 87 c 1
 428.700195312 62 387.200195312 21.2001953125 362.200195312 -32.400390625 c 0
 350.5 -57.2998046875 343 -84 340 -111.200195312 c 0
 339.900390625 -119.700195312 339.900390625 -128.099609375 339.900390625 -136.599609375 c 1
 338.5 -136.599609375 l 1
 193.400390625 -136.599609375 l 1
 166.900390625 -136.599609375 l 1
 166.900390625 26.599609375 180.200195312 189.400390625 206.599609375 350.099609375 c 1
 84.2001953125 350.099609375 l 1
 84.2001953125 492.200195312 l 1
 233.400390625 492.200195312 l 1
 251.5 576.200195312 273.099609375 659.5 298.299804688 741.900390625 c 1
 463.799804688 691.299804688 l 1
 443.700195312 625.5 426 559.099609375 410.700195312 492.200195312 c 1
 415 492.200195312 l 2
 523.599609375 495.5 618.200195312 569.200195312 650.799804688 672.900390625 c 1
 786.799804688 630.200195312 l 1
 770.5 578.400390625 744.299804688 531.799804688 710.700195312 492.200195312 c 1
 926.299804688 492.200195312 l 1
 926.299804688 350.099609375 l 1
672.099609375 98.599609375 m 0
 643 98.599609375 619.5 75 619.5 46 c 0
 619.5 16.900390625 643.099609375 -6.599609375 672.099609375 -6.599609375 c 0
 701.099609375 -6.599609375 724.700195312 16.900390625 724.700195312 46 c 0
 724.700195312 75.099609375 701.200195312 98.599609375 672.099609375 98.599609375 c 0
EndSplineSet
EndChar

StartChar: uniE112
Encoding: 57618 57618 18
Width: 1000
Flags: HW
LayerCount: 2
Fore
SplineSet
926.299804688 350.099609375 m 2
 367.200195312 350.099609375 l 1
 357.599609375 294.900390625 349.599609375 239.5 343.200195312 183.799804688 c 1
 408.799804688 231.5 489.5 259.599609375 576.700195312 259.599609375 c 0
 628 259.599609375 679.299804688 251.200195312 726.700195312 231.900390625 c 0
 830.5 194.599609375 884 81.2998046875 846.099609375 -21.099609375 c 0
 808.299804688 -123.5 693.5 -176.299804688 589.700195312 -139 c 0
 573.599609375 -133.200195312 558.400390625 -125.400390625 544.299804688 -115.799804688 c 1
 627.200195312 2.400390625 l 1
 652.700195312 -13.900390625 687.299804688 -7.400390625 704.400390625 17 c 0
 721.5 41.400390625 714.700195312 74.2998046875 689.099609375 90.599609375 c 0
 687.700195312 91.599609375 686.099609375 92.400390625 684.599609375 93.2001953125 c 0
 558 152.400390625 406.599609375 96.099609375 347.400390625 -30.5 c 0
 335.700195312 -55.599609375 328.200195312 -82.2998046875 325.099609375 -109.700195312 c 0
 325 -118.200195312 325 -126.599609375 325 -135.099609375 c 1
 323.599609375 -135.099609375 l 1
 179.299804688 -135.099609375 l 1
 153 -135.099609375 l 1
 153 27.7001953125 166.299804688 189.900390625 192.700195312 350.099609375 c 1
 84.2001953125 350.099609375 l 1
 84.2001953125 492.200195312 l 1
 219.700195312 492.200195312 l 1
 237.5 575.200195312 258.900390625 657.5 283.799804688 738.799804688 c 1
 448.299804688 688.400390625 l 1
 428.400390625 623.599609375 411 558.099609375 395.900390625 492.200195312 c 1
 415 492.200195312 l 2
 523.599609375 495.5 618.200195312 569.200195312 650.799804688 672.900390625 c 1
 786.799804688 630.200195312 l 1
 770.5 578.400390625 744.299804688 531.799804688 710.700195312 492.200195312 c 1
 926.299804688 492.200195312 l 1
 926.299804688 350.099609375 l 2
EndSplineSet
EndChar

StartChar: uniE113
Encoding: 57619 57619 19
Width: 1000
Flags: HW
LayerCount: 2
Fore
SplineSet
825.099609375 81 m 1
 945 -42.7998046875 l 1
 800.700195312 -182.599609375 577.799804688 -191.299804688 423.700195312 -71.099609375 c 1
 387.400390625 -120.5 328.299804688 -152.700195312 261.700195312 -152.700195312 c 0
 151.200195312 -152.700195312 61.7001953125 -64.2998046875 61.7001953125 44.7001953125 c 0
 61.7001953125 153.700195312 151.200195312 242.099609375 261.700195312 242.099609375 c 0
 263.5 242.099609375 265.299804688 242 267 242 c 1
 267 350.099609375 l 1
 84.2001953125 350.099609375 l 1
 84.2001953125 492.200195312 l 1
 267 492.200195312 l 1
 267 721 l 1
 440.700195312 721 l 1
 440.700195312 494.299804688 l 1
 538.299804688 507.400390625 620.799804688 577.5 650.799804688 672.900390625 c 1
 786.799804688 630.200195312 l 1
 770.5 578.400390625 744.299804688 531.799804688 710.700195312 492.200195312 c 1
 926.299804688 492.200195312 l 1
 926.299804688 350.099609375 l 1
 440.700195312 350.099609375 l 1
 440.700195312 244.5 l 2
 439.900390625 120 542.200195312 18.2998046875 666.700195312 17.5 c 0
 725.799804688 17.099609375 782.700195312 39.900390625 825.099609375 81 c 1
261.700195312 -7.599609375 m 0
 292.099609375 -7.599609375 316.599609375 15.7998046875 316.5 44.7001953125 c 0
 316.5 51.900390625 315 58.7001953125 312.299804688 64.900390625 c 0
 311.700195312 66.2001953125 311 67.5 310.400390625 68.7998046875 c 0
 303.799804688 81 292.099609375 90.400390625 278.099609375 94.599609375 c 0
 277.900390625 94.7001953125 277.700195312 94.7998046875 277.5 94.7998046875 c 2
 268.400390625 96.599609375 l 2
 268.299804688 96.7001953125 268.099609375 96.7001953125 268 96.7001953125 c 2
 267 96.7998046875 l 2
 265.200195312 96.900390625 263.5 97 261.700195312 97 c 0
 231.400390625 97 206.799804688 73.599609375 206.799804688 44.7001953125 c 0
 206.799804688 15.7998046875 231.400390625 -7.599609375 261.700195312 -7.599609375 c 0
EndSplineSet
EndChar

StartChar: uniE114
Encoding: 57620 57620 20
Width: 1000
Flags: HW
LayerCount: 2
Fore
SplineSet
926.299804688 350.099609375 m 2
 372.5 350.099609375 l 1
 370.900390625 341 369.299804688 331.900390625 367.799804688 322.799804688 c 1
 380 325.099609375 392.5 326.299804688 405.299804688 326.299804688 c 0
 515.700195312 326.299804688 605.299804688 236.900390625 605.299804688 126.400390625 c 0
 605.299804688 15.900390625 515.799804688 -73.599609375 405.299804688 -73.599609375 c 0
 379.099609375 -73.599609375 354.099609375 -68.599609375 331.099609375 -59.400390625 c 1
 330.400390625 -85.2001953125 330 -111 330 -136.799804688 c 1
 157.900390625 -136.799804688 l 1
 157.900390625 26.5 171.299804688 189.400390625 197.900390625 350.099609375 c 1
 84.2001953125 350.099609375 l 1
 84.2001953125 492.200195312 l 1
 225 492.200195312 l 1
 242.700195312 574.599609375 264 656.299804688 288.700195312 737.099609375 c 1
 453.299804688 686.700195312 l 1
 433.599609375 622.400390625 416.299804688 557.5 401.299804688 492.200195312 c 1
 415 492.200195312 l 2
 523.599609375 495.5 618.200195312 569.200195312 650.799804688 672.900390625 c 1
 786.799804688 630.200195312 l 1
 770.5 578.400390625 744.299804688 531.799804688 710.700195312 492.200195312 c 1
 926.299804688 492.200195312 l 1
 926.299804688 350.099609375 l 2
405.299804688 179.299804688 m 0
 376 179.299804688 352.299804688 155.599609375 352.299804688 126.299804688 c 0
 352.299804688 97 376 73.2998046875 405.299804688 73.2998046875 c 0
 434.5 73.2998046875 458.299804688 97 458.299804688 126.299804688 c 0
 458.299804688 155.599609375 434.599609375 179.299804688 405.299804688 179.299804688 c 0
EndSplineSet
EndChar

StartChar: uniE115
Encoding: 57621 57621 21
Width: 1000
Flags: HW
LayerCount: 2
Fore
SplineSet
862.400390625 207 m 1
 946.599609375 162.700195312 989.200195312 63 958.900390625 -30.5 c 0
 924.900390625 -135 812.700195312 -192.200195312 708.200195312 -158.200195312 c 0
 679.200195312 -148.799804688 653.400390625 -133.099609375 632.200195312 -112.799804688 c 1
 581 -136.200195312 524 -149.099609375 464.099609375 -148.700195312 c 2
 440.5 -149 l 1
 278.5 -145.5 148.200195312 -13.599609375 147.299804688 147.400390625 c 0
 147.299804688 215.200195312 150.799804688 282.799804688 157.700195312 350.099609375 c 1
 84.2001953125 350.099609375 l 1
 84.2001953125 492.200195312 l 1
 177.5 492.200195312 l 1
 192 574.900390625 211.799804688 656.599609375 236.700195312 737 c 1
 403.5 685.299804688 l 1
 383.700195312 621.799804688 367.599609375 557.299804688 355 492.200195312 c 1
 415 492.200195312 l 2
 523.599609375 495.5 618.200195312 569.200195312 650.799804688 672.900390625 c 1
 786.799804688 630.200195312 l 1
 770.5 578.400390625 744.299804688 531.799804688 710.700195312 492.200195312 c 1
 926.299804688 492.200195312 l 1
 926.299804688 350.099609375 l 1
 333.400390625 350.099609375 l 1
 326 284.799804688 322.200195312 219 322 153.099609375 c 0
 320 86.599609375 372.900390625 30.7001953125 438.700195312 26.2998046875 c 2
 484.200195312 25.599609375 l 1
 598.299804688 34.400390625 688.900390625 128.700195312 690.900390625 245.200195312 c 1
 864.599609375 242.200195312 l 1
 864.299804688 230.299804688 863.599609375 218.599609375 862.400390625 207 c 1
775.799804688 -23.599609375 m 0
 805.900390625 -20.2001953125 827.599609375 7 824.200195312 37.2001953125 c 0
 823.299804688 45.2001953125 820.700195312 52.7998046875 816.599609375 59.5 c 1
 800.400390625 29.599609375 780.400390625 2 757.400390625 -22.599609375 c 1
 763.299804688 -23.900390625 769.5 -24.2998046875 775.799804688 -23.599609375 c 0
EndSplineSet
EndChar

StartChar: uniE116
Encoding: 57622 57622 22
Width: 1000
Flags: HW
LayerCount: 2
Fore
SplineSet
926.299804688 350.099609375 m 2
 343.700195312 350.099609375 l 1
 336.099609375 282.900390625 332.299804688 215.200195312 332.299804688 147.400390625 c 0
 333 97.599609375 361.900390625 54.5 405.5 35.900390625 c 1
 391.900390625 63 384.200195312 93.7998046875 384.200195312 126.299804688 c 0
 384.200195312 236.799804688 472.599609375 326.299804688 581.599609375 326.299804688 c 0
 647 326.299804688 705 294 740.900390625 244.400390625 c 1
 871.400390625 242.099609375 l 1
 873.599609375 242.099609375 l 1
 873.599609375 -147.400390625 l 1
 736.799804688 -147.400390625 l 1
 736.799804688 -49.2001953125 l 1
 666 -111.700195312 572.700195312 -149.400390625 470.900390625 -148.700195312 c 2
 447.299804688 -149 l 1
 282.599609375 -145.5 154.299804688 -9.099609375 157.900390625 155.700195312 c 0
 157.900390625 156.599609375 157.900390625 157.400390625 157.900390625 158.299804688 c 0
 158.299804688 222.400390625 161.799804688 286.400390625 168.299804688 350.099609375 c 1
 84.2001953125 350.099609375 l 1
 84.2001953125 492.200195312 l 1
 188 492.200195312 l 1
 202.5 574.599609375 222.099609375 656.200195312 246.900390625 736.299804688 c 1
 413.5 684.599609375 l 1
 393.900390625 621.299804688 377.799804688 557.099609375 365.299804688 492.200195312 c 1
 415 492.200195312 l 2
 523.599609375 495.5 618.200195312 569.200195312 650.799804688 672.900390625 c 1
 786.799804688 630.200195312 l 1
 770.5 578.400390625 744.299804688 531.799804688 710.700195312 492.200195312 c 1
 926.299804688 492.200195312 l 1
 926.299804688 350.099609375 l 2
581.599609375 181.200195312 m 0
 552.700195312 181.200195312 529.299804688 156.599609375 529.299804688 126.299804688 c 0
 529.299804688 96 552.700195312 71.400390625 581.599609375 71.400390625 c 0
 610.5 71.400390625 633.900390625 96 633.900390625 126.299804688 c 0
 633.900390625 156.599609375 610.5 181.200195312 581.599609375 181.200195312 c 0
EndSplineSet
EndChar

StartChar: uniE117
Encoding: 57623 57623 23
Width: 1000
Flags: HW
LayerCount: 2
Fore
SplineSet
926.299804688 350.099609375 m 1
 333.299804688 350.099609375 l 1
 325.700195312 282.799804688 321.900390625 215.099609375 321.900390625 147.200195312 c 0
 322.900390625 83.099609375 372.700195312 30.2001953125 436.799804688 26.099609375 c 2
 473.599609375 24.900390625 l 1
 591.599609375 29.599609375 686.5 125.700195312 688.599609375 245 c 1
 862.299804688 241.900390625 l 1
 863.099609375 241.900390625 l 1
 863.099609375 -147.599609375 l 1
 726.299804688 -147.599609375 l 1
 726.299804688 -50.7998046875 l 1
 655.599609375 -112.599609375 563 -149.700195312 461.900390625 -149 c 2
 438.299804688 -149.299804688 l 1
 273.599609375 -145.700195312 143.700195312 -9.400390625 147.299804688 155.400390625 c 0
 147.299804688 156.299804688 147.400390625 157.200195312 147.400390625 158.099609375 c 0
 147.799804688 222.299804688 151.299804688 286.400390625 157.799804688 350.099609375 c 1
 84.2001953125 350.099609375 l 1
 84.2001953125 492.200195312 l 1
 177.5 492.200195312 l 1
 192 574.799804688 211.799804688 656.400390625 236.700195312 736.700195312 c 1
 403.400390625 685.099609375 l 1
 383.700195312 621.599609375 367.599609375 557.200195312 355 492.200195312 c 1
 415 492.200195312 l 2
 523.599609375 495.5 618.200195312 569.200195312 650.799804688 672.900390625 c 1
 786.799804688 630.200195312 l 1
 770.5 578.400390625 744.299804688 531.799804688 710.700195312 492.200195312 c 1
 926.299804688 492.200195312 l 1
 926.299804688 350.099609375 l 1
EndSplineSet
EndChar

StartChar: uniE118
Encoding: 57624 57624 24
Width: 1000
Flags: HW
LayerCount: 2
Fore
SplineSet
332.099609375 349.599609375 m 1
 324.799804688 284.400390625 321 218.799804688 320.900390625 153 c 0
 320.200195312 128.299804688 328 105.099609375 339.900390625 85.5 c 1
 337.200195312 98.7001953125 335.799804688 112.299804688 335.799804688 126.299804688 c 0
 335.799804688 236.799804688 424.200195312 326.299804688 533.200195312 326.299804688 c 0
 638.900390625 326.299804688 725.299804688 242 730.299804688 136.099609375 c 1
 785.200195312 130.200195312 837.400390625 101.599609375 871.700195312 53 c 0
 894.599609375 20.5 908.700195312 -18.099609375 909.5 -57.900390625 c 1
 909.5 -57.900390625 l 1
 909.5 -142.299804688 l 1
 735.799804688 -142.299804688 l 1
 735.799804688 -58.099609375 l 2
 733.900390625 -43.7001953125 723.799804688 -32.599609375 708.900390625 -32.7001953125 c 0
 706.299804688 -32.7001953125 703.799804688 -33.099609375 701.299804688 -33.7998046875 c 2
 616.700195312 -94.099609375 l 2
 482 -189 296.299804688 -157.400390625 201.400390625 -22.7001953125 c 0
 166.299804688 27.2001953125 146.700195312 86.5 146.299804688 147.299804688 c 0
 146.299804688 214.900390625 149.700195312 282.5 156.599609375 349.599609375 c 1
 84.7001953125 349.599609375 l 1
 84.7001953125 491.700195312 l 1
 176.299804688 491.700195312 l 1
 190.900390625 574.5 210.599609375 656.400390625 235.599609375 736.900390625 c 1
 402.299804688 685.200195312 l 1
 382.599609375 621.5 366.400390625 556.900390625 353.799804688 491.700195312 c 1
 415.5 491.700195312 l 2
 524.099609375 495 618.700195312 568.700195312 651.299804688 672.400390625 c 1
 787.299804688 629.700195312 l 1
 771 577.900390625 744.799804688 531.299804688 711.200195312 491.700195312 c 1
 926.700195312 491.700195312 l 1
 926.700195312 349.599609375 l 1
 332.099609375 349.599609375 l 1
533 181.200195312 m 0
 504.200195312 181.200195312 480.700195312 156.599609375 480.700195312 126.299804688 c 0
 480.700195312 96 504.099609375 71.400390625 533 71.400390625 c 0
 541.799804688 71.400390625 550.099609375 73.7001953125 557.400390625 77.7001953125 c 2
 566.900390625 84.5 l 2
 578.200195312 94.599609375 585.299804688 109.599609375 585.299804688 126.299804688 c 0
 585.299804688 156.599609375 561.900390625 181.200195312 533 181.200195312 c 0
EndSplineSet
EndChar

StartChar: uniE119
Encoding: 57625 57625 25
Width: 1000
Flags: HW
LayerCount: 2
Fore
SplineSet
729.099609375 233.700195312 m 0
 831.400390625 196 883.700195312 82.5 845.900390625 -19.7998046875 c 0
 808.200195312 -122.099609375 694.700195312 -174.400390625 592.400390625 -136.599609375 c 0
 576.400390625 -130.700195312 561.299804688 -122.799804688 547.400390625 -113 c 1
 630.200195312 5.099609375 l 1
 654.200195312 -11.7001953125 687.299804688 -5.900390625 704.099609375 18.099609375 c 0
 720.900390625 42.099609375 715.099609375 75.2001953125 691.099609375 92 c 0
 690.099609375 92.7001953125 689.099609375 93.400390625 688.099609375 94 c 0
 561.700195312 152.599609375 411.599609375 97.900390625 352.5 -28.400390625 c 0
 340.799804688 -53.5 333.299804688 -80.2001953125 330.200195312 -107.599609375 c 0
 330.099609375 -116.099609375 330.099609375 -124.5 330.099609375 -133 c 1
 328.700195312 -133 l 1
 184.400390625 -133 l 1
 158.099609375 -133 l 1
 158.099609375 29.099609375 171.299804688 190.599609375 197.5 350.099609375 c 1
 84.2001953125 350.099609375 l 1
 84.2001953125 492.200195312 l 1
 224.400390625 492.200195312 l 1
 242.299804688 575.900390625 263.900390625 658.900390625 289 740.900390625 c 1
 453.400390625 690.5 l 1
 433.299804688 625 415.700195312 558.799804688 400.5 492.200195312 c 1
 415 492.200195312 l 2
 523.599609375 495.5 618.200195312 569.200195312 650.799804688 672.900390625 c 1
 786.799804688 630.200195312 l 1
 770.5 578.400390625 744.299804688 531.799804688 710.700195312 492.200195312 c 1
 926.299804688 492.200195312 l 1
 926.299804688 350.099609375 l 1
 372 350.099609375 l 1
 362.5 295.599609375 354.599609375 240.900390625 348.299804688 185.900390625 c 1
 413.900390625 233.599609375 494.599609375 261.700195312 581.799804688 261.700195312 c 0
 632.299804688 261.700195312 682.299804688 252.400390625 729.099609375 233.700195312 c 0
763.400390625 274.900390625 m 0
 763.400390625 302.514648438 785.786132812 324.900390625 813.400390625 324.900390625 c 0
 841.014648438 324.900390625 863.400390625 302.514648438 863.400390625 274.900390625 c 0
 863.400390625 247.286132812 841.014648438 224.900390625 813.400390625 224.900390625 c 0
 785.786132812 224.900390625 763.400390625 247.286132812 763.400390625 274.900390625 c 0
878.03125 129.038085938 m 0
 858.504882812 148.563476562 858.504882812 180.221679688 878.03125 199.748046875 c 0
 897.557617188 219.2734375 929.21484375 219.2734375 948.741210938 199.748046875 c 0
 968.267578125 180.221679688 968.267578125 148.563476562 948.741210938 129.038085938 c 0
 929.21484375 109.51171875 897.557617188 109.51171875 878.03125 129.038085938 c 0
EndSplineSet
EndChar

StartChar: uniE11A
Encoding: 57626 57626 26
Width: 1000
Flags: HW
LayerCount: 2
Fore
SplineSet
926.299804688 350.099609375 m 1
 338.200195312 350.099609375 l 1
 336.099609375 330.799804688 334.200195312 311.400390625 332.700195312 292 c 1
 365.099609375 314.700195312 404.599609375 328 447.200195312 328 c 0
 557.700195312 328 647.200195312 238.5 647.200195312 128 c 0
 647.200195312 91.599609375 637.400390625 57.400390625 620.400390625 28 c 1
 915.5 28 l 1
 915.5 -145.700195312 l 1
 444 -145.700195312 l 2
 279.299804688 -142.099609375 148.799804688 -7.400390625 152.400390625 157.400390625 c 0
 152.400390625 158.299804688 152.5 159.099609375 152.5 160 c 0
 152.900390625 223.599609375 156.299804688 287 162.700195312 350.099609375 c 1
 84.2001953125 350.099609375 l 1
 84.2001953125 492.200195312 l 1
 182.299804688 492.200195312 l 1
 196.799804688 575.400390625 216.700195312 657.700195312 241.799804688 738.599609375 c 1
 408.599609375 686.900390625 l 1
 388.700195312 622.900390625 372.400390625 557.900390625 359.799804688 492.200195312 c 1
 415 492.200195312 l 2
 523.599609375 495.5 618.200195312 569.200195312 650.799804688 672.900390625 c 1
 786.799804688 630.200195312 l 1
 770.5 578.400390625 744.299804688 531.799804688 710.700195312 492.200195312 c 1
 926.299804688 492.200195312 l 1
 926.299804688 350.099609375 l 1
447.200195312 181 m 0
 417.900390625 181 394.200195312 157.299804688 394.200195312 128 c 0
 394.200195312 98.7001953125 417.900390625 75 447.200195312 75 c 0
 476.5 75 500.200195312 98.7001953125 500.200195312 128 c 0
 500.200195312 157.299804688 476.5 181 447.200195312 181 c 0
EndSplineSet
EndChar

StartChar: uniE11B
Encoding: 57627 57627 27
Width: 1000
Flags: HW
LayerCount: 2
Fore
SplineSet
668.299804688 267.099609375 m 0
 668.299804688 294.713867188 690.685546875 317.099609375 718.299804688 317.099609375 c 0
 745.9140625 317.099609375 768.299804688 294.713867188 768.299804688 267.099609375 c 0
 768.299804688 239.485351562 745.9140625 217.099609375 718.299804688 217.099609375 c 0
 690.685546875 217.099609375 668.299804688 239.485351562 668.299804688 267.099609375 c 0
819.739257812 231.71484375 m 0
 800.212890625 251.241210938 800.212890625 282.899414062 819.739257812 302.424804688 c 0
 839.265625 321.951171875 870.923828125 321.951171875 890.44921875 302.424804688 c 0
 909.975585938 282.899414062 909.975585938 251.241210938 890.44921875 231.71484375 c 0
 870.923828125 212.189453125 839.265625 212.189453125 819.739257812 231.71484375 c 0
926.299804688 492.200195312 m 1
 926.299804688 350.099609375 l 1
 343.5 350.099609375 l 1
 341.200195312 329.599609375 339.299804688 309 337.700195312 288.400390625 c 1
 370.5 313 411.099609375 327.599609375 455.099609375 327.599609375 c 0
 564.099609375 327.599609375 652.5 238.099609375 652.5 127.599609375 c 0
 652.5 91.2001953125 642.900390625 57 626.099609375 27.599609375 c 1
 920.799804688 27.599609375 l 1
 920.799804688 -146 l 1
 450.599609375 -146 l 2
 288.700195312 -142.5 158.599609375 -12.2998046875 157.700195312 148.700195312 c 0
 157.700195312 216 161.200195312 283.299804688 168 350.099609375 c 1
 84.2001953125 350.099609375 l 1
 84.2001953125 492.200195312 l 1
 187.599609375 492.200195312 l 1
 202.200195312 575.299804688 222 657.5 247.099609375 738.299804688 c 1
 413.799804688 686.5 l 1
 394 622.599609375 377.700195312 557.700195312 365.099609375 492.200195312 c 1
 415 492.200195312 l 2
 523.599609375 495.5 618.200195312 569.200195312 650.799804688 672.900390625 c 1
 786.799804688 630.200195312 l 1
 770.5 578.400390625 744.299804688 531.799804688 710.700195312 492.200195312 c 1
 926.299804688 492.200195312 l 1
455.099609375 182.599609375 m 0
 426.299804688 182.599609375 402.799804688 158 402.799804688 127.700195312 c 0
 402.799804688 97.400390625 426.200195312 72.7998046875 455.099609375 72.7998046875 c 0
 484 72.7998046875 507.400390625 97.400390625 507.400390625 127.700195312 c 0
 507.400390625 158 484 182.599609375 455.099609375 182.599609375 c 0
EndSplineSet
EndChar

StartChar: uniE11C
Encoding: 57628 57628 28
Width: 1000
Flags: HW
LayerCount: 2
Fore
SplineSet
743.400390625 305.299804688 m 0
 854.400390625 305.299804688 944.400390625 215.400390625 944.400390625 104.299804688 c 0
 944.400390625 -6.7998046875 854.299804688 -96.7998046875 743.299804688 -96.7998046875 c 0
 734.299804688 -96.7998046875 725.5 -96.2001953125 716.799804688 -95.099609375 c 1
 716.799804688 -149.700195312 l 1
 542.200195312 -149.700195312 l 1
 542.200195312 -20.599609375 l 1
 446.200195312 25.7001953125 l 1
 437.200195312 -75.599609375 351 -155 246 -155 c 0
 135 -155 45 -66.2001953125 45 43.400390625 c 0
 45 153 135 241.799804688 246.099609375 241.799804688 c 0
 258.700195312 241.799804688 271.099609375 240.599609375 283.099609375 238.400390625 c 1
 283.099609375 350.099609375 l 1
 84.2001953125 350.099609375 l 1
 84.2001953125 492.200195312 l 1
 283.099609375 492.200195312 l 1
 283.099609375 723.299804688 l 1
 457.700195312 723.299804688 l 1
 457.700195312 497.200195312 l 1
 547.799804688 515.700195312 622.599609375 583.099609375 650.799804688 672.900390625 c 1
 786.799804688 630.200195312 l 1
 770.5 578.400390625 744.299804688 531.799804688 710.700195312 492.200195312 c 1
 926.299804688 492.200195312 l 1
 926.299804688 350.099609375 l 1
 457.700195312 350.099609375 l 1
 457.700195312 169.599609375 l 1
 543.799804688 128.099609375 l 1
 555.599609375 227.900390625 640.400390625 305.299804688 743.400390625 305.299804688 c 0
246 -9.2001953125 m 0
 276.5 -9.2001953125 301.200195312 14.400390625 301.200195312 43.400390625 c 0
 301.200195312 72.5 276.5 96 246 96 c 0
 215.5 96 190.799804688 72.400390625 190.799804688 43.400390625 c 0
 190.799804688 14.2998046875 215.5 -9.2001953125 246 -9.2001953125 c 0
743.400390625 51 m 0
 772.799804688 51 796.700195312 74.7998046875 796.700195312 104.299804688 c 0
 796.700195312 133.799804688 772.900390625 157.599609375 743.400390625 157.599609375 c 0
 713.900390625 157.599609375 690.099609375 133.700195312 690.099609375 104.299804688 c 0
 690.099609375 74.7998046875 714 51 743.400390625 51 c 0
EndSplineSet
EndChar

StartChar: uniE11D
Encoding: 57629 57629 29
Width: 1000
Flags: HW
LayerCount: 2
Fore
SplineSet
865.5 222.700195312 m 2
 875 217.200195312 878.200195312 205 872.799804688 195.5 c 0
 867.299804688 186 855.099609375 182.700195312 845.599609375 188.200195312 c 2
 707.799804688 267.799804688 l 2
 698.299804688 273.299804688 695 285.5 700.5 295 c 0
 706 304.5 718.200195312 307.799804688 727.700195312 302.299804688 c 2
 865.5 222.700195312 l 2
710.700195312 492.200195312 m 1
 926.299804688 492.200195312 l 1
 926.299804688 350.099609375 l 1
 372.299804688 350.099609375 l 1
 362.599609375 294.700195312 354.599609375 239.099609375 348.200195312 183.200195312 c 1
 413.799804688 230.900390625 494.5 259 581.700195312 259 c 0
 629.200195312 259 676.200195312 250.5 720.599609375 233.900390625 c 0
 800.299804688 208.5 858 133.900390625 858 45.7998046875 c 0
 858 -63.2001953125 769.599609375 -151.599609375 660.599609375 -151.599609375 c 0
 551.599609375 -151.599609375 463.200195312 -63.2001953125 463.200195312 45.7998046875 c 0
 463.200195312 60.099609375 464.700195312 74 467.599609375 87.5 c 1
 418.700195312 62.900390625 377.400390625 22.2998046875 352.400390625 -31.2001953125 c 0
 340.700195312 -56.2998046875 333.200195312 -83 330.099609375 -110.400390625 c 0
 330 -118.900390625 330 -127.299804688 330 -135.799804688 c 1
 328.599609375 -135.799804688 l 1
 184.299804688 -135.799804688 l 1
 158 -135.799804688 l 1
 158 27.2001953125 171.299804688 189.700195312 197.799804688 350.099609375 c 1
 84.2001953125 350.099609375 l 1
 84.2001953125 492.200195312 l 1
 224.700195312 492.200195312 l 1
 242.5 575 263.900390625 657 288.700195312 738.099609375 c 1
 453.299804688 687.799804688 l 1
 433.5 623.200195312 416 557.900390625 401 492.200195312 c 1
 415 492.200195312 l 2
 523.599609375 495.5 618.200195312 569.200195312 650.799804688 672.900390625 c 1
 786.799804688 630.200195312 l 1
 770.5 578.400390625 744.299804688 531.799804688 710.700195312 492.200195312 c 1
660.5 98.099609375 m 0
 631.599609375 98.099609375 608.200195312 74.7001953125 608.200195312 45.7998046875 c 0
 608.200195312 16.900390625 631.599609375 -6.5 660.5 -6.5 c 0
 689.400390625 -6.5 712.799804688 16.900390625 712.799804688 45.7998046875 c 0
 712.799804688 74.7001953125 689.400390625 98.099609375 660.5 98.099609375 c 0
EndSplineSet
EndChar

StartChar: uniE11E
Encoding: 57630 57630 30
Width: 1000
Flags: HW
LayerCount: 2
Fore
SplineSet
852.900390625 222.299804688 m 2
 862.400390625 216.799804688 865.599609375 204.599609375 860.200195312 195.099609375 c 0
 854.700195312 185.599609375 842.5 182.299804688 833 187.799804688 c 2
 695.099609375 267.400390625 l 2
 685.599609375 272.900390625 682.299804688 285.099609375 687.799804688 294.599609375 c 0
 693.299804688 304.099609375 705.5 307.400390625 715 301.900390625 c 2
 852.900390625 222.299804688 l 2
710.700195312 492.200195312 m 1
 926.200195312 492.200195312 l 1
 926.200195312 350.099609375 l 1
 356.400390625 350.099609375 l 1
 346.700195312 294.599609375 338.599609375 238.700195312 332.200195312 182.700195312 c 1
 397.700195312 230.400390625 478.5 258.599609375 565.799804688 258.599609375 c 0
 616.299804688 258.599609375 666.299804688 249.299804688 713.099609375 230.599609375 c 0
 815.400390625 192.799804688 867.700195312 79.2998046875 829.799804688 -23 c 0
 792.099609375 -125.299804688 678.599609375 -177.599609375 576.299804688 -139.799804688 c 0
 560.299804688 -133.900390625 545.200195312 -126 531.299804688 -116.200195312 c 1
 614.200195312 1.900390625 l 1
 638.200195312 -14.900390625 671.299804688 -9.099609375 688.099609375 14.900390625 c 0
 704.900390625 38.900390625 699.099609375 72 675.099609375 88.7998046875 c 0
 674.099609375 89.5 673.099609375 90.2001953125 672.099609375 90.7998046875 c 0
 545.700195312 149.400390625 395.599609375 94.7001953125 336.5 -31.599609375 c 0
 324.599609375 -57.2001953125 317 -84.5 314.099609375 -112.400390625 c 0
 314 -120.299804688 314 -128.299804688 314 -136.200195312 c 1
 312.700195312 -136.200195312 l 1
 168.400390625 -136.200195312 l 1
 142.099609375 -136.200195312 l 1
 142.099609375 26.900390625 155.5 189.599609375 182 350.099609375 c 1
 84.2001953125 350.099609375 l 1
 84.2001953125 492.200195312 l 1
 209 492.200195312 l 1
 226.700195312 574.599609375 247.900390625 656.299804688 272.599609375 737 c 1
 437 686.700195312 l 1
 417.299804688 622.400390625 400.099609375 557.599609375 385.099609375 492.200195312 c 1
 415 492.200195312 l 2
 523.599609375 495.5 618.200195312 569.200195312 650.799804688 672.900390625 c 1
 786.799804688 630.200195312 l 1
 770.5 578.400390625 744.299804688 531.799804688 710.700195312 492.200195312 c 1
EndSplineSet
EndChar

StartChar: uniE11F
Encoding: 57631 57631 31
Width: 1000
Flags: HW
LayerCount: 2
Fore
SplineSet
815.200195312 82.2001953125 m 1
 935.200195312 -41.599609375 l 1
 791.200195312 -181.200195312 568.900390625 -190.099609375 414.900390625 -70.7001953125 c 1
 378.5 -119.700195312 319.799804688 -151.5 253.5 -151.5 c 0
 143 -151.5 53.5 -63.099609375 53.5 45.900390625 c 0
 53.5 154.900390625 143 243.299804688 253.5 243.299804688 c 0
 255.299804688 243.299804688 257.099609375 243.200195312 258.799804688 243.200195312 c 1
 258.799804688 350.099609375 l 1
 84.2001953125 350.099609375 l 1
 84.2001953125 492.200195312 l 1
 258.799804688 492.200195312 l 1
 258.799804688 722.200195312 l 1
 432.400390625 722.200195312 l 1
 432.400390625 493.400390625 l 1
 533.599609375 503.5 620 574.799804688 650.799804688 672.900390625 c 1
 786.799804688 630.200195312 l 1
 770.5 578.400390625 744.299804688 531.799804688 710.700195312 492.200195312 c 1
 926.299804688 492.200195312 l 1
 926.299804688 350.099609375 l 1
 432.400390625 350.099609375 l 1
 432.400390625 245.700195312 l 2
 431.599609375 121.200195312 532.299804688 19.5 656.799804688 18.7001953125 c 0
 715.900390625 18.2998046875 772.799804688 41.099609375 815.200195312 82.2001953125 c 1
253.5 -6.400390625 m 0
 283.799804688 -6.400390625 308.400390625 17 308.5 46 c 0
 308.5 49.900390625 308 53.7001953125 307.200195312 57.2998046875 c 0
 305.799804688 64.7001953125 302 71.5 296.900390625 78.099609375 c 0
 290.099609375 86.5 280.599609375 92.7998046875 269.700195312 96 c 2
 262.200195312 97.599609375 l 1
 258.799804688 98 l 2
 257 98.099609375 255.299804688 98.2001953125 253.5 98.2001953125 c 0
 223.200195312 98.2001953125 198.599609375 74.7998046875 198.599609375 45.900390625 c 0
 198.599609375 17 223.200195312 -6.400390625 253.5 -6.400390625 c 0
603.5 264.200195312 m 2
 761.400390625 264.200195312 l 2
 771.599609375 264.200195312 779.799804688 256 779.799804688 245.799804688 c 0
 779.799804688 235.599609375 771.599609375 227.400390625 761.400390625 227.400390625 c 2
 603.5 227.400390625 l 2
 593.299804688 227.400390625 585.099609375 235.700195312 585.099609375 245.799804688 c 0
 585.099609375 256 593.299804688 264.200195312 603.5 264.200195312 c 2
EndSplineSet
EndChar

StartChar: uniE120
Encoding: 57632 57632 32
Width: 1000
Flags: HW
LayerCount: 2
Fore
SplineSet
835.200195312 263.200195312 m 2
 845.400390625 263.200195312 853.599609375 254.900390625 853.700195312 244.799804688 c 0
 853.700195312 234.599609375 845.5 226.400390625 835.299804688 226.400390625 c 2
 672.099609375 226.400390625 l 2
 661.900390625 226.400390625 653.700195312 234.599609375 653.700195312 244.799804688 c 0
 653.700195312 255 661.900390625 263.200195312 672.099609375 263.200195312 c 2
 835.200195312 263.200195312 l 2
710.700195312 492.200195312 m 1
 926.299804688 492.200195312 l 1
 926.299804688 350.099609375 l 1
 362.700195312 350.099609375 l 1
 361.099609375 341 359.5 331.799804688 358 322.700195312 c 1
 370.200195312 325.099609375 382.799804688 326.299804688 395.700195312 326.299804688 c 0
 506.200195312 326.299804688 595.799804688 236.900390625 595.799804688 126.400390625 c 0
 595.799804688 15.900390625 506.299804688 -73.599609375 395.799804688 -73.599609375 c 0
 369.5 -73.599609375 344.400390625 -68.5 321.400390625 -59.2998046875 c 1
 320.700195312 -85.099609375 320.299804688 -111 320.299804688 -136.799804688 c 1
 148.400390625 -136.799804688 l 1
 148.400390625 26.5 161.799804688 189.400390625 188.400390625 350.099609375 c 1
 84.2001953125 350.099609375 l 1
 84.2001953125 492.200195312 l 1
 215.400390625 492.200195312 l 1
 233.099609375 574.400390625 254.299804688 655.799804688 278.900390625 736.400390625 c 1
 443.200195312 686 l 1
 423.599609375 621.900390625 406.299804688 557.299804688 391.400390625 492.200195312 c 1
 415 492.200195312 l 2
 523.599609375 495.5 618.200195312 569.200195312 650.799804688 672.900390625 c 1
 786.799804688 630.200195312 l 1
 770.5 578.400390625 744.299804688 531.799804688 710.700195312 492.200195312 c 1
395.700195312 179.299804688 m 0
 366.400390625 179.299804688 342.700195312 155.599609375 342.700195312 126.299804688 c 0
 342.700195312 97 366.400390625 73.2998046875 395.700195312 73.2998046875 c 0
 425 73.2998046875 448.700195312 97 448.700195312 126.299804688 c 0
 448.700195312 155.599609375 425 179.299804688 395.700195312 179.299804688 c 0
EndSplineSet
EndChar

StartChar: uniE121
Encoding: 57633 57633 33
Width: 1000
Flags: HW
LayerCount: 2
Fore
SplineSet
866.5 310.599609375 m 2
 878.200195312 310.599609375 887.599609375 301.099609375 887.599609375 289.5 c 0
 887.599609375 277.799804688 878.099609375 268.400390625 866.5 268.400390625 c 2
 708.599609375 268.400390625 l 2
 696.900390625 268.400390625 687.5 277.799804688 687.5 289.5 c 0
 687.5 301.200195312 697 310.599609375 708.599609375 310.599609375 c 2
 866.5 310.599609375 l 2
710.700195312 492.200195312 m 1
 926.200195312 492.200195312 l 1
 926.200195312 350.099609375 l 1
 341.900390625 350.099609375 l 1
 334.5 284.799804688 330.700195312 219.099609375 330.5 153.200195312 c 0
 328.400390625 86.7001953125 381.5 30.7998046875 447.299804688 26.400390625 c 2
 482.200195312 25.099609375 l 1
 601.200195312 28.599609375 697.400390625 125.099609375 699.5 245.200195312 c 1
 873.299804688 242.200195312 l 1
 873.099609375 232.700195312 872.599609375 223.400390625 871.799804688 214.099609375 c 2
 871.799804688 -147.299804688 l 1
 740.200195312 -147.299804688 l 1
 740.200195312 -47.7998046875 l 1
 669.200195312 -111.200195312 575.400390625 -149.400390625 472.799804688 -148.700195312 c 2
 449.200195312 -149 l 1
 287.200195312 -145.5 156.799804688 -13.599609375 155.900390625 147.400390625 c 0
 155.900390625 215.200195312 159.400390625 282.799804688 166.299804688 350.099609375 c 1
 84.099609375 350.099609375 l 1
 84.099609375 492.200195312 l 1
 186.099609375 492.200195312 l 1
 200.700195312 574.900390625 220.400390625 656.599609375 245.400390625 737 c 1
 412.099609375 685.400390625 l 1
 392.400390625 621.799804688 376.200195312 557.299804688 363.599609375 492.200195312 c 1
 415 492.200195312 l 2
 523.599609375 495.5 618.200195312 569.200195312 650.799804688 672.900390625 c 1
 786.799804688 630.200195312 l 1
 770.5 578.400390625 744.299804688 531.799804688 710.700195312 492.200195312 c 1
EndSplineSet
EndChar

StartChar: uniE122
Encoding: 57634 57634 34
Width: 1000
Flags: HW
LayerCount: 2
Fore
SplineSet
810.599609375 607.200195312 m 5
 810.599609375 654.299804688 848.799804688 692.400390625 896 692.400390625 c 4
 943.19921875 692.400390625 981.399414062 654.200195312 981.399414062 607.200195312 c 4
 981.399414062 560.200195312 943.19921875 522 896 522 c 4
 848.799804688 522 810.599609375 560.200195312 810.599609375 607.200195312 c 5
 810.599609375 607.200195312 l 5
873.299804688 607.200195312 m 5
 873.299804688 594.799804688 883.5 584.599609375 895.899414062 584.599609375 c 4
 908.399414062 584.599609375 918.5 594.700195312 918.5 607.200195312 c 4
 918.5 619.700195312 908.299804688 629.799804688 895.899414062 629.799804688 c 4
 883.5 629.799804688 873.299804688 619.799804688 873.299804688 607.200195312 c 5
 873.299804688 607.200195312 l 5
926.299804688 350.099609375 m 1
 382.099609375 350.099609375 l 1
 372.400390625 294.700195312 364.400390625 239.099609375 358 183.200195312 c 1
 424.5 231.599609375 506.599609375 260.200195312 595.400390625 260.200195312 c 0
 653.900390625 260.200195312 711.099609375 246.200195312 764.200195312 221.700195312 c 0
 827.400390625 188.5 870.5 122.299804688 870.5 45.900390625 c 0
 870.5 -63.7001953125 781.700195312 -152.5 672.099609375 -152.5 c 0
 562.5 -152.5 473.700195312 -63.7001953125 473.700195312 45.900390625 c 0
 473.700195312 60 475.200195312 73.7001953125 478 87 c 1
 428.700195312 62 387.200195312 21.2001953125 362.200195312 -32.400390625 c 0
 350.5 -57.2998046875 343 -84 340 -111.200195312 c 0
 339.900390625 -119.700195312 339.900390625 -128.099609375 339.900390625 -136.599609375 c 1
 338.5 -136.599609375 l 1
 193.400390625 -136.599609375 l 1
 166.900390625 -136.599609375 l 1
 166.900390625 26.599609375 180.200195312 189.400390625 206.599609375 350.099609375 c 1
 84.2001953125 350.099609375 l 1
 84.2001953125 492.200195312 l 1
 233.400390625 492.200195312 l 1
 251.5 576.200195312 273.099609375 659.5 298.299804688 741.900390625 c 1
 463.799804688 691.299804688 l 1
 443.700195312 625.5 426 559.099609375 410.700195312 492.200195312 c 1
 415 492.200195312 l 2
 523.599609375 495.5 618.200195312 569.200195312 650.799804688 672.900390625 c 1
 786.799804688 630.200195312 l 1
 770.5 578.400390625 744.299804688 531.799804688 710.700195312 492.200195312 c 1
 926.299804688 492.200195312 l 1
 926.299804688 350.099609375 l 1
672.099609375 98.599609375 m 0
 643 98.599609375 619.5 75 619.5 46 c 0
 619.5 16.900390625 643.099609375 -6.599609375 672.099609375 -6.599609375 c 0
 701.099609375 -6.599609375 724.700195312 16.900390625 724.700195312 46 c 0
 724.700195312 75.099609375 701.200195312 98.599609375 672.099609375 98.599609375 c 0
EndSplineSet
EndChar

StartChar: uniE123
Encoding: 57635 57635 35
Width: 1000
Flags: HW
LayerCount: 2
Fore
SplineSet
810.599609375 607.200195312 m 5
 810.599609375 654.299804688 848.799804688 692.400390625 896 692.400390625 c 4
 943.19921875 692.400390625 981.399414062 654.200195312 981.399414062 607.200195312 c 4
 981.399414062 560.200195312 943.19921875 522 896 522 c 4
 848.799804688 522 810.599609375 560.200195312 810.599609375 607.200195312 c 5
 810.599609375 607.200195312 l 5
873.299804688 607.200195312 m 5
 873.299804688 594.799804688 883.5 584.599609375 895.899414062 584.599609375 c 4
 908.399414062 584.599609375 918.5 594.700195312 918.5 607.200195312 c 4
 918.5 619.700195312 908.299804688 629.799804688 895.899414062 629.799804688 c 4
 883.5 629.799804688 873.299804688 619.799804688 873.299804688 607.200195312 c 5
 873.299804688 607.200195312 l 5
926.299804688 350.099609375 m 2
 367.200195312 350.099609375 l 1
 357.599609375 294.900390625 349.599609375 239.5 343.200195312 183.799804688 c 1
 408.799804688 231.5 489.5 259.599609375 576.700195312 259.599609375 c 0
 628 259.599609375 679.299804688 251.200195312 726.700195312 231.900390625 c 0
 830.5 194.599609375 884 81.2998046875 846.099609375 -21.099609375 c 0
 808.299804688 -123.5 693.5 -176.299804688 589.700195312 -139 c 0
 573.599609375 -133.200195312 558.400390625 -125.400390625 544.299804688 -115.799804688 c 1
 627.200195312 2.400390625 l 1
 652.700195312 -13.900390625 687.299804688 -7.400390625 704.400390625 17 c 0
 721.5 41.400390625 714.700195312 74.2998046875 689.099609375 90.599609375 c 0
 687.700195312 91.599609375 686.099609375 92.400390625 684.599609375 93.2001953125 c 0
 558 152.400390625 406.599609375 96.099609375 347.400390625 -30.5 c 0
 335.700195312 -55.599609375 328.200195312 -82.2998046875 325.099609375 -109.700195312 c 0
 325 -118.200195312 325 -126.599609375 325 -135.099609375 c 1
 323.599609375 -135.099609375 l 1
 179.299804688 -135.099609375 l 1
 153 -135.099609375 l 1
 153 27.7001953125 166.299804688 189.900390625 192.700195312 350.099609375 c 1
 84.2001953125 350.099609375 l 1
 84.2001953125 492.200195312 l 1
 219.700195312 492.200195312 l 1
 237.5 575.200195312 258.900390625 657.5 283.799804688 738.799804688 c 1
 448.299804688 688.400390625 l 1
 428.400390625 623.599609375 411 558.099609375 395.900390625 492.200195312 c 1
 415 492.200195312 l 2
 523.599609375 495.5 618.200195312 569.200195312 650.799804688 672.900390625 c 1
 786.799804688 630.200195312 l 1
 770.5 578.400390625 744.299804688 531.799804688 710.700195312 492.200195312 c 1
 926.299804688 492.200195312 l 1
 926.299804688 350.099609375 l 2
EndSplineSet
EndChar

StartChar: uniE124
Encoding: 57636 57636 36
Width: 1000
Flags: HW
LayerCount: 2
Fore
SplineSet
810.599609375 607.200195312 m 5
 810.599609375 654.299804688 848.799804688 692.400390625 896 692.400390625 c 4
 943.19921875 692.400390625 981.399414062 654.200195312 981.399414062 607.200195312 c 4
 981.399414062 560.200195312 943.19921875 522 896 522 c 4
 848.799804688 522 810.599609375 560.200195312 810.599609375 607.200195312 c 5
 810.599609375 607.200195312 l 5
873.299804688 607.200195312 m 5
 873.299804688 594.799804688 883.5 584.599609375 895.899414062 584.599609375 c 4
 908.399414062 584.599609375 918.5 594.700195312 918.5 607.200195312 c 4
 918.5 619.700195312 908.299804688 629.799804688 895.899414062 629.799804688 c 4
 883.5 629.799804688 873.299804688 619.799804688 873.299804688 607.200195312 c 5
 873.299804688 607.200195312 l 5
825.099609375 81 m 1
 945 -42.7998046875 l 1
 800.700195312 -182.599609375 577.799804688 -191.299804688 423.700195312 -71.099609375 c 1
 387.400390625 -120.5 328.299804688 -152.700195312 261.700195312 -152.700195312 c 0
 151.200195312 -152.700195312 61.7001953125 -64.2998046875 61.7001953125 44.7001953125 c 0
 61.7001953125 153.700195312 151.200195312 242.099609375 261.700195312 242.099609375 c 0
 263.5 242.099609375 265.299804688 242 267 242 c 1
 267 350.099609375 l 1
 84.2001953125 350.099609375 l 1
 84.2001953125 492.200195312 l 1
 267 492.200195312 l 1
 267 721 l 1
 440.700195312 721 l 1
 440.700195312 494.299804688 l 1
 538.299804688 507.400390625 620.799804688 577.5 650.799804688 672.900390625 c 1
 786.799804688 630.200195312 l 1
 770.5 578.400390625 744.299804688 531.799804688 710.700195312 492.200195312 c 1
 926.299804688 492.200195312 l 1
 926.299804688 350.099609375 l 1
 440.700195312 350.099609375 l 1
 440.700195312 244.5 l 2
 439.900390625 120 542.200195312 18.2998046875 666.700195312 17.5 c 0
 725.799804688 17.099609375 782.700195312 39.900390625 825.099609375 81 c 1
261.700195312 -7.599609375 m 0
 292.099609375 -7.599609375 316.599609375 15.7998046875 316.5 44.7001953125 c 0
 316.5 51.900390625 315 58.7001953125 312.299804688 64.900390625 c 0
 311.700195312 66.2001953125 311 67.5 310.400390625 68.7998046875 c 0
 303.799804688 81 292.099609375 90.400390625 278.099609375 94.599609375 c 0
 277.900390625 94.7001953125 277.700195312 94.7998046875 277.5 94.7998046875 c 2
 268.400390625 96.599609375 l 2
 268.299804688 96.7001953125 268.099609375 96.7001953125 268 96.7001953125 c 2
 267 96.7998046875 l 2
 265.200195312 96.900390625 263.5 97 261.700195312 97 c 0
 231.400390625 97 206.799804688 73.599609375 206.799804688 44.7001953125 c 0
 206.799804688 15.7998046875 231.400390625 -7.599609375 261.700195312 -7.599609375 c 0
EndSplineSet
EndChar

StartChar: uniE125
Encoding: 57637 57637 37
Width: 1000
Flags: HW
LayerCount: 2
Fore
SplineSet
810.599609375 607.200195312 m 5
 810.599609375 654.299804688 848.799804688 692.400390625 896 692.400390625 c 4
 943.19921875 692.400390625 981.399414062 654.200195312 981.399414062 607.200195312 c 4
 981.399414062 560.200195312 943.19921875 522 896 522 c 4
 848.799804688 522 810.599609375 560.200195312 810.599609375 607.200195312 c 5
 810.599609375 607.200195312 l 5
873.299804688 607.200195312 m 5
 873.299804688 594.799804688 883.5 584.599609375 895.899414062 584.599609375 c 4
 908.399414062 584.599609375 918.5 594.700195312 918.5 607.200195312 c 4
 918.5 619.700195312 908.299804688 629.799804688 895.899414062 629.799804688 c 4
 883.5 629.799804688 873.299804688 619.799804688 873.299804688 607.200195312 c 5
 873.299804688 607.200195312 l 5
926.299804688 350.099609375 m 2
 372.5 350.099609375 l 1
 370.900390625 341 369.299804688 331.900390625 367.799804688 322.799804688 c 1
 380 325.099609375 392.5 326.299804688 405.299804688 326.299804688 c 0
 515.700195312 326.299804688 605.299804688 236.900390625 605.299804688 126.400390625 c 0
 605.299804688 15.900390625 515.799804688 -73.599609375 405.299804688 -73.599609375 c 0
 379.099609375 -73.599609375 354.099609375 -68.599609375 331.099609375 -59.400390625 c 1
 330.400390625 -85.2001953125 330 -111 330 -136.799804688 c 1
 157.900390625 -136.799804688 l 1
 157.900390625 26.5 171.299804688 189.400390625 197.900390625 350.099609375 c 1
 84.2001953125 350.099609375 l 1
 84.2001953125 492.200195312 l 1
 225 492.200195312 l 1
 242.700195312 574.599609375 264 656.299804688 288.700195312 737.099609375 c 1
 453.299804688 686.700195312 l 1
 433.599609375 622.400390625 416.299804688 557.5 401.299804688 492.200195312 c 1
 415 492.200195312 l 2
 523.599609375 495.5 618.200195312 569.200195312 650.799804688 672.900390625 c 1
 786.799804688 630.200195312 l 1
 770.5 578.400390625 744.299804688 531.799804688 710.700195312 492.200195312 c 1
 926.299804688 492.200195312 l 1
 926.299804688 350.099609375 l 2
405.299804688 179.299804688 m 0
 376 179.299804688 352.299804688 155.599609375 352.299804688 126.299804688 c 0
 352.299804688 97 376 73.2998046875 405.299804688 73.2998046875 c 0
 434.5 73.2998046875 458.299804688 97 458.299804688 126.299804688 c 0
 458.299804688 155.599609375 434.599609375 179.299804688 405.299804688 179.299804688 c 0
EndSplineSet
EndChar

StartChar: uniE126
Encoding: 57638 57638 38
Width: 1000
Flags: HW
LayerCount: 2
Fore
SplineSet
810.599609375 607.200195312 m 5
 810.599609375 654.299804688 848.799804688 692.400390625 896 692.400390625 c 4
 943.19921875 692.400390625 981.399414062 654.200195312 981.399414062 607.200195312 c 4
 981.399414062 560.200195312 943.19921875 522 896 522 c 4
 848.799804688 522 810.599609375 560.200195312 810.599609375 607.200195312 c 5
 810.599609375 607.200195312 l 5
873.299804688 607.200195312 m 5
 873.299804688 594.799804688 883.5 584.599609375 895.899414062 584.599609375 c 4
 908.399414062 584.599609375 918.5 594.700195312 918.5 607.200195312 c 4
 918.5 619.700195312 908.299804688 629.799804688 895.899414062 629.799804688 c 4
 883.5 629.799804688 873.299804688 619.799804688 873.299804688 607.200195312 c 5
 873.299804688 607.200195312 l 5
862.400390625 207 m 1
 946.599609375 162.700195312 989.200195312 63 958.900390625 -30.5 c 0
 924.900390625 -135 812.700195312 -192.200195312 708.200195312 -158.200195312 c 0
 679.200195312 -148.799804688 653.400390625 -133.099609375 632.200195312 -112.799804688 c 1
 581 -136.200195312 524 -149.099609375 464.099609375 -148.700195312 c 2
 440.5 -149 l 1
 278.5 -145.5 148.200195312 -13.599609375 147.299804688 147.400390625 c 0
 147.299804688 215.200195312 150.799804688 282.799804688 157.700195312 350.099609375 c 1
 84.2001953125 350.099609375 l 1
 84.2001953125 492.200195312 l 1
 177.5 492.200195312 l 1
 192 574.900390625 211.799804688 656.599609375 236.700195312 737 c 1
 403.5 685.299804688 l 1
 383.700195312 621.799804688 367.599609375 557.299804688 355 492.200195312 c 1
 415 492.200195312 l 2
 523.599609375 495.5 618.200195312 569.200195312 650.799804688 672.900390625 c 1
 786.799804688 630.200195312 l 1
 770.5 578.400390625 744.299804688 531.799804688 710.700195312 492.200195312 c 1
 926.299804688 492.200195312 l 1
 926.299804688 350.099609375 l 1
 333.400390625 350.099609375 l 1
 326 284.799804688 322.200195312 219 322 153.099609375 c 0
 320 86.599609375 372.900390625 30.7001953125 438.700195312 26.2998046875 c 2
 484.200195312 25.599609375 l 1
 598.299804688 34.400390625 688.900390625 128.700195312 690.900390625 245.200195312 c 1
 864.599609375 242.200195312 l 1
 864.299804688 230.299804688 863.599609375 218.599609375 862.400390625 207 c 1
775.799804688 -23.599609375 m 0
 805.900390625 -20.2001953125 827.599609375 7 824.200195312 37.2001953125 c 0
 823.299804688 45.2001953125 820.700195312 52.7998046875 816.599609375 59.5 c 1
 800.400390625 29.599609375 780.400390625 2 757.400390625 -22.599609375 c 1
 763.299804688 -23.900390625 769.5 -24.2998046875 775.799804688 -23.599609375 c 0
EndSplineSet
EndChar

StartChar: uniE127
Encoding: 57639 57639 39
Width: 1000
Flags: HW
LayerCount: 2
Fore
SplineSet
810.599609375 607.200195312 m 5
 810.599609375 654.299804688 848.799804688 692.400390625 896 692.400390625 c 4
 943.19921875 692.400390625 981.399414062 654.200195312 981.399414062 607.200195312 c 4
 981.399414062 560.200195312 943.19921875 522 896 522 c 4
 848.799804688 522 810.599609375 560.200195312 810.599609375 607.200195312 c 5
 810.599609375 607.200195312 l 5
873.299804688 607.200195312 m 5
 873.299804688 594.799804688 883.5 584.599609375 895.899414062 584.599609375 c 4
 908.399414062 584.599609375 918.5 594.700195312 918.5 607.200195312 c 4
 918.5 619.700195312 908.299804688 629.799804688 895.899414062 629.799804688 c 4
 883.5 629.799804688 873.299804688 619.799804688 873.299804688 607.200195312 c 5
 873.299804688 607.200195312 l 5
926.299804688 350.099609375 m 2
 343.700195312 350.099609375 l 1
 336.099609375 282.900390625 332.299804688 215.200195312 332.299804688 147.400390625 c 0
 333 97.599609375 361.900390625 54.5 405.5 35.900390625 c 1
 391.900390625 63 384.200195312 93.7998046875 384.200195312 126.299804688 c 0
 384.200195312 236.799804688 472.599609375 326.299804688 581.599609375 326.299804688 c 0
 647 326.299804688 705 294 740.900390625 244.400390625 c 1
 871.400390625 242.099609375 l 1
 873.599609375 242.099609375 l 1
 873.599609375 -147.400390625 l 1
 736.799804688 -147.400390625 l 1
 736.799804688 -49.2001953125 l 1
 666 -111.700195312 572.700195312 -149.400390625 470.900390625 -148.700195312 c 2
 447.299804688 -149 l 1
 282.599609375 -145.5 154.299804688 -9.099609375 157.900390625 155.700195312 c 0
 157.900390625 156.599609375 157.900390625 157.400390625 157.900390625 158.299804688 c 0
 158.299804688 222.400390625 161.799804688 286.400390625 168.299804688 350.099609375 c 1
 84.2001953125 350.099609375 l 1
 84.2001953125 492.200195312 l 1
 188 492.200195312 l 1
 202.5 574.599609375 222.099609375 656.200195312 246.900390625 736.299804688 c 1
 413.5 684.599609375 l 1
 393.900390625 621.299804688 377.799804688 557.099609375 365.299804688 492.200195312 c 1
 415 492.200195312 l 2
 523.599609375 495.5 618.200195312 569.200195312 650.799804688 672.900390625 c 1
 786.799804688 630.200195312 l 1
 770.5 578.400390625 744.299804688 531.799804688 710.700195312 492.200195312 c 1
 926.299804688 492.200195312 l 1
 926.299804688 350.099609375 l 2
581.599609375 181.200195312 m 0
 552.700195312 181.200195312 529.299804688 156.599609375 529.299804688 126.299804688 c 0
 529.299804688 96 552.700195312 71.400390625 581.599609375 71.400390625 c 0
 610.5 71.400390625 633.900390625 96 633.900390625 126.299804688 c 0
 633.900390625 156.599609375 610.5 181.200195312 581.599609375 181.200195312 c 0
EndSplineSet
EndChar

StartChar: uniE128
Encoding: 57640 57640 40
Width: 1000
Flags: HW
LayerCount: 2
Fore
SplineSet
810.599609375 607.200195312 m 5
 810.599609375 654.299804688 848.799804688 692.400390625 896 692.400390625 c 4
 943.19921875 692.400390625 981.399414062 654.200195312 981.399414062 607.200195312 c 4
 981.399414062 560.200195312 943.19921875 522 896 522 c 4
 848.799804688 522 810.599609375 560.200195312 810.599609375 607.200195312 c 5
 810.599609375 607.200195312 l 5
873.299804688 607.200195312 m 5
 873.299804688 594.799804688 883.5 584.599609375 895.899414062 584.599609375 c 4
 908.399414062 584.599609375 918.5 594.700195312 918.5 607.200195312 c 4
 918.5 619.700195312 908.299804688 629.799804688 895.899414062 629.799804688 c 4
 883.5 629.799804688 873.299804688 619.799804688 873.299804688 607.200195312 c 5
 873.299804688 607.200195312 l 5
926.299804688 350.099609375 m 1
 333.299804688 350.099609375 l 1
 325.700195312 282.799804688 321.900390625 215.099609375 321.900390625 147.200195312 c 0
 322.900390625 83.099609375 372.700195312 30.2001953125 436.799804688 26.099609375 c 2
 473.599609375 24.900390625 l 1
 591.599609375 29.599609375 686.5 125.700195312 688.599609375 245 c 1
 862.299804688 241.900390625 l 1
 863.099609375 241.900390625 l 1
 863.099609375 -147.599609375 l 1
 726.299804688 -147.599609375 l 1
 726.299804688 -50.7998046875 l 1
 655.599609375 -112.599609375 563 -149.700195312 461.900390625 -149 c 2
 438.299804688 -149.299804688 l 1
 273.599609375 -145.700195312 143.700195312 -9.400390625 147.299804688 155.400390625 c 0
 147.299804688 156.299804688 147.400390625 157.200195312 147.400390625 158.099609375 c 0
 147.799804688 222.299804688 151.299804688 286.400390625 157.799804688 350.099609375 c 1
 84.2001953125 350.099609375 l 1
 84.2001953125 492.200195312 l 1
 177.5 492.200195312 l 1
 192 574.799804688 211.799804688 656.400390625 236.700195312 736.700195312 c 1
 403.400390625 685.099609375 l 1
 383.700195312 621.599609375 367.599609375 557.200195312 355 492.200195312 c 1
 415 492.200195312 l 2
 523.599609375 495.5 618.200195312 569.200195312 650.799804688 672.900390625 c 1
 786.799804688 630.200195312 l 1
 770.5 578.400390625 744.299804688 531.799804688 710.700195312 492.200195312 c 1
 926.299804688 492.200195312 l 1
 926.299804688 350.099609375 l 1
EndSplineSet
EndChar

StartChar: uniE129
Encoding: 57641 57641 41
Width: 1000
Flags: HW
LayerCount: 2
Fore
SplineSet
810.599609375 607.200195312 m 5
 810.599609375 654.299804688 848.799804688 692.400390625 896 692.400390625 c 4
 943.19921875 692.400390625 981.399414062 654.200195312 981.399414062 607.200195312 c 4
 981.399414062 560.200195312 943.19921875 522 896 522 c 4
 848.799804688 522 810.599609375 560.200195312 810.599609375 607.200195312 c 5
 810.599609375 607.200195312 l 5
873.299804688 607.200195312 m 5
 873.299804688 594.799804688 883.5 584.599609375 895.899414062 584.599609375 c 4
 908.399414062 584.599609375 918.5 594.700195312 918.5 607.200195312 c 4
 918.5 619.700195312 908.299804688 629.799804688 895.899414062 629.799804688 c 4
 883.5 629.799804688 873.299804688 619.799804688 873.299804688 607.200195312 c 5
 873.299804688 607.200195312 l 5
332.099609375 349.599609375 m 1
 324.799804688 284.400390625 321 218.799804688 320.900390625 153 c 0
 320.200195312 128.299804688 328 105.099609375 339.900390625 85.5 c 1
 337.200195312 98.7001953125 335.799804688 112.299804688 335.799804688 126.299804688 c 0
 335.799804688 236.799804688 424.200195312 326.299804688 533.200195312 326.299804688 c 0
 638.900390625 326.299804688 725.299804688 242 730.299804688 136.099609375 c 1
 785.200195312 130.200195312 837.400390625 101.599609375 871.700195312 53 c 0
 894.599609375 20.5 908.700195312 -18.099609375 909.5 -57.900390625 c 1
 909.5 -57.900390625 l 1
 909.5 -142.299804688 l 1
 735.799804688 -142.299804688 l 1
 735.799804688 -58.099609375 l 2
 733.900390625 -43.7001953125 723.799804688 -32.599609375 708.900390625 -32.7001953125 c 0
 706.299804688 -32.7001953125 703.799804688 -33.099609375 701.299804688 -33.7998046875 c 2
 616.700195312 -94.099609375 l 2
 482 -189 296.299804688 -157.400390625 201.400390625 -22.7001953125 c 0
 166.299804688 27.2001953125 146.700195312 86.5 146.299804688 147.299804688 c 0
 146.299804688 214.900390625 149.700195312 282.5 156.599609375 349.599609375 c 1
 84.7001953125 349.599609375 l 1
 84.7001953125 491.700195312 l 1
 176.299804688 491.700195312 l 1
 190.900390625 574.5 210.599609375 656.400390625 235.599609375 736.900390625 c 1
 402.299804688 685.200195312 l 1
 382.599609375 621.5 366.400390625 556.900390625 353.799804688 491.700195312 c 1
 415.5 491.700195312 l 2
 524.099609375 495 618.700195312 568.700195312 651.299804688 672.400390625 c 1
 787.299804688 629.700195312 l 1
 771 577.900390625 744.799804688 531.299804688 711.200195312 491.700195312 c 1
 926.700195312 491.700195312 l 1
 926.700195312 349.599609375 l 1
 332.099609375 349.599609375 l 1
533 181.200195312 m 0
 504.200195312 181.200195312 480.700195312 156.599609375 480.700195312 126.299804688 c 0
 480.700195312 96 504.099609375 71.400390625 533 71.400390625 c 0
 541.799804688 71.400390625 550.099609375 73.7001953125 557.400390625 77.7001953125 c 2
 566.900390625 84.5 l 2
 578.200195312 94.599609375 585.299804688 109.599609375 585.299804688 126.299804688 c 0
 585.299804688 156.599609375 561.900390625 181.200195312 533 181.200195312 c 0
EndSplineSet
EndChar

StartChar: uniE12A
Encoding: 57642 57642 42
Width: 1000
Flags: HW
LayerCount: 2
Fore
SplineSet
810.599609375 607.200195312 m 5
 810.599609375 654.299804688 848.799804688 692.400390625 896 692.400390625 c 4
 943.19921875 692.400390625 981.399414062 654.200195312 981.399414062 607.200195312 c 4
 981.399414062 560.200195312 943.19921875 522 896 522 c 4
 848.799804688 522 810.599609375 560.200195312 810.599609375 607.200195312 c 5
 810.599609375 607.200195312 l 5
873.299804688 607.200195312 m 5
 873.299804688 594.799804688 883.5 584.599609375 895.899414062 584.599609375 c 4
 908.399414062 584.599609375 918.5 594.700195312 918.5 607.200195312 c 4
 918.5 619.700195312 908.299804688 629.799804688 895.899414062 629.799804688 c 4
 883.5 629.799804688 873.299804688 619.799804688 873.299804688 607.200195312 c 5
 873.299804688 607.200195312 l 5
729.099609375 233.700195312 m 0
 831.400390625 196 883.700195312 82.5 845.900390625 -19.7998046875 c 0
 808.200195312 -122.099609375 694.700195312 -174.400390625 592.400390625 -136.599609375 c 0
 576.400390625 -130.700195312 561.299804688 -122.799804688 547.400390625 -113 c 1
 630.200195312 5.099609375 l 1
 654.200195312 -11.7001953125 687.299804688 -5.900390625 704.099609375 18.099609375 c 0
 720.900390625 42.099609375 715.099609375 75.2001953125 691.099609375 92 c 0
 690.099609375 92.7001953125 689.099609375 93.400390625 688.099609375 94 c 0
 561.700195312 152.599609375 411.599609375 97.900390625 352.5 -28.400390625 c 0
 340.799804688 -53.5 333.299804688 -80.2001953125 330.200195312 -107.599609375 c 0
 330.099609375 -116.099609375 330.099609375 -124.5 330.099609375 -133 c 1
 328.700195312 -133 l 1
 184.400390625 -133 l 1
 158.099609375 -133 l 1
 158.099609375 29.099609375 171.299804688 190.599609375 197.5 350.099609375 c 1
 84.2001953125 350.099609375 l 1
 84.2001953125 492.200195312 l 1
 224.400390625 492.200195312 l 1
 242.299804688 575.900390625 263.900390625 658.900390625 289 740.900390625 c 1
 453.400390625 690.5 l 1
 433.299804688 625 415.700195312 558.799804688 400.5 492.200195312 c 1
 415 492.200195312 l 2
 523.599609375 495.5 618.200195312 569.200195312 650.799804688 672.900390625 c 1
 786.799804688 630.200195312 l 1
 770.5 578.400390625 744.299804688 531.799804688 710.700195312 492.200195312 c 1
 926.299804688 492.200195312 l 1
 926.299804688 350.099609375 l 1
 372 350.099609375 l 1
 362.5 295.599609375 354.599609375 240.900390625 348.299804688 185.900390625 c 1
 413.900390625 233.599609375 494.599609375 261.700195312 581.799804688 261.700195312 c 0
 632.299804688 261.700195312 682.299804688 252.400390625 729.099609375 233.700195312 c 0
763.400390625 274.900390625 m 0
 763.400390625 302.514648438 785.786132812 324.900390625 813.400390625 324.900390625 c 0
 841.014648438 324.900390625 863.400390625 302.514648438 863.400390625 274.900390625 c 0
 863.400390625 247.286132812 841.014648438 224.900390625 813.400390625 224.900390625 c 0
 785.786132812 224.900390625 763.400390625 247.286132812 763.400390625 274.900390625 c 0
878.03125 129.038085938 m 0
 858.504882812 148.563476562 858.504882812 180.221679688 878.03125 199.748046875 c 0
 897.557617188 219.2734375 929.21484375 219.2734375 948.741210938 199.748046875 c 0
 968.267578125 180.221679688 968.267578125 148.563476562 948.741210938 129.038085938 c 0
 929.21484375 109.51171875 897.557617188 109.51171875 878.03125 129.038085938 c 0
EndSplineSet
EndChar

StartChar: uniE12B
Encoding: 57643 57643 43
Width: 1000
Flags: HW
LayerCount: 2
Fore
SplineSet
810.599609375 607.200195312 m 5
 810.599609375 654.299804688 848.799804688 692.400390625 896 692.400390625 c 4
 943.19921875 692.400390625 981.399414062 654.200195312 981.399414062 607.200195312 c 4
 981.399414062 560.200195312 943.19921875 522 896 522 c 4
 848.799804688 522 810.599609375 560.200195312 810.599609375 607.200195312 c 5
 810.599609375 607.200195312 l 5
873.299804688 607.200195312 m 5
 873.299804688 594.799804688 883.5 584.599609375 895.899414062 584.599609375 c 4
 908.399414062 584.599609375 918.5 594.700195312 918.5 607.200195312 c 4
 918.5 619.700195312 908.299804688 629.799804688 895.899414062 629.799804688 c 4
 883.5 629.799804688 873.299804688 619.799804688 873.299804688 607.200195312 c 5
 873.299804688 607.200195312 l 5
926.299804688 350.099609375 m 1
 338.200195312 350.099609375 l 1
 336.099609375 330.799804688 334.200195312 311.400390625 332.700195312 292 c 1
 365.099609375 314.700195312 404.599609375 328 447.200195312 328 c 0
 557.700195312 328 647.200195312 238.5 647.200195312 128 c 0
 647.200195312 91.599609375 637.400390625 57.400390625 620.400390625 28 c 1
 915.5 28 l 1
 915.5 -145.700195312 l 1
 444 -145.700195312 l 2
 279.299804688 -142.099609375 148.799804688 -7.400390625 152.400390625 157.400390625 c 0
 152.400390625 158.299804688 152.5 159.099609375 152.5 160 c 0
 152.900390625 223.599609375 156.299804688 287 162.700195312 350.099609375 c 1
 84.2001953125 350.099609375 l 1
 84.2001953125 492.200195312 l 1
 182.299804688 492.200195312 l 1
 196.799804688 575.400390625 216.700195312 657.700195312 241.799804688 738.599609375 c 1
 408.599609375 686.900390625 l 1
 388.700195312 622.900390625 372.400390625 557.900390625 359.799804688 492.200195312 c 1
 415 492.200195312 l 2
 523.599609375 495.5 618.200195312 569.200195312 650.799804688 672.900390625 c 1
 786.799804688 630.200195312 l 1
 770.5 578.400390625 744.299804688 531.799804688 710.700195312 492.200195312 c 1
 926.299804688 492.200195312 l 1
 926.299804688 350.099609375 l 1
447.200195312 181 m 0
 417.900390625 181 394.200195312 157.299804688 394.200195312 128 c 0
 394.200195312 98.7001953125 417.900390625 75 447.200195312 75 c 0
 476.5 75 500.200195312 98.7001953125 500.200195312 128 c 0
 500.200195312 157.299804688 476.5 181 447.200195312 181 c 0
EndSplineSet
EndChar

StartChar: uniE12C
Encoding: 57644 57644 44
Width: 1000
Flags: HW
LayerCount: 2
Fore
SplineSet
810.599609375 607.200195312 m 5
 810.599609375 654.299804688 848.799804688 692.400390625 896 692.400390625 c 4
 943.19921875 692.400390625 981.399414062 654.200195312 981.399414062 607.200195312 c 4
 981.399414062 560.200195312 943.19921875 522 896 522 c 4
 848.799804688 522 810.599609375 560.200195312 810.599609375 607.200195312 c 5
 810.599609375 607.200195312 l 5
873.299804688 607.200195312 m 5
 873.299804688 594.799804688 883.5 584.599609375 895.899414062 584.599609375 c 4
 908.399414062 584.599609375 918.5 594.700195312 918.5 607.200195312 c 4
 918.5 619.700195312 908.299804688 629.799804688 895.899414062 629.799804688 c 4
 883.5 629.799804688 873.299804688 619.799804688 873.299804688 607.200195312 c 5
 873.299804688 607.200195312 l 5
668.299804688 267.099609375 m 0
 668.299804688 294.713867188 690.685546875 317.099609375 718.299804688 317.099609375 c 0
 745.9140625 317.099609375 768.299804688 294.713867188 768.299804688 267.099609375 c 0
 768.299804688 239.485351562 745.9140625 217.099609375 718.299804688 217.099609375 c 0
 690.685546875 217.099609375 668.299804688 239.485351562 668.299804688 267.099609375 c 0
819.739257812 231.71484375 m 0
 800.212890625 251.241210938 800.212890625 282.899414062 819.739257812 302.424804688 c 0
 839.265625 321.951171875 870.923828125 321.951171875 890.44921875 302.424804688 c 0
 909.975585938 282.899414062 909.975585938 251.241210938 890.44921875 231.71484375 c 0
 870.923828125 212.189453125 839.265625 212.189453125 819.739257812 231.71484375 c 0
926.299804688 492.200195312 m 1
 926.299804688 350.099609375 l 1
 343.5 350.099609375 l 1
 341.200195312 329.599609375 339.299804688 309 337.700195312 288.400390625 c 1
 370.5 313 411.099609375 327.599609375 455.099609375 327.599609375 c 0
 564.099609375 327.599609375 652.5 238.099609375 652.5 127.599609375 c 0
 652.5 91.2001953125 642.900390625 57 626.099609375 27.599609375 c 1
 920.799804688 27.599609375 l 1
 920.799804688 -146 l 1
 450.599609375 -146 l 2
 288.700195312 -142.5 158.599609375 -12.2998046875 157.700195312 148.700195312 c 0
 157.700195312 216 161.200195312 283.299804688 168 350.099609375 c 1
 84.2001953125 350.099609375 l 1
 84.2001953125 492.200195312 l 1
 187.599609375 492.200195312 l 1
 202.200195312 575.299804688 222 657.5 247.099609375 738.299804688 c 1
 413.799804688 686.5 l 1
 394 622.599609375 377.700195312 557.700195312 365.099609375 492.200195312 c 1
 415 492.200195312 l 2
 523.599609375 495.5 618.200195312 569.200195312 650.799804688 672.900390625 c 1
 786.799804688 630.200195312 l 1
 770.5 578.400390625 744.299804688 531.799804688 710.700195312 492.200195312 c 1
 926.299804688 492.200195312 l 1
455.099609375 182.599609375 m 0
 426.299804688 182.599609375 402.799804688 158 402.799804688 127.700195312 c 0
 402.799804688 97.400390625 426.200195312 72.7998046875 455.099609375 72.7998046875 c 0
 484 72.7998046875 507.400390625 97.400390625 507.400390625 127.700195312 c 0
 507.400390625 158 484 182.599609375 455.099609375 182.599609375 c 0
EndSplineSet
EndChar

StartChar: uniE12D
Encoding: 57645 57645 45
Width: 1000
Flags: HW
LayerCount: 2
Fore
SplineSet
810.599609375 607.200195312 m 5
 810.599609375 654.299804688 848.799804688 692.400390625 896 692.400390625 c 4
 943.19921875 692.400390625 981.399414062 654.200195312 981.399414062 607.200195312 c 4
 981.399414062 560.200195312 943.19921875 522 896 522 c 4
 848.799804688 522 810.599609375 560.200195312 810.599609375 607.200195312 c 5
 810.599609375 607.200195312 l 5
873.299804688 607.200195312 m 5
 873.299804688 594.799804688 883.5 584.599609375 895.899414062 584.599609375 c 4
 908.399414062 584.599609375 918.5 594.700195312 918.5 607.200195312 c 4
 918.5 619.700195312 908.299804688 629.799804688 895.899414062 629.799804688 c 4
 883.5 629.799804688 873.299804688 619.799804688 873.299804688 607.200195312 c 5
 873.299804688 607.200195312 l 5
743.400390625 305.299804688 m 0
 854.400390625 305.299804688 944.400390625 215.400390625 944.400390625 104.299804688 c 0
 944.400390625 -6.7998046875 854.299804688 -96.7998046875 743.299804688 -96.7998046875 c 0
 734.299804688 -96.7998046875 725.5 -96.2001953125 716.799804688 -95.099609375 c 1
 716.799804688 -149.700195312 l 1
 542.200195312 -149.700195312 l 1
 542.200195312 -20.599609375 l 1
 446.200195312 25.7001953125 l 1
 437.200195312 -75.599609375 351 -155 246 -155 c 0
 135 -155 45 -66.2001953125 45 43.400390625 c 0
 45 153 135 241.799804688 246.099609375 241.799804688 c 0
 258.700195312 241.799804688 271.099609375 240.599609375 283.099609375 238.400390625 c 1
 283.099609375 350.099609375 l 1
 84.2001953125 350.099609375 l 1
 84.2001953125 492.200195312 l 1
 283.099609375 492.200195312 l 1
 283.099609375 723.299804688 l 1
 457.700195312 723.299804688 l 1
 457.700195312 497.200195312 l 1
 547.799804688 515.700195312 622.599609375 583.099609375 650.799804688 672.900390625 c 1
 786.799804688 630.200195312 l 1
 770.5 578.400390625 744.299804688 531.799804688 710.700195312 492.200195312 c 1
 926.299804688 492.200195312 l 1
 926.299804688 350.099609375 l 1
 457.700195312 350.099609375 l 1
 457.700195312 169.599609375 l 1
 543.799804688 128.099609375 l 1
 555.599609375 227.900390625 640.400390625 305.299804688 743.400390625 305.299804688 c 0
246 -9.2001953125 m 0
 276.5 -9.2001953125 301.200195312 14.400390625 301.200195312 43.400390625 c 0
 301.200195312 72.5 276.5 96 246 96 c 0
 215.5 96 190.799804688 72.400390625 190.799804688 43.400390625 c 0
 190.799804688 14.2998046875 215.5 -9.2001953125 246 -9.2001953125 c 0
743.400390625 51 m 0
 772.799804688 51 796.700195312 74.7998046875 796.700195312 104.299804688 c 0
 796.700195312 133.799804688 772.900390625 157.599609375 743.400390625 157.599609375 c 0
 713.900390625 157.599609375 690.099609375 133.700195312 690.099609375 104.299804688 c 0
 690.099609375 74.7998046875 714 51 743.400390625 51 c 0
EndSplineSet
EndChar

StartChar: uniE12E
Encoding: 57646 57646 46
Width: 1000
Flags: HW
LayerCount: 2
Fore
SplineSet
810.599609375 607.200195312 m 5
 810.599609375 654.299804688 848.799804688 692.400390625 896 692.400390625 c 4
 943.19921875 692.400390625 981.399414062 654.200195312 981.399414062 607.200195312 c 4
 981.399414062 560.200195312 943.19921875 522 896 522 c 4
 848.799804688 522 810.599609375 560.200195312 810.599609375 607.200195312 c 5
 810.599609375 607.200195312 l 5
873.299804688 607.200195312 m 5
 873.299804688 594.799804688 883.5 584.599609375 895.899414062 584.599609375 c 4
 908.399414062 584.599609375 918.5 594.700195312 918.5 607.200195312 c 4
 918.5 619.700195312 908.299804688 629.799804688 895.899414062 629.799804688 c 4
 883.5 629.799804688 873.299804688 619.799804688 873.299804688 607.200195312 c 5
 873.299804688 607.200195312 l 5
865.5 222.700195312 m 2
 875 217.200195312 878.200195312 205 872.799804688 195.5 c 0
 867.299804688 186 855.099609375 182.700195312 845.599609375 188.200195312 c 2
 707.799804688 267.799804688 l 2
 698.299804688 273.299804688 695 285.5 700.5 295 c 0
 706 304.5 718.200195312 307.799804688 727.700195312 302.299804688 c 2
 865.5 222.700195312 l 2
710.700195312 492.200195312 m 1
 926.299804688 492.200195312 l 1
 926.299804688 350.099609375 l 1
 372.299804688 350.099609375 l 1
 362.599609375 294.700195312 354.599609375 239.099609375 348.200195312 183.200195312 c 1
 413.799804688 230.900390625 494.5 259 581.700195312 259 c 0
 629.200195312 259 676.200195312 250.5 720.599609375 233.900390625 c 0
 800.299804688 208.5 858 133.900390625 858 45.7998046875 c 0
 858 -63.2001953125 769.599609375 -151.599609375 660.599609375 -151.599609375 c 0
 551.599609375 -151.599609375 463.200195312 -63.2001953125 463.200195312 45.7998046875 c 0
 463.200195312 60.099609375 464.700195312 74 467.599609375 87.5 c 1
 418.700195312 62.900390625 377.400390625 22.2998046875 352.400390625 -31.2001953125 c 0
 340.700195312 -56.2998046875 333.200195312 -83 330.099609375 -110.400390625 c 0
 330 -118.900390625 330 -127.299804688 330 -135.799804688 c 1
 328.599609375 -135.799804688 l 1
 184.299804688 -135.799804688 l 1
 158 -135.799804688 l 1
 158 27.2001953125 171.299804688 189.700195312 197.799804688 350.099609375 c 1
 84.2001953125 350.099609375 l 1
 84.2001953125 492.200195312 l 1
 224.700195312 492.200195312 l 1
 242.5 575 263.900390625 657 288.700195312 738.099609375 c 1
 453.299804688 687.799804688 l 1
 433.5 623.200195312 416 557.900390625 401 492.200195312 c 1
 415 492.200195312 l 2
 523.599609375 495.5 618.200195312 569.200195312 650.799804688 672.900390625 c 1
 786.799804688 630.200195312 l 1
 770.5 578.400390625 744.299804688 531.799804688 710.700195312 492.200195312 c 1
660.5 98.099609375 m 0
 631.599609375 98.099609375 608.200195312 74.7001953125 608.200195312 45.7998046875 c 0
 608.200195312 16.900390625 631.599609375 -6.5 660.5 -6.5 c 0
 689.400390625 -6.5 712.799804688 16.900390625 712.799804688 45.7998046875 c 0
 712.799804688 74.7001953125 689.400390625 98.099609375 660.5 98.099609375 c 0
EndSplineSet
EndChar

StartChar: uniE12F
Encoding: 57647 57647 47
Width: 1000
Flags: HW
LayerCount: 2
Fore
SplineSet
810.599609375 607.200195312 m 5
 810.599609375 654.299804688 848.799804688 692.400390625 896 692.400390625 c 4
 943.19921875 692.400390625 981.399414062 654.200195312 981.399414062 607.200195312 c 4
 981.399414062 560.200195312 943.19921875 522 896 522 c 4
 848.799804688 522 810.599609375 560.200195312 810.599609375 607.200195312 c 5
 810.599609375 607.200195312 l 5
873.299804688 607.200195312 m 5
 873.299804688 594.799804688 883.5 584.599609375 895.899414062 584.599609375 c 4
 908.399414062 584.599609375 918.5 594.700195312 918.5 607.200195312 c 4
 918.5 619.700195312 908.299804688 629.799804688 895.899414062 629.799804688 c 4
 883.5 629.799804688 873.299804688 619.799804688 873.299804688 607.200195312 c 5
 873.299804688 607.200195312 l 5
852.900390625 222.299804688 m 2
 862.400390625 216.799804688 865.599609375 204.599609375 860.200195312 195.099609375 c 0
 854.700195312 185.599609375 842.5 182.299804688 833 187.799804688 c 2
 695.099609375 267.400390625 l 2
 685.599609375 272.900390625 682.299804688 285.099609375 687.799804688 294.599609375 c 0
 693.299804688 304.099609375 705.5 307.400390625 715 301.900390625 c 2
 852.900390625 222.299804688 l 2
710.700195312 492.200195312 m 1
 926.200195312 492.200195312 l 1
 926.200195312 350.099609375 l 1
 356.400390625 350.099609375 l 1
 346.700195312 294.599609375 338.599609375 238.700195312 332.200195312 182.700195312 c 1
 397.700195312 230.400390625 478.5 258.599609375 565.799804688 258.599609375 c 0
 616.299804688 258.599609375 666.299804688 249.299804688 713.099609375 230.599609375 c 0
 815.400390625 192.799804688 867.700195312 79.2998046875 829.799804688 -23 c 0
 792.099609375 -125.299804688 678.599609375 -177.599609375 576.299804688 -139.799804688 c 0
 560.299804688 -133.900390625 545.200195312 -126 531.299804688 -116.200195312 c 1
 614.200195312 1.900390625 l 1
 638.200195312 -14.900390625 671.299804688 -9.099609375 688.099609375 14.900390625 c 0
 704.900390625 38.900390625 699.099609375 72 675.099609375 88.7998046875 c 0
 674.099609375 89.5 673.099609375 90.2001953125 672.099609375 90.7998046875 c 0
 545.700195312 149.400390625 395.599609375 94.7001953125 336.5 -31.599609375 c 0
 324.599609375 -57.2001953125 317 -84.5 314.099609375 -112.400390625 c 0
 314 -120.299804688 314 -128.299804688 314 -136.200195312 c 1
 312.700195312 -136.200195312 l 1
 168.400390625 -136.200195312 l 1
 142.099609375 -136.200195312 l 1
 142.099609375 26.900390625 155.5 189.599609375 182 350.099609375 c 1
 84.2001953125 350.099609375 l 1
 84.2001953125 492.200195312 l 1
 209 492.200195312 l 1
 226.700195312 574.599609375 247.900390625 656.299804688 272.599609375 737 c 1
 437 686.700195312 l 1
 417.299804688 622.400390625 400.099609375 557.599609375 385.099609375 492.200195312 c 1
 415 492.200195312 l 2
 523.599609375 495.5 618.200195312 569.200195312 650.799804688 672.900390625 c 1
 786.799804688 630.200195312 l 1
 770.5 578.400390625 744.299804688 531.799804688 710.700195312 492.200195312 c 1
EndSplineSet
EndChar

StartChar: uniE130
Encoding: 57648 57648 48
Width: 1000
Flags: HW
LayerCount: 2
Fore
SplineSet
810.599609375 607.200195312 m 5
 810.599609375 654.299804688 848.799804688 692.400390625 896 692.400390625 c 4
 943.19921875 692.400390625 981.399414062 654.200195312 981.399414062 607.200195312 c 4
 981.399414062 560.200195312 943.19921875 522 896 522 c 4
 848.799804688 522 810.599609375 560.200195312 810.599609375 607.200195312 c 5
 810.599609375 607.200195312 l 5
873.299804688 607.200195312 m 5
 873.299804688 594.799804688 883.5 584.599609375 895.899414062 584.599609375 c 4
 908.399414062 584.599609375 918.5 594.700195312 918.5 607.200195312 c 4
 918.5 619.700195312 908.299804688 629.799804688 895.899414062 629.799804688 c 4
 883.5 629.799804688 873.299804688 619.799804688 873.299804688 607.200195312 c 5
 873.299804688 607.200195312 l 5
815.200195312 82.2001953125 m 1
 935.200195312 -41.599609375 l 1
 791.200195312 -181.200195312 568.900390625 -190.099609375 414.900390625 -70.7001953125 c 1
 378.5 -119.700195312 319.799804688 -151.5 253.5 -151.5 c 0
 143 -151.5 53.5 -63.099609375 53.5 45.900390625 c 0
 53.5 154.900390625 143 243.299804688 253.5 243.299804688 c 0
 255.299804688 243.299804688 257.099609375 243.200195312 258.799804688 243.200195312 c 1
 258.799804688 350.099609375 l 1
 84.2001953125 350.099609375 l 1
 84.2001953125 492.200195312 l 1
 258.799804688 492.200195312 l 1
 258.799804688 722.200195312 l 1
 432.400390625 722.200195312 l 1
 432.400390625 493.400390625 l 1
 533.599609375 503.5 620 574.799804688 650.799804688 672.900390625 c 1
 786.799804688 630.200195312 l 1
 770.5 578.400390625 744.299804688 531.799804688 710.700195312 492.200195312 c 1
 926.299804688 492.200195312 l 1
 926.299804688 350.099609375 l 1
 432.400390625 350.099609375 l 1
 432.400390625 245.700195312 l 2
 431.599609375 121.200195312 532.299804688 19.5 656.799804688 18.7001953125 c 0
 715.900390625 18.2998046875 772.799804688 41.099609375 815.200195312 82.2001953125 c 1
253.5 -6.400390625 m 0
 283.799804688 -6.400390625 308.400390625 17 308.5 46 c 0
 308.5 49.900390625 308 53.7001953125 307.200195312 57.2998046875 c 0
 305.799804688 64.7001953125 302 71.5 296.900390625 78.099609375 c 0
 290.099609375 86.5 280.599609375 92.7998046875 269.700195312 96 c 2
 262.200195312 97.599609375 l 1
 258.799804688 98 l 2
 257 98.099609375 255.299804688 98.2001953125 253.5 98.2001953125 c 0
 223.200195312 98.2001953125 198.599609375 74.7998046875 198.599609375 45.900390625 c 0
 198.599609375 17 223.200195312 -6.400390625 253.5 -6.400390625 c 0
603.5 264.200195312 m 2
 761.400390625 264.200195312 l 2
 771.599609375 264.200195312 779.799804688 256 779.799804688 245.799804688 c 0
 779.799804688 235.599609375 771.599609375 227.400390625 761.400390625 227.400390625 c 2
 603.5 227.400390625 l 2
 593.299804688 227.400390625 585.099609375 235.700195312 585.099609375 245.799804688 c 0
 585.099609375 256 593.299804688 264.200195312 603.5 264.200195312 c 2
EndSplineSet
EndChar

StartChar: uniE131
Encoding: 57649 57649 49
Width: 1000
Flags: HW
LayerCount: 2
Fore
SplineSet
810.599609375 607.200195312 m 5
 810.599609375 654.299804688 848.799804688 692.400390625 896 692.400390625 c 4
 943.19921875 692.400390625 981.399414062 654.200195312 981.399414062 607.200195312 c 4
 981.399414062 560.200195312 943.19921875 522 896 522 c 4
 848.799804688 522 810.599609375 560.200195312 810.599609375 607.200195312 c 5
 810.599609375 607.200195312 l 5
873.299804688 607.200195312 m 5
 873.299804688 594.799804688 883.5 584.599609375 895.899414062 584.599609375 c 4
 908.399414062 584.599609375 918.5 594.700195312 918.5 607.200195312 c 4
 918.5 619.700195312 908.299804688 629.799804688 895.899414062 629.799804688 c 4
 883.5 629.799804688 873.299804688 619.799804688 873.299804688 607.200195312 c 5
 873.299804688 607.200195312 l 5
835.200195312 263.200195312 m 2
 845.400390625 263.200195312 853.599609375 254.900390625 853.700195312 244.799804688 c 0
 853.700195312 234.599609375 845.5 226.400390625 835.299804688 226.400390625 c 2
 672.099609375 226.400390625 l 2
 661.900390625 226.400390625 653.700195312 234.599609375 653.700195312 244.799804688 c 0
 653.700195312 255 661.900390625 263.200195312 672.099609375 263.200195312 c 2
 835.200195312 263.200195312 l 2
710.700195312 492.200195312 m 1
 926.299804688 492.200195312 l 1
 926.299804688 350.099609375 l 1
 362.700195312 350.099609375 l 1
 361.099609375 341 359.5 331.799804688 358 322.700195312 c 1
 370.200195312 325.099609375 382.799804688 326.299804688 395.700195312 326.299804688 c 0
 506.200195312 326.299804688 595.799804688 236.900390625 595.799804688 126.400390625 c 0
 595.799804688 15.900390625 506.299804688 -73.599609375 395.799804688 -73.599609375 c 0
 369.5 -73.599609375 344.400390625 -68.5 321.400390625 -59.2998046875 c 1
 320.700195312 -85.099609375 320.299804688 -111 320.299804688 -136.799804688 c 1
 148.400390625 -136.799804688 l 1
 148.400390625 26.5 161.799804688 189.400390625 188.400390625 350.099609375 c 1
 84.2001953125 350.099609375 l 1
 84.2001953125 492.200195312 l 1
 215.400390625 492.200195312 l 1
 233.099609375 574.400390625 254.299804688 655.799804688 278.900390625 736.400390625 c 1
 443.200195312 686 l 1
 423.599609375 621.900390625 406.299804688 557.299804688 391.400390625 492.200195312 c 1
 415 492.200195312 l 2
 523.599609375 495.5 618.200195312 569.200195312 650.799804688 672.900390625 c 1
 786.799804688 630.200195312 l 1
 770.5 578.400390625 744.299804688 531.799804688 710.700195312 492.200195312 c 1
395.700195312 179.299804688 m 0
 366.400390625 179.299804688 342.700195312 155.599609375 342.700195312 126.299804688 c 0
 342.700195312 97 366.400390625 73.2998046875 395.700195312 73.2998046875 c 0
 425 73.2998046875 448.700195312 97 448.700195312 126.299804688 c 0
 448.700195312 155.599609375 425 179.299804688 395.700195312 179.299804688 c 0
EndSplineSet
EndChar

StartChar: uniE132
Encoding: 57650 57650 50
Width: 1000
Flags: HW
LayerCount: 2
Fore
SplineSet
810.599609375 607.200195312 m 5
 810.599609375 654.299804688 848.799804688 692.400390625 896 692.400390625 c 4
 943.19921875 692.400390625 981.399414062 654.200195312 981.399414062 607.200195312 c 4
 981.399414062 560.200195312 943.19921875 522 896 522 c 4
 848.799804688 522 810.599609375 560.200195312 810.599609375 607.200195312 c 5
 810.599609375 607.200195312 l 5
873.299804688 607.200195312 m 5
 873.299804688 594.799804688 883.5 584.599609375 895.899414062 584.599609375 c 4
 908.399414062 584.599609375 918.5 594.700195312 918.5 607.200195312 c 4
 918.5 619.700195312 908.299804688 629.799804688 895.899414062 629.799804688 c 4
 883.5 629.799804688 873.299804688 619.799804688 873.299804688 607.200195312 c 5
 873.299804688 607.200195312 l 5
866.5 310.599609375 m 2
 878.200195312 310.599609375 887.599609375 301.099609375 887.599609375 289.5 c 0
 887.599609375 277.799804688 878.099609375 268.400390625 866.5 268.400390625 c 2
 708.599609375 268.400390625 l 2
 696.900390625 268.400390625 687.5 277.799804688 687.5 289.5 c 0
 687.5 301.200195312 697 310.599609375 708.599609375 310.599609375 c 2
 866.5 310.599609375 l 2
710.700195312 492.200195312 m 1
 926.200195312 492.200195312 l 1
 926.200195312 350.099609375 l 1
 341.900390625 350.099609375 l 1
 334.5 284.799804688 330.700195312 219.099609375 330.5 153.200195312 c 0
 328.400390625 86.7001953125 381.5 30.7998046875 447.299804688 26.400390625 c 2
 482.200195312 25.099609375 l 1
 601.200195312 28.599609375 697.400390625 125.099609375 699.5 245.200195312 c 1
 873.299804688 242.200195312 l 1
 873.099609375 232.700195312 872.599609375 223.400390625 871.799804688 214.099609375 c 2
 871.799804688 -147.299804688 l 1
 740.200195312 -147.299804688 l 1
 740.200195312 -47.7998046875 l 1
 669.200195312 -111.200195312 575.400390625 -149.400390625 472.799804688 -148.700195312 c 2
 449.200195312 -149 l 1
 287.200195312 -145.5 156.799804688 -13.599609375 155.900390625 147.400390625 c 0
 155.900390625 215.200195312 159.400390625 282.799804688 166.299804688 350.099609375 c 1
 84.099609375 350.099609375 l 1
 84.099609375 492.200195312 l 1
 186.099609375 492.200195312 l 1
 200.700195312 574.900390625 220.400390625 656.599609375 245.400390625 737 c 1
 412.099609375 685.400390625 l 1
 392.400390625 621.799804688 376.200195312 557.299804688 363.599609375 492.200195312 c 1
 415 492.200195312 l 2
 523.599609375 495.5 618.200195312 569.200195312 650.799804688 672.900390625 c 1
 786.799804688 630.200195312 l 1
 770.5 578.400390625 744.299804688 531.799804688 710.700195312 492.200195312 c 1
EndSplineSet
EndChar

StartChar: uniE133
Encoding: 57651 57651 51
Width: 1000
Flags: HW
LayerCount: 2
Fore
SplineSet
793.900390625 708.700195312 m 5
 891.799804688 734.900390625 l 5
 935.599609375 571.400390625 l 5
 837.799804688 545.200195312 l 5
 793.900390625 708.700195312 l 5
762.799804688 219.5 m 1
 825.700195312 186.5 868.5 120.599609375 868.599609375 44.7001953125 c 0
 868.599609375 -64.2998046875 780.200195312 -152.700195312 671.200195312 -152.700195312 c 0
 562.200195312 -152.700195312 473.799804688 -64.2998046875 473.799804688 44.7001953125 c 0
 473.799804688 58.7001953125 475.299804688 72.400390625 478.099609375 85.599609375 c 1
 429.099609375 60.7001953125 387.799804688 20.099609375 362.900390625 -33.2001953125 c 0
 347.299804688 -66.5 339.200195312 -102.799804688 339.200195312 -139.5 c 1
 194.900390625 -136.900390625 l 1
 194.900390625 -136 194.900390625 -137.799804688 194.900390625 -136.900390625 c 1
 168.599609375 -136.900390625 l 1
 168.599609375 71.099609375 190.299804688 278.599609375 233.5 482.099609375 c 1
 233.5 482.099609375 l 1
 235.599609375 492.200195312 237 502.299804688 240 511.900390625 c 0
 240.299804688 513.200195312 241 514.5 241.299804688 515.900390625 c 1
 241.299804688 515.900390625 l 1
 287.700195312 657.5 434.900390625 745.200195312 585.700195312 715.099609375 c 0
 695.099609375 693.299804688 783.299804688 613 814.5 506.799804688 c 1
 650.700195312 459.5 l 1
 630.5 526.700195312 558.5 565.099609375 489.900390625 545.299804688 c 0
 449.900390625 533.700195312 418.400390625 504.200195312 404.599609375 466.5 c 1
 383.799804688 371.799804688 367.900390625 276.200195312 357 180 c 1
 423.5 228.900390625 505.700195312 257.799804688 594.799804688 257.799804688 c 0
 653.099609375 257.799804688 710 243.900390625 762.799804688 219.5 c 1
 762.799804688 219.5 l 1
671.200195312 -7.599609375 m 0
 700.099609375 -7.599609375 723.5 15.7998046875 723.5 44.7001953125 c 0
 723.5 73.599609375 700.099609375 97 671.200195312 97 c 0
 642.299804688 97 618.900390625 73.599609375 618.900390625 44.7001953125 c 0
 618.900390625 15.7998046875 642.299804688 -7.599609375 671.200195312 -7.599609375 c 0
EndSplineSet
EndChar

StartChar: uniE134
Encoding: 57652 57652 52
Width: 1000
Flags: HW
LayerCount: 2
Fore
SplineSet
793.900390625 708.700195312 m 5
 891.799804688 734.900390625 l 5
 935.599609375 571.400390625 l 5
 837.799804688 545.200195312 l 5
 793.900390625 708.700195312 l 5
726.599609375 230.099609375 m 1
 830.400390625 192.799804688 883.900390625 79.5 846.099609375 -23 c 0
 808.299804688 -125.400390625 693.5 -178.200195312 589.700195312 -140.900390625 c 0
 573.599609375 -135.099609375 558.400390625 -127.299804688 544.299804688 -117.700195312 c 1
 627.200195312 0.5 l 1
 652.700195312 -15.7998046875 687.299804688 -9.2998046875 704.400390625 15.099609375 c 0
 721.5 39.5 714.700195312 72.400390625 689.099609375 88.7001953125 c 0
 687.700195312 89.7001953125 686.099609375 90.5 684.599609375 91.2998046875 c 1
 684.599609375 91.2998046875 l 1
 558 150.5 406.599609375 94.2001953125 347.400390625 -32.2998046875 c 0
 331.700195312 -65.7998046875 323.599609375 -102.400390625 323.599609375 -139.5 c 1
 179.299804688 -136.900390625 l 1
 179.299804688 -136 179.299804688 -137.799804688 179.299804688 -136.900390625 c 1
 153 -136.900390625 l 1
 153 71 174.700195312 278.299804688 217.799804688 481.599609375 c 1
 217.799804688 481.599609375 l 1
 219.900390625 492.299804688 221.400390625 502.900390625 224.599609375 513 c 0
 224.799804688 514 225.299804688 514.900390625 225.5 515.900390625 c 1
 225.5 515.900390625 l 1
 271.400390625 657.299804688 417 745 566.400390625 715.200195312 c 0
 675.299804688 693.400390625 763.099609375 612.799804688 793.900390625 506 c 1
 630 458.700195312 l 1
 610.599609375 526 540.299804688 564.799804688 473 545.400390625 c 0
 433.900390625 534.200195312 403 505 389.200195312 467.5 c 1
 368.400390625 372.799804688 352.400390625 277.099609375 341.5 180.799804688 c 1
 407.299804688 229.200195312 488.599609375 257.799804688 576.599609375 257.799804688 c 0
 627.900390625 257.799804688 679.200195312 249.400390625 726.599609375 230.099609375 c 1
 726.599609375 230.099609375 l 1
EndSplineSet
EndChar

StartChar: uniE135
Encoding: 57653 57653 53
Width: 1000
Flags: HW
LayerCount: 2
Fore
SplineSet
793.900390625 708.700195312 m 5
 891.799804688 734.900390625 l 5
 935.599609375 571.400390625 l 5
 837.799804688 545.200195312 l 5
 793.900390625 708.700195312 l 5
946.5 -42.7001953125 m 1
 802.200195312 -182.599609375 579.200195312 -191.200195312 425.099609375 -71.099609375 c 1
 388.799804688 -120.5 329.700195312 -152.700195312 263.099609375 -152.700195312 c 0
 152.599609375 -152.700195312 63.099609375 -64.2998046875 63.099609375 44.7001953125 c 0
 63.099609375 153.700195312 152.599609375 242.099609375 263.099609375 242.099609375 c 0
 264.900390625 242.099609375 266.700195312 242 268.400390625 242 c 1
 268.400390625 436.799804688 l 1
 268.400390625 436.799804688 l 1
 275.200195312 593.400390625 404.799804688 719.200195312 564.900390625 721 c 0
 699.299804688 722.599609375 818.299804688 635.400390625 856.200195312 507.599609375 c 1
 691.299804688 459.5 l 1
 671.099609375 525.900390625 599.700195312 563.799804688 531.799804688 544 c 0
 481.799804688 529.400390625 447.400390625 486.700195312 442.099609375 436.799804688 c 1
 442.099609375 436.799804688 l 1
 442.099609375 244.5 l 1
 442.099609375 244.5 l 1
 441.299804688 120 543.599609375 18.2998046875 668.099609375 17.5 c 0
 727.200195312 17.099609375 784.099609375 39.900390625 826.5 81 c 1
 946.5 -42.7001953125 l 1
263.200195312 -7.599609375 m 0
 293.5 -7.599609375 318.099609375 15.900390625 318.099609375 44.7001953125 c 0
 318.099609375 51.900390625 316.599609375 58.7001953125 313.900390625 64.900390625 c 0
 313.299804688 66.2001953125 312.599609375 67.5 312 68.7998046875 c 0
 302.799804688 85.5 284.400390625 97 263.200195312 97 c 0
 232.900390625 97 208.299804688 73.599609375 208.299804688 44.7001953125 c 0
 208.299804688 15.7998046875 232.900390625 -7.599609375 263.200195312 -7.599609375 c 0
EndSplineSet
EndChar

StartChar: uniE136
Encoding: 57654 57654 54
Width: 1000
Flags: HW
LayerCount: 2
Fore
SplineSet
793.900390625 708.700195312 m 5
 891.799804688 734.900390625 l 5
 935.599609375 571.400390625 l 5
 837.799804688 545.200195312 l 5
 793.900390625 708.700195312 l 5
576.700195312 715.299804688 m 0
 685.599609375 693.5 773.299804688 612.900390625 804.099609375 506.299804688 c 1
 640.299804688 459 l 1
 620.900390625 526.299804688 550.599609375 565.099609375 483.299804688 545.700195312 c 0
 437.799804688 532.5 399.599609375 495.900390625 390.299804688 449.400390625 c 1
 390.299804688 449.400390625 l 1
 381.299804688 407.299804688 373.299804688 365 366.299804688 322.599609375 c 1
 378.900390625 325.099609375 391.900390625 326.400390625 405.299804688 326.400390625 c 0
 515.799804688 326.400390625 605.299804688 236.900390625 605.299804688 126.400390625 c 0
 605.299804688 15.900390625 515.799804688 -73.599609375 405.299804688 -73.599609375 c 0
 378.5 -73.599609375 353 -68.400390625 329.599609375 -58.7998046875 c 1
 328.900390625 -84.7998046875 328.5 -110.799804688 328.5 -136.799804688 c 1
 157.900390625 -136.799804688 l 1
 157.900390625 82.7998046875 182.099609375 301.799804688 230.200195312 516.099609375 c 1
 230.200195312 516.099609375 l 1
 275.799804688 658.099609375 426.900390625 745.200195312 576.700195312 715.299804688 c 0
405.299804688 179.299804688 m 0
 376 179.299804688 352.299804688 155.599609375 352.299804688 126.299804688 c 0
 352.299804688 97 376 73.2998046875 405.299804688 73.2998046875 c 0
 434.599609375 73.2998046875 458.299804688 97 458.299804688 126.299804688 c 0
 458.299804688 155.599609375 434.599609375 179.299804688 405.299804688 179.299804688 c 0
EndSplineSet
EndChar

StartChar: uniE137
Encoding: 57655 57655 55
Width: 1000
Flags: HW
LayerCount: 2
Fore
SplineSet
793.900390625 708.700195312 m 5
 891.799804688 734.900390625 l 5
 935.599609375 571.400390625 l 5
 837.799804688 545.200195312 l 5
 793.900390625 708.700195312 l 5
862.400390625 207 m 1
 946.599609375 162.700195312 989.200195312 63 959 -30.5 c 0
 925 -135 812.799804688 -192.200195312 708.299804688 -158.200195312 c 0
 679.299804688 -148.799804688 653.5 -133.099609375 632.299804688 -112.799804688 c 1
 581.099609375 -136.200195312 524.099609375 -149.099609375 464.200195312 -148.700195312 c 1
 464.200195312 -148.700195312 l 1
 440.599609375 -149 l 1
 440.599609375 -149 l 1
 278.599609375 -145.5 148.299804688 -13.599609375 147.400390625 147.400390625 c 1
 147.400390625 147.400390625 l 1
 147.400390625 262.900390625 157.400390625 378.099609375 177.400390625 491.799804688 c 1
 177.400390625 491.799804688 l 1
 213.599609375 647.599609375 371.299804688 746.900390625 529.299804688 715.299804688 c 0
 639 693.400390625 727.099609375 611.799804688 757.200195312 503.900390625 c 1
 591.5 457.400390625 l 1
 572.799804688 524 503.700195312 562.799804688 437.099609375 544.099609375 c 0
 391.799804688 531.400390625 356.400390625 494.5 347.200195312 448.299804688 c 1
 347.200195312 448.299804688 l 1
 330.799804688 350.700195312 322.400390625 252 322.099609375 153 c 1
 322.099609375 153 l 1
 320.099609375 86.5 372.900390625 30.7001953125 438.700195312 26.2998046875 c 2
 484.200195312 25.599609375 l 1
 484.200195312 25.599609375 l 1
 598.299804688 34.400390625 688.900390625 128.700195312 690.900390625 245.200195312 c 1
 864.599609375 242.200195312 l 1
 864.299804688 230.299804688 863.599609375 218.599609375 862.400390625 207 c 1
775.799804688 -23.599609375 m 0
 805.900390625 -20.2001953125 827.599609375 7 824.200195312 37.2001953125 c 0
 823.299804688 45.2001953125 820.700195312 52.7998046875 816.599609375 59.5 c 1
 800.400390625 29.599609375 780.400390625 2 757.400390625 -22.599609375 c 1
 763.299804688 -23.900390625 769.5 -24.2998046875 775.799804688 -23.599609375 c 0
EndSplineSet
EndChar

StartChar: uniE138
Encoding: 57656 57656 56
Width: 1000
Flags: HW
LayerCount: 2
Fore
SplineSet
793.900390625 708.700195312 m 5
 891.799804688 734.900390625 l 5
 935.599609375 571.400390625 l 5
 837.799804688 545.200195312 l 5
 793.900390625 708.700195312 l 5
877.700195312 241.5 m 1
 880 241.5 l 1
 880 -148 l 1
 743.099609375 -148 l 1
 743.099609375 -49.7998046875 l 1
 672.299804688 -112.299804688 579 -150 477.200195312 -149.299804688 c 1
 477.299804688 -149.299804688 l 1
 453.599609375 -149.599609375 l 1
 453.599609375 -149.599609375 l 1
 288.900390625 -146 160.599609375 -10.5 164.200195312 154.299804688 c 0
 164.200195312 155.200195312 164.200195312 156.799804688 164.200195312 157.700195312 c 1
 164.200195312 157.700195312 l 1
 164.799804688 266 174.299804688 374.200195312 192.5 481 c 1
 192.5 481 l 1
 224.700195312 642 379.799804688 746.799804688 540.900390625 714.599609375 c 0
 650.599609375 692.700195312 738.700195312 611.099609375 768.900390625 503.400390625 c 1
 603.200195312 456.900390625 l 1
 584.5 523.5 515.400390625 562.299804688 448.799804688 543.599609375 c 0
 408.099609375 532.200195312 379.200195312 500.599609375 366.400390625 460.900390625 c 1
 366.400390625 460.900390625 l 1
 348.200195312 357.200195312 339 252.099609375 339 146.799804688 c 1
 339 146.799804688 l 1
 339.700195312 97 368.200195312 53.900390625 411.799804688 35.2998046875 c 1
 398.200195312 62.400390625 390.5 93.2001953125 390.5 125.700195312 c 0
 390.5 236.200195312 478.900390625 325.700195312 587.900390625 325.700195312 c 0
 653.299804688 325.700195312 711.299804688 293.400390625 747.200195312 243.799804688 c 1
 877.700195312 241.5 l 1
 877.700195312 241.5 l 1
587.900390625 180.599609375 m 0
 559 180.599609375 535.599609375 156 535.599609375 125.700195312 c 0
 535.599609375 95.400390625 559 70.7998046875 587.900390625 70.7998046875 c 0
 616.799804688 70.7998046875 640.200195312 95.400390625 640.200195312 125.700195312 c 0
 640.200195312 156 616.799804688 180.599609375 587.900390625 180.599609375 c 0
EndSplineSet
EndChar

StartChar: uniE139
Encoding: 57657 57657 57
Width: 1000
Flags: HW
LayerCount: 2
Fore
SplineSet
793.900390625 708.700195312 m 5
 891.799804688 734.900390625 l 5
 935.599609375 571.400390625 l 5
 837.799804688 545.200195312 l 5
 793.900390625 708.700195312 l 5
862.400390625 242.099609375 m 1
 863.099609375 242.099609375 l 1
 863.099609375 -147.400390625 l 1
 726.299804688 -147.400390625 l 1
 726.299804688 -50.599609375 l 1
 655.599609375 -112.400390625 563 -149.5 461.900390625 -148.799804688 c 1
 461.900390625 -148.799804688 l 1
 438.299804688 -149.099609375 l 1
 438.299804688 -149.099609375 l 1
 273.599609375 -145.5 143.700195312 -9.099609375 147.299804688 155.700195312 c 0
 147.400390625 156.599609375 147.400390625 157.400390625 147.400390625 158.299804688 c 1
 147.400390625 158.299804688 l 1
 148 266.700195312 157.5 374.799804688 175.700195312 481.599609375 c 1
 175.700195312 481.599609375 l 1
 207.799804688 642.700195312 363 747.5 524 715.299804688 c 0
 633.700195312 693.400390625 721.900390625 611.799804688 752.099609375 504 c 1
 586.400390625 457.5 l 1
 567.700195312 524.099609375 498.599609375 562.900390625 432 544.200195312 c 0
 391.299804688 532.799804688 362.400390625 501.200195312 349.599609375 461.5 c 1
 349.599609375 461.5 l 1
 331.400390625 357.799804688 322.200195312 252.700195312 322.200195312 147.400390625 c 1
 322.200195312 147.400390625 l 1
 323.099609375 83.2998046875 372.799804688 30.400390625 436.900390625 26.2998046875 c 1
 436.900390625 26.2998046875 l 1
 473.700195312 25.099609375 l 1
 473.700195312 25.099609375 l 1
 591.700195312 29.7998046875 686.599609375 125.900390625 688.700195312 245.200195312 c 1
 862.400390625 242.099609375 l 1
 862.400390625 242.099609375 l 1
EndSplineSet
EndChar

StartChar: uniE13A
Encoding: 57658 57658 58
Width: 1000
Flags: HW
LayerCount: 2
Fore
SplineSet
793.900390625 708.700195312 m 5
 891.799804688 734.900390625 l 5
 935.599609375 571.400390625 l 5
 837.799804688 545.200195312 l 5
 793.900390625 708.700195312 l 5
910.5 -57.900390625 m 1
 910.599609375 -57.900390625 l 1
 910.599609375 -142.299804688 l 1
 736.900390625 -142.299804688 l 1
 736.900390625 -58.099609375 l 1
 736.900390625 -58.099609375 l 1
 735 -43.7001953125 724.900390625 -32.599609375 710 -32.7001953125 c 0
 707.400390625 -32.7001953125 704.900390625 -33.099609375 702.400390625 -33.7998046875 c 2
 617.799804688 -94.099609375 l 1
 617.799804688 -94.099609375 l 1
 483.099609375 -189 297.400390625 -157.400390625 202.5 -22.7001953125 c 0
 167.400390625 27.2001953125 147.799804688 86.5 147.400390625 147.299804688 c 1
 147.400390625 147.299804688 l 1
 147.400390625 259.5 156.900390625 371.5 175.799804688 482.099609375 c 1
 175.799804688 482.099609375 l 1
 208.5 643.099609375 365.299804688 747.599609375 527.700195312 715.200195312 c 0
 637.900390625 693.200195312 726.400390625 611.900390625 757 504.700195312 c 1
 591.299804688 458.200195312 l 1
 571.900390625 524.700195312 501.099609375 563.200195312 433.200195312 544.099609375 c 0
 391.900390625 532.5 362.400390625 501 349.5 461.5 c 1
 349.5 461.5 l 1
 331.599609375 359.599609375 322.400390625 256.400390625 322.099609375 153 c 1
 322.099609375 153 l 1
 321.400390625 128.299804688 329 105.099609375 340.900390625 85.5 c 1
 338.200195312 98.7001953125 336.799804688 112.299804688 336.799804688 126.299804688 c 0
 336.799804688 236.799804688 425.200195312 326.299804688 534.200195312 326.299804688 c 0
 639.900390625 326.299804688 726.299804688 242 731.299804688 136.099609375 c 1
 786.200195312 130.200195312 838.400390625 101.599609375 872.700195312 53 c 0
 895.599609375 20.5 909.700195312 -18.099609375 910.5 -57.900390625 c 1
534.200195312 181.200195312 m 0
 505.299804688 181.200195312 481.900390625 156.599609375 481.900390625 126.299804688 c 0
 481.900390625 96 505.299804688 71.400390625 534.200195312 71.400390625 c 0
 543 71.400390625 551.299804688 73.7001953125 558.599609375 77.7001953125 c 2
 568.099609375 84.5 l 2
 579.400390625 94.599609375 586.5 109.599609375 586.5 126.299804688 c 0
 586.5 156.599609375 563.099609375 181.200195312 534.200195312 181.200195312 c 0
EndSplineSet
EndChar

StartChar: uniE13B
Encoding: 57659 57659 59
Width: 1000
Flags: HW
LayerCount: 2
Fore
SplineSet
793.900390625 708.700195312 m 5
 891.799804688 734.900390625 l 5
 935.599609375 571.400390625 l 5
 837.799804688 545.200195312 l 5
 793.900390625 708.700195312 l 5
728.900390625 229.900390625 m 1
 831.099609375 192.099609375 883.400390625 78.599609375 845.5 -23.5 c 0
 807.799804688 -125.799804688 694.299804688 -178.099609375 592 -140.299804688 c 0
 576 -134.400390625 560.900390625 -126.5 547 -116.700195312 c 1
 629.900390625 1.400390625 l 1
 653.900390625 -15.400390625 687 -9.599609375 703.799804688 14.400390625 c 0
 720.599609375 38.400390625 714.799804688 71.5 690.799804688 88.2998046875 c 0
 689.799804688 89 688.799804688 89.7001953125 687.799804688 90.2998046875 c 0
 561.400390625 148.900390625 411.299804688 94.2001953125 352.200195312 -32.099609375 c 0
 336.5 -65.599609375 328.400390625 -102.200195312 328.400390625 -139.299804688 c 1
 184.099609375 -136.700195312 l 1
 184.099609375 -135.799804688 184.099609375 -137.599609375 184.099609375 -136.700195312 c 1
 157.799804688 -136.700195312 l 1
 157.799804688 71.2001953125 179.599609375 278.5 222.599609375 481.799804688 c 1
 222.599609375 481.799804688 l 1
 224.700195312 492.200195312 226.200195312 502.599609375 229.299804688 512.5 c 0
 229.5 513.5 229.799804688 514.599609375 230 515.599609375 c 1
 230.299804688 515.5 l 1
 276.099609375 657.200195312 421.799804688 745.200195312 571.400390625 715.299804688 c 0
 680.299804688 693.5 768.099609375 612.900390625 798.700195312 506.200195312 c 1
 634.900390625 458.900390625 l 1
 615.5 526.200195312 545.200195312 565 477.900390625 545.599609375 c 0
 438.299804688 534.200195312 407.200195312 504.299804688 393.599609375 466.200195312 c 1
 373 371.900390625 357.200195312 276.599609375 346.299804688 180.799804688 c 1
 412.200195312 229.299804688 493.5 257.900390625 581.599609375 257.900390625 c 0
 632.099609375 257.900390625 682.099609375 248.599609375 728.900390625 229.900390625 c 1
 728.900390625 229.900390625 l 1
794.01953125 224.922851562 m 0
 768.506835938 235.490234375 756.391601562 264.739257812 766.959960938 290.252929688 c 0
 777.52734375 315.765625 806.77734375 327.880859375 832.290039062 317.3125 c 0
 857.802734375 306.744140625 869.91796875 277.495117188 859.349609375 251.982421875 c 0
 848.78125 226.469726562 819.532226562 214.354492188 794.01953125 224.922851562 c 0
894.091796875 114.368164062 m 0
 868.579101562 124.936523438 856.463867188 154.185546875 867.03125 179.698242188 c 0
 877.599609375 205.2109375 906.848632812 217.326171875 932.361328125 206.7578125 c 0
 957.874023438 196.190429688 969.989257812 166.94140625 959.421875 141.428710938 c 0
 948.853515625 115.915039062 919.604492188 103.799804688 894.091796875 114.368164062 c 0
EndSplineSet
EndChar

StartChar: uniE13C
Encoding: 57660 57660 60
Width: 1000
Flags: HW
LayerCount: 2
Fore
SplineSet
793.900390625 708.700195312 m 5
 891.799804688 734.900390625 l 5
 935.599609375 571.400390625 l 5
 837.799804688 545.200195312 l 5
 793.900390625 708.700195312 l 5
915.799804688 26.2998046875 m 1
 915.799804688 -147.400390625 l 1
 444.299804688 -147.400390625 l 1
 444.299804688 -147.400390625 l 1
 279.5 -143.799804688 149 -9 152.700195312 155.700195312 c 0
 152.700195312 156.599609375 152.700195312 157.400390625 152.700195312 158.299804688 c 1
 152.700195312 158.299804688 l 1
 153.299804688 266.799804688 162.700195312 375.099609375 181 482.099609375 c 1
 181 482.099609375 l 1
 213.700195312 643.099609375 370.5 747.599609375 532.900390625 715.200195312 c 0
 643.200195312 693.200195312 731.700195312 611.900390625 762.299804688 504.700195312 c 1
 596.599609375 458.200195312 l 1
 577.200195312 524.700195312 506.400390625 563.200195312 438.5 544.099609375 c 0
 397.200195312 532.5 367.700195312 501 354.799804688 461.5 c 1
 354.799804688 461.5 l 1
 344.900390625 404.799804688 337.599609375 347.700195312 333.099609375 290.400390625 c 1
 365.5 313 404.900390625 326.299804688 447.400390625 326.299804688 c 0
 557.900390625 326.299804688 647.400390625 236.799804688 647.400390625 126.299804688 c 0
 647.400390625 89.900390625 637.599609375 55.7001953125 620.599609375 26.2998046875 c 1
 915.799804688 26.2998046875 l 1
447.400390625 179.299804688 m 0
 418.099609375 179.299804688 394.400390625 155.599609375 394.400390625 126.299804688 c 0
 394.400390625 97 418.099609375 73.2998046875 447.400390625 73.2998046875 c 0
 476.700195312 73.2998046875 500.400390625 97 500.400390625 126.299804688 c 0
 500.400390625 155.599609375 476.700195312 179.299804688 447.400390625 179.299804688 c 0
EndSplineSet
EndChar

StartChar: uniE13D
Encoding: 57661 57661 61
Width: 1000
Flags: HW
LayerCount: 2
Fore
SplineSet
793.900390625 708.700195312 m 5
 891.799804688 734.900390625 l 5
 935.599609375 571.400390625 l 5
 837.799804688 545.200195312 l 5
 793.900390625 708.700195312 l 5
921.099609375 26.2998046875 m 1
 921 26.2998046875 l 1
 921 -147.299804688 l 1
 450.799804688 -147.299804688 l 1
 450.799804688 -147.299804688 l 1
 288.900390625 -143.799804688 158.799804688 -13.599609375 157.900390625 147.400390625 c 1
 157.900390625 147.400390625 l 1
 157.900390625 262.900390625 167.900390625 378.099609375 187.900390625 491.799804688 c 1
 187.900390625 491.799804688 l 1
 224.099609375 647.599609375 381.799804688 746.900390625 539.799804688 715.299804688 c 0
 649.5 693.400390625 737.599609375 611.799804688 767.799804688 504 c 1
 602.099609375 457.5 l 1
 583.400390625 524.099609375 514.299804688 562.900390625 447.700195312 544.200195312 c 0
 402.400390625 531.5 367 494.599609375 357.799804688 448.400390625 c 1
 357.799804688 448.400390625 l 1
 348.799804688 394.900390625 342.200195312 341.200195312 338 287.200195312 c 1
 370.799804688 311.799804688 411.299804688 326.299804688 455.200195312 326.299804688 c 0
 564.200195312 326.299804688 652.599609375 236.799804688 652.599609375 126.299804688 c 0
 652.599609375 89.900390625 643 55.7001953125 626.200195312 26.2998046875 c 1
 921.099609375 26.2998046875 l 1
455.299804688 181.200195312 m 0
 426.400390625 181.200195312 403 156.599609375 403 126.299804688 c 0
 403 96 426.400390625 71.400390625 455.299804688 71.400390625 c 0
 484.200195312 71.400390625 507.599609375 96 507.599609375 126.299804688 c 0
 507.599609375 156.599609375 484.200195312 181.200195312 455.299804688 181.200195312 c 0
668.400390625 265.799804688 m 0
 668.400390625 293.4140625 690.786132812 315.799804688 718.400390625 315.799804688 c 0
 746.014648438 315.799804688 768.400390625 293.4140625 768.400390625 265.799804688 c 0
 768.400390625 238.185546875 746.014648438 215.799804688 718.400390625 215.799804688 c 0
 690.786132812 215.799804688 668.400390625 238.185546875 668.400390625 265.799804688 c 0
809.124023438 246.681640625 m 0
 798.556640625 272.194335938 810.671875 301.443359375 836.184570312 312.01171875 c 0
 861.697265625 322.580078125 890.946289062 310.46484375 901.514648438 284.952148438 c 0
 912.08203125 259.438476562 899.967773438 230.189453125 874.454101562 219.622070312 c 0
 848.94140625 209.053710938 819.692382812 221.168945312 809.124023438 246.681640625 c 0
EndSplineSet
EndChar

StartChar: uniE13E
Encoding: 57662 57662 62
Width: 1000
Flags: HW
LayerCount: 2
Fore
SplineSet
793.900390625 708.700195312 m 5
 891.799804688 734.900390625 l 5
 935.599609375 571.400390625 l 5
 837.799804688 545.200195312 l 5
 793.900390625 708.700195312 l 5
742.099609375 305.299804688 m 0
 852.599609375 305.299804688 942.099609375 215.799804688 942.099609375 105.299804688 c 0
 942.099609375 -5.2001953125 852.599609375 -94.7001953125 742.099609375 -94.7001953125 c 0
 733.200195312 -94.7001953125 724.400390625 -94.099609375 715.799804688 -93 c 1
 715.799804688 -147.400390625 l 1
 542.099609375 -147.400390625 l 1
 542.099609375 -19 l 1
 446.599609375 27 l 1
 437.599609375 -73.7001953125 351.799804688 -152.700195312 247.400390625 -152.700195312 c 0
 136.900390625 -152.700195312 47.400390625 -64.2998046875 47.400390625 44.7001953125 c 0
 47.400390625 153.700195312 136.900390625 242.099609375 247.400390625 242.099609375 c 0
 259.900390625 242.099609375 272.299804688 240.900390625 284.200195312 238.700195312 c 1
 284.200195312 436.799804688 l 1
 284.200195312 436.799804688 l 1
 291 593.5 419.5 719.200195312 578.200195312 721 c 0
 711.599609375 722.599609375 829.700195312 635 867 506.900390625 c 1
 702.099609375 458.799804688 l 1
 682.700195312 525.400390625 613 563.599609375 546.400390625 544.200195312 c 0
 497.099609375 529.799804688 463.200195312 487 457.900390625 436.799804688 c 1
 457.900390625 436.799804688 l 1
 457.900390625 170.400390625 l 1
 543.5 129.099609375 l 1
 555.299804688 228.299804688 639.700195312 305.299804688 742.099609375 305.299804688 c 0
247.400390625 -7.599609375 m 0
 277.700195312 -7.599609375 302.299804688 15.7998046875 302.299804688 44.7001953125 c 0
 302.299804688 73.599609375 277.799804688 97 247.400390625 97 c 0
 217 97 192.5 73.599609375 192.5 44.7001953125 c 0
 192.5 15.7998046875 217.099609375 -7.599609375 247.400390625 -7.599609375 c 0
742.099609375 52.2998046875 m 0
 771.400390625 52.2998046875 795.099609375 76 795.099609375 105.299804688 c 0
 795.099609375 134.599609375 771.400390625 158.299804688 742.099609375 158.299804688 c 0
 712.799804688 158.299804688 689.099609375 134.599609375 689.099609375 105.299804688 c 0
 689.099609375 76 712.799804688 52.2998046875 742.099609375 52.2998046875 c 0
EndSplineSet
EndChar

StartChar: uniE13F
Encoding: 57663 57663 63
Width: 1000
Flags: HW
LayerCount: 2
Fore
SplineSet
793.900390625 708.700195312 m 5
 891.799804688 734.900390625 l 5
 935.599609375 571.400390625 l 5
 837.799804688 545.200195312 l 5
 793.900390625 708.700195312 l 5
720.5 232.799804688 m 0
 800.200195312 207.400390625 857.900390625 132.799804688 858 44.7998046875 c 0
 858 -64.2001953125 769.599609375 -152.599609375 660.599609375 -152.599609375 c 0
 551.599609375 -152.599609375 463.200195312 -64.2001953125 463.200195312 44.7998046875 c 0
 463.200195312 59.099609375 464.700195312 73 467.599609375 86.5 c 1
 418.700195312 61.900390625 377.400390625 21.2998046875 352.400390625 -32.2001953125 c 0
 336.700195312 -65.7001953125 328.599609375 -102.299804688 328.599609375 -139.400390625 c 1
 184.299804688 -136.799804688 l 1
 184.299804688 -135.900390625 184.299804688 -137.700195312 184.299804688 -136.799804688 c 1
 158 -136.799804688 l 1
 158 71.099609375 179.700195312 278.400390625 222.799804688 481.700195312 c 1
 222.799804688 481.700195312 l 1
 224.900390625 492.400390625 226.400390625 503 229.599609375 513.099609375 c 0
 229.799804688 514.099609375 230.299804688 515 230.5 516 c 1
 230.5 516 l 1
 276.5 657.400390625 422 745.099609375 571.400390625 715.299804688 c 0
 680.299804688 693.5 768.099609375 612.900390625 798.799804688 506.099609375 c 1
 635 458.799804688 l 1
 615.599609375 526.099609375 545.299804688 564.900390625 478 545.5 c 0
 438.900390625 534.299804688 408 505.099609375 394.200195312 467.599609375 c 1
 373.400390625 372.900390625 357.400390625 277.200195312 346.5 180.900390625 c 1
 412.299804688 229.299804688 493.599609375 257.900390625 581.599609375 257.900390625 c 0
 629.099609375 257.900390625 676.099609375 249.400390625 720.5 232.799804688 c 0
660.5 -7.5 m 0
 689.400390625 -7.5 712.799804688 15.900390625 712.799804688 44.7998046875 c 0
 712.799804688 73.7001953125 689.400390625 97.099609375 660.5 97.099609375 c 0
 631.599609375 97.099609375 608.200195312 73.7001953125 608.200195312 44.7998046875 c 0
 608.200195312 15.900390625 631.599609375 -7.5 660.5 -7.5 c 0
865.5 221.599609375 m 2
 875 216.099609375 878.299804688 203.900390625 872.799804688 194.400390625 c 0
 867.299804688 184.900390625 855.099609375 181.599609375 845.599609375 187.099609375 c 2
 707.799804688 266.700195312 l 2
 698.299804688 272.200195312 695 284.400390625 700.5 293.900390625 c 0
 706 303.400390625 718.200195312 306.700195312 727.700195312 301.200195312 c 2
 865.5 221.599609375 l 2
EndSplineSet
EndChar

StartChar: uniE140
Encoding: 57664 57664 64
Width: 1000
Flags: HW
LayerCount: 2
Fore
SplineSet
793.900390625 708.700195312 m 5
 891.799804688 734.900390625 l 5
 935.599609375 571.400390625 l 5
 837.799804688 545.200195312 l 5
 793.900390625 708.700195312 l 5
713.099609375 229.900390625 m 1
 815.400390625 192.099609375 867.599609375 78.599609375 829.900390625 -23.599609375 c 0
 792.200195312 -125.900390625 678.700195312 -178.200195312 576.400390625 -140.400390625 c 0
 560.400390625 -134.5 545.299804688 -126.599609375 531.400390625 -116.799804688 c 1
 614.299804688 1.2998046875 l 1
 638.299804688 -15.5 671.400390625 -9.7001953125 688.200195312 14.2998046875 c 0
 705 38.2998046875 699.200195312 71.400390625 675.200195312 88.2001953125 c 0
 674.200195312 88.900390625 673.200195312 89.599609375 672.200195312 90.2001953125 c 0
 545.799804688 148.799804688 395.700195312 94.099609375 336.599609375 -32.2001953125 c 0
 320.900390625 -65.7001953125 312.799804688 -102.299804688 312.799804688 -139.400390625 c 1
 168.5 -136.799804688 l 1
 168.5 -135.900390625 168.5 -137.700195312 168.5 -136.799804688 c 1
 142.200195312 -136.799804688 l 1
 142.200195312 71.099609375 163.900390625 278.400390625 207 481.700195312 c 1
 207 481.700195312 l 1
 209.099609375 492.400390625 210.599609375 503 213.799804688 513.099609375 c 0
 214 514.099609375 214.5 515 214.700195312 516 c 1
 214.700195312 516 l 1
 260.700195312 657.400390625 406.200195312 745.099609375 555.599609375 715.299804688 c 0
 664.599609375 693.5 752.299804688 612.900390625 783 506.099609375 c 1
 619.200195312 458.799804688 l 1
 599.799804688 526.099609375 529.5 564.900390625 462.200195312 545.5 c 0
 423.099609375 534.299804688 392.200195312 505.099609375 378.400390625 467.599609375 c 1
 357.599609375 372.900390625 341.599609375 277.200195312 330.700195312 180.900390625 c 1
 396.5 229.299804688 477.799804688 257.900390625 565.799804688 257.900390625 c 0
 616.299804688 257.900390625 666.299804688 248.599609375 713.099609375 229.900390625 c 1
 713.099609375 229.900390625 l 1
852.799804688 221.599609375 m 2
 862.299804688 216.099609375 865.599609375 203.900390625 860.099609375 194.400390625 c 0
 854.599609375 184.900390625 842.400390625 181.599609375 832.900390625 187.099609375 c 2
 695.099609375 266.700195312 l 2
 685.599609375 272.200195312 682.299804688 284.400390625 687.799804688 293.900390625 c 0
 693.299804688 303.400390625 705.5 306.700195312 715 301.200195312 c 2
 852.799804688 221.599609375 l 2
EndSplineSet
EndChar

StartChar: uniE141
Encoding: 57665 57665 65
Width: 1000
Flags: HW
LayerCount: 2
Fore
SplineSet
793.900390625 708.700195312 m 5
 891.799804688 734.900390625 l 5
 935.599609375 571.400390625 l 5
 837.799804688 545.200195312 l 5
 793.900390625 708.700195312 l 5
934.299804688 -42.7001953125 m 1
 790.299804688 -182.299804688 568 -191.200195312 414 -71.900390625 c 1
 377.599609375 -120.900390625 318.900390625 -152.700195312 252.599609375 -152.700195312 c 0
 142.099609375 -152.700195312 52.599609375 -64.2998046875 52.599609375 44.7001953125 c 0
 52.599609375 153.700195312 142.099609375 242.099609375 252.599609375 242.099609375 c 0
 254.400390625 242.099609375 256.200195312 242 257.900390625 242 c 1
 257.900390625 436.799804688 l 1
 257.900390625 436.799804688 l 1
 264.700195312 593.400390625 393.099609375 719.200195312 551.799804688 721 c 0
 685.299804688 722.599609375 803.400390625 635 840.700195312 506.900390625 c 1
 675.799804688 458.799804688 l 1
 656.400390625 525.400390625 586.700195312 563.599609375 520.099609375 544.200195312 c 0
 470.799804688 529.799804688 436.900390625 487 431.599609375 436.799804688 c 1
 431.599609375 436.799804688 l 1
 431.599609375 244.5 l 1
 431.599609375 244.5 l 1
 430.799804688 120 531.5 18.2998046875 656 17.5 c 0
 715.099609375 17.099609375 772 39.900390625 814.400390625 81 c 1
 934.299804688 -42.7001953125 l 1
252.599609375 -7.599609375 m 0
 283 -7.599609375 307.599609375 15.900390625 307.5 44.7001953125 c 0
 307.5 48.599609375 307 52.400390625 306.200195312 56 c 0
 304.700195312 63.7001953125 301.099609375 70.599609375 295.900390625 76.7998046875 c 0
 289.099609375 85.2001953125 279.599609375 91.5 268.700195312 94.7001953125 c 2
 263.5 96 l 1
 257.900390625 96.7998046875 l 2
 256.099609375 96.900390625 254.400390625 97 252.599609375 97 c 0
 222.299804688 97 197.700195312 73.599609375 197.700195312 44.7001953125 c 0
 197.700195312 15.7998046875 222.299804688 -7.599609375 252.599609375 -7.599609375 c 0
602.599609375 263.200195312 m 2
 760.5 263.200195312 l 2
 770.700195312 263.200195312 778.900390625 255 778.900390625 244.799804688 c 0
 778.900390625 234.599609375 770.700195312 226.400390625 760.5 226.400390625 c 2
 602.599609375 226.400390625 l 2
 592.400390625 226.400390625 584.200195312 234.599609375 584.200195312 244.799804688 c 0
 584.200195312 255 592.400390625 263.200195312 602.599609375 263.200195312 c 2
EndSplineSet
EndChar

StartChar: uniE142
Encoding: 57666 57666 66
Width: 1000
Flags: HW
LayerCount: 2
Fore
SplineSet
793.900390625 708.700195312 m 5
 891.799804688 734.900390625 l 5
 935.599609375 571.400390625 l 5
 837.799804688 545.200195312 l 5
 793.900390625 708.700195312 l 5
834.200195312 263.200195312 m 2
 844.400390625 263.200195312 852.599609375 254.900390625 852.700195312 244.799804688 c 0
 852.700195312 234.599609375 844.5 226.400390625 834.299804688 226.400390625 c 2
 671.099609375 226.400390625 l 2
 660.900390625 226.400390625 652.700195312 234.599609375 652.700195312 244.799804688 c 0
 652.700195312 255 660.900390625 263.200195312 671.099609375 263.200195312 c 2
 834.200195312 263.200195312 l 2
467.5 545.599609375 m 0
 428.400390625 534.299804688 397.5 505.099609375 383.900390625 467.700195312 c 1
 373.299804688 419.599609375 363.900390625 371.200195312 355.900390625 322.599609375 c 1
 368.5 325.099609375 381.5 326.400390625 394.900390625 326.400390625 c 0
 505.400390625 326.400390625 594.900390625 236.900390625 594.900390625 126.400390625 c 0
 594.900390625 15.900390625 505.400390625 -73.599609375 394.900390625 -73.599609375 c 0
 368.099609375 -73.599609375 342.599609375 -68.400390625 319.200195312 -58.7998046875 c 1
 318.5 -84.7998046875 318.099609375 -110.799804688 318.099609375 -136.799804688 c 1
 147.5 -136.799804688 l 1
 147.5 71.099609375 169.200195312 278.400390625 212.299804688 481.700195312 c 1
 212.299804688 481.700195312 l 1
 214.400390625 492.400390625 215.900390625 503 219.099609375 513.099609375 c 0
 219.299804688 514.099609375 219.799804688 515 220 516 c 1
 220 516 l 1
 265.900390625 657.400390625 411.5 745.099609375 560.900390625 715.299804688 c 0
 669.799804688 693.5 757.599609375 612.900390625 788.299804688 506.200195312 c 1
 624.5 458.900390625 l 1
 605.099609375 526.200195312 534.799804688 565 467.5 545.599609375 c 0
394.700195312 179.299804688 m 0
 365.5 179.299804688 341.700195312 155.599609375 341.700195312 126.299804688 c 0
 341.700195312 97 365.400390625 73.2998046875 394.700195312 73.2998046875 c 0
 424 73.2998046875 447.700195312 97 447.700195312 126.299804688 c 0
 447.700195312 155.599609375 424 179.299804688 394.700195312 179.299804688 c 0
EndSplineSet
EndChar

StartChar: uniE143
Encoding: 57667 57667 67
Width: 1000
Flags: HW
LayerCount: 2
Fore
SplineSet
793.900390625 708.700195312 m 5
 891.799804688 734.900390625 l 5
 935.599609375 571.400390625 l 5
 837.799804688 545.200195312 l 5
 793.900390625 708.700195312 l 5
701.5 245.200195312 m 1
 875.299804688 242.200195312 l 1
 875.099609375 232.700195312 874.599609375 223.400390625 873.799804688 214.099609375 c 2
 873.799804688 -147.299804688 l 1
 742.200195312 -147.299804688 l 1
 742.200195312 -47.7998046875 l 1
 671.200195312 -111.200195312 577.400390625 -149.400390625 474.799804688 -148.700195312 c 1
 474.799804688 -148.700195312 l 1
 451.200195312 -149 l 1
 451.200195312 -149 l 1
 289.200195312 -145.5 158.799804688 -13.599609375 157.900390625 147.400390625 c 1
 157.900390625 147.400390625 l 1
 157.900390625 262.900390625 167.900390625 378.099609375 187.900390625 491.799804688 c 1
 187.900390625 491.799804688 l 1
 224.099609375 647.599609375 381.799804688 746.900390625 539.799804688 715.299804688 c 0
 649.5 693.400390625 737.599609375 611.799804688 767.700195312 504 c 1
 602 457.5 l 1
 583.299804688 524.099609375 514.200195312 562.900390625 447.599609375 544.200195312 c 0
 402.299804688 531.5 366.900390625 494.599609375 357.700195312 448.400390625 c 1
 357.700195312 448.400390625 l 1
 341.299804688 350.799804688 332.900390625 252.099609375 332.599609375 153.099609375 c 1
 332.599609375 153.099609375 l 1
 330.599609375 86.599609375 383.5 30.7998046875 449.299804688 26.400390625 c 2
 484.200195312 25.099609375 l 1
 484.200195312 25.099609375 l 1
 603.200195312 28.599609375 699.400390625 125.099609375 701.5 245.200195312 c 1
868.400390625 310.5 m 2
 880 310.5 889.5 301.099609375 889.5 289.400390625 c 1
 889.5 289.400390625 l 1
 889.5 277.700195312 880 268.299804688 868.400390625 268.299804688 c 2
 710.5 268.299804688 l 2
 698.799804688 268.299804688 689.400390625 277.700195312 689.400390625 289.400390625 c 0
 689.400390625 301.099609375 698.900390625 310.5 710.5 310.5 c 2
 868.400390625 310.5 l 2
EndSplineSet
EndChar

StartChar: uniE144
Encoding: 57668 57668 68
Width: 1000
Flags: HW
LayerCount: 2
Fore
SplineSet
910 353.099609375 m 1
 382.599609375 353.099609375 l 1
 372.700195312 296.700195312 364.5 240.099609375 358 183.200195312 c 1
 424.5 231.599609375 506.599609375 260.200195312 595.400390625 260.200195312 c 0
 653.900390625 260.200195312 711.099609375 246.200195312 764.200195312 221.700195312 c 0
 827.400390625 188.5 870.5 122.299804688 870.5 45.900390625 c 0
 870.5 -63.7001953125 781.700195312 -152.5 672.099609375 -152.5 c 0
 562.5 -152.5 473.700195312 -63.7001953125 473.700195312 45.900390625 c 0
 473.700195312 60 475.200195312 73.7001953125 478 87 c 1
 428.700195312 62 387.200195312 21.2001953125 362.099609375 -32.400390625 c 0
 350.400390625 -57.2998046875 342.900390625 -84 339.900390625 -111.200195312 c 0
 339.799804688 -119.700195312 339.799804688 -128.099609375 339.799804688 -136.599609375 c 1
 338.400390625 -136.599609375 l 1
 193.299804688 -136.599609375 l 1
 166.799804688 -136.599609375 l 1
 166.799804688 27.599609375 180.299804688 191.400390625 207 353.099609375 c 1
 73.2001953125 353.099609375 l 1
 73.2001953125 495.200195312 l 1
 234.099609375 495.200195312 l 1
 252 578.200195312 273.400390625 660.5 298.299804688 741.900390625 c 1
 463.799804688 691.299804688 l 1
 444 626.5 426.5 561.099609375 411.400390625 495.200195312 c 1
 910 495.200195312 l 1
 910 353.099609375 l 1
672.099609375 98.599609375 m 0
 643 98.599609375 619.5 75 619.5 46 c 0
 619.5 16.900390625 643.099609375 -6.599609375 672.099609375 -6.599609375 c 0
 701.099609375 -6.599609375 724.700195312 16.900390625 724.700195312 46 c 0
 724.700195312 75.099609375 701.200195312 98.599609375 672.099609375 98.599609375 c 0
EndSplineSet
EndChar

StartChar: uniE145
Encoding: 57669 57669 69
Width: 1000
Flags: HW
LayerCount: 2
Fore
SplineSet
910 353.099609375 m 2
 367.799804688 353.099609375 l 1
 357.900390625 296.900390625 349.700195312 240.5 343.200195312 183.799804688 c 1
 408.799804688 231.5 489.5 259.599609375 576.700195312 259.599609375 c 0
 628 259.599609375 679.299804688 251.200195312 726.700195312 231.900390625 c 0
 830.5 194.599609375 884 81.2998046875 846.099609375 -21.099609375 c 0
 808.299804688 -123.5 693.5 -176.299804688 589.700195312 -139 c 0
 573.599609375 -133.200195312 558.400390625 -125.400390625 544.299804688 -115.799804688 c 1
 627.200195312 2.400390625 l 1
 652.700195312 -13.900390625 687.299804688 -7.400390625 704.400390625 17 c 0
 721.5 41.400390625 714.700195312 74.2998046875 689.099609375 90.599609375 c 0
 687.700195312 91.599609375 686.099609375 92.400390625 684.599609375 93.2001953125 c 0
 558 152.400390625 406.599609375 96.099609375 347.400390625 -30.5 c 0
 335.700195312 -55.599609375 328.200195312 -82.2998046875 325.099609375 -109.700195312 c 0
 325 -118.200195312 325 -126.599609375 325 -135.099609375 c 1
 323.599609375 -135.099609375 l 1
 179.299804688 -135.099609375 l 1
 153 -135.099609375 l 1
 153 28.7001953125 166.5 192 193.200195312 353.099609375 c 1
 73.2001953125 353.099609375 l 1
 73.2001953125 495.200195312 l 1
 220.299804688 495.200195312 l 1
 238 577.200195312 259.200195312 658.400390625 283.799804688 738.799804688 c 1
 448.299804688 688.400390625 l 1
 428.799804688 624.5 411.5 560.099609375 396.599609375 495.200195312 c 1
 910 495.200195312 l 1
 910 353.099609375 l 2
EndSplineSet
EndChar

StartChar: uniE146
Encoding: 57670 57670 70
Width: 1000
Flags: HW
LayerCount: 2
Fore
SplineSet
825.099609375 81 m 1
 945 -42.7998046875 l 1
 800.700195312 -182.599609375 577.799804688 -191.299804688 423.700195312 -71.099609375 c 1
 387.400390625 -120.5 328.299804688 -152.700195312 261.700195312 -152.700195312 c 0
 151.200195312 -152.700195312 61.7001953125 -64.2998046875 61.7001953125 44.7001953125 c 0
 61.7001953125 153.700195312 151.200195312 242.099609375 261.700195312 242.099609375 c 0
 263.5 242.099609375 265.299804688 242 267 242 c 1
 267 353.099609375 l 1
 73.2001953125 353.099609375 l 1
 73.2001953125 495.200195312 l 1
 267 495.200195312 l 1
 267 721 l 1
 440.700195312 721 l 1
 440.700195312 495.200195312 l 1
 910 495.200195312 l 1
 910 353.099609375 l 1
 440.700195312 353.099609375 l 1
 440.700195312 244.5 l 2
 439.900390625 120 542.200195312 18.2998046875 666.700195312 17.5 c 0
 725.799804688 17.099609375 782.700195312 39.900390625 825.099609375 81 c 1
261.700195312 -7.599609375 m 0
 292.099609375 -7.599609375 316.599609375 15.7998046875 316.5 44.7001953125 c 0
 316.5 51.900390625 315 58.7001953125 312.299804688 64.900390625 c 0
 311.700195312 66.2001953125 311 67.5 310.400390625 68.7998046875 c 0
 303.799804688 81 292.099609375 90.400390625 278.099609375 94.599609375 c 0
 277.900390625 94.7001953125 277.700195312 94.7998046875 277.5 94.7998046875 c 2
 268.400390625 96.599609375 l 2
 268.299804688 96.7001953125 268.099609375 96.7001953125 268 96.7001953125 c 2
 267 96.7998046875 l 2
 265.200195312 96.900390625 263.5 97 261.700195312 97 c 0
 231.400390625 97 206.799804688 73.599609375 206.799804688 44.7001953125 c 0
 206.799804688 15.7998046875 231.400390625 -7.599609375 261.700195312 -7.599609375 c 0
EndSplineSet
EndChar

StartChar: uniE147
Encoding: 57671 57671 71
Width: 1000
Flags: HW
LayerCount: 2
Fore
SplineSet
910 353.099609375 m 2
 373 353.099609375 l 1
 371.200195312 343 369.5 332.900390625 367.799804688 322.799804688 c 1
 380 325.099609375 392.5 326.299804688 405.299804688 326.299804688 c 0
 515.700195312 326.299804688 605.299804688 236.900390625 605.299804688 126.400390625 c 0
 605.299804688 15.900390625 515.799804688 -73.599609375 405.299804688 -73.599609375 c 0
 379.099609375 -73.599609375 354.099609375 -68.599609375 331.099609375 -59.400390625 c 1
 330.400390625 -85.2001953125 330 -111 330 -136.799804688 c 1
 157.900390625 -136.799804688 l 1
 157.900390625 27.5 171.5 191.400390625 198.400390625 353.099609375 c 1
 73.2001953125 353.099609375 l 1
 73.2001953125 495.200195312 l 1
 225.599609375 495.200195312 l 1
 243.200195312 576.599609375 264.299804688 657.299804688 288.700195312 737.099609375 c 1
 453.299804688 686.700195312 l 1
 433.900390625 623.400390625 416.799804688 559.5 402 495.200195312 c 1
 910 495.200195312 l 1
 910 353.099609375 l 2
405.299804688 179.299804688 m 0
 376 179.299804688 352.299804688 155.599609375 352.299804688 126.299804688 c 0
 352.299804688 97 376 73.2998046875 405.299804688 73.2998046875 c 0
 434.5 73.2998046875 458.299804688 97 458.299804688 126.299804688 c 0
 458.299804688 155.599609375 434.599609375 179.299804688 405.299804688 179.299804688 c 0
EndSplineSet
EndChar

StartChar: uniE148
Encoding: 57672 57672 72
Width: 1000
Flags: HW
LayerCount: 2
Fore
SplineSet
862.400390625 207 m 1
 946.599609375 162.700195312 989.200195312 63 958.900390625 -30.5 c 0
 924.900390625 -135 812.700195312 -192.200195312 708.200195312 -158.200195312 c 0
 679.200195312 -148.799804688 653.400390625 -133.099609375 632.200195312 -112.799804688 c 1
 581 -136.200195312 524 -149.099609375 464.099609375 -148.700195312 c 2
 440.5 -149 l 1
 278.5 -145.5 148.200195312 -13.599609375 147.299804688 147.400390625 c 0
 147.299804688 216.200195312 150.900390625 284.799804688 158 353.099609375 c 1
 73.2001953125 353.099609375 l 1
 73.2001953125 495.200195312 l 1
 178 495.200195312 l 1
 192.5 576.900390625 212.099609375 657.599609375 236.700195312 737 c 1
 403.5 685.299804688 l 1
 384.099609375 622.700195312 368.099609375 559.299804688 355.599609375 495.200195312 c 1
 910 495.200195312 l 1
 910 353.099609375 l 1
 333.700195312 353.099609375 l 1
 326.099609375 286.799804688 322.200195312 220 322 153.099609375 c 0
 320 86.599609375 372.900390625 30.7001953125 438.700195312 26.2998046875 c 2
 484.200195312 25.599609375 l 1
 598.299804688 34.400390625 688.900390625 128.700195312 690.900390625 245.200195312 c 1
 864.599609375 242.200195312 l 1
 864.299804688 230.299804688 863.599609375 218.599609375 862.400390625 207 c 1
775.799804688 -23.599609375 m 0
 805.900390625 -20.2001953125 827.599609375 7 824.200195312 37.2001953125 c 0
 823.299804688 45.2001953125 820.700195312 52.7998046875 816.599609375 59.5 c 1
 800.400390625 29.599609375 780.400390625 2 757.400390625 -22.599609375 c 1
 763.299804688 -23.900390625 769.5 -24.2998046875 775.799804688 -23.599609375 c 0
EndSplineSet
EndChar

StartChar: uniE149
Encoding: 57673 57673 73
Width: 1000
Flags: HW
LayerCount: 2
Fore
SplineSet
910 353.099609375 m 2
 344 353.099609375 l 1
 336.200195312 284.900390625 332.299804688 216.200195312 332.299804688 147.400390625 c 0
 333 97.599609375 361.900390625 54.5 405.5 35.900390625 c 1
 391.900390625 63 384.200195312 93.7998046875 384.200195312 126.299804688 c 0
 384.200195312 236.799804688 472.599609375 326.299804688 581.599609375 326.299804688 c 0
 647 326.299804688 705 294 740.900390625 244.400390625 c 1
 871.400390625 242.099609375 l 1
 873.599609375 242.099609375 l 1
 873.599609375 -147.400390625 l 1
 736.799804688 -147.400390625 l 1
 736.799804688 -49.2001953125 l 1
 666 -111.700195312 572.700195312 -149.400390625 470.900390625 -148.700195312 c 2
 447.299804688 -149 l 1
 282.599609375 -145.5 154.299804688 -9.099609375 157.900390625 155.700195312 c 0
 157.900390625 156.599609375 157.900390625 157.400390625 157.900390625 158.299804688 c 0
 158.299804688 223.400390625 161.900390625 288.400390625 168.599609375 353.099609375 c 1
 73.2001953125 353.099609375 l 1
 73.2001953125 495.200195312 l 1
 188.5 495.200195312 l 1
 202.900390625 576.599609375 222.400390625 657.099609375 246.900390625 736.299804688 c 1
 413.5 684.599609375 l 1
 394.200195312 622.299804688 378.299804688 559 365.900390625 495.200195312 c 1
 910 495.200195312 l 1
 910 353.099609375 l 2
581.599609375 181.200195312 m 0
 552.700195312 181.200195312 529.299804688 156.599609375 529.299804688 126.299804688 c 0
 529.299804688 96 552.700195312 71.400390625 581.599609375 71.400390625 c 0
 610.5 71.400390625 633.900390625 96 633.900390625 126.299804688 c 0
 633.900390625 156.599609375 610.5 181.200195312 581.599609375 181.200195312 c 0
EndSplineSet
EndChar

StartChar: uniE14A
Encoding: 57674 57674 74
Width: 1000
Flags: HW
LayerCount: 2
Fore
SplineSet
910 353.099609375 m 1
 333.599609375 353.099609375 l 1
 325.799804688 284.900390625 321.900390625 216.099609375 321.900390625 147.200195312 c 0
 322.900390625 83.099609375 372.700195312 30.2001953125 436.799804688 26.099609375 c 2
 473.599609375 24.900390625 l 1
 591.599609375 29.599609375 686.5 125.700195312 688.599609375 245 c 1
 862.299804688 241.900390625 l 1
 863.099609375 241.900390625 l 1
 863.099609375 -147.599609375 l 1
 726.299804688 -147.599609375 l 1
 726.299804688 -50.7998046875 l 1
 655.599609375 -112.599609375 563 -149.700195312 461.900390625 -149 c 2
 438.299804688 -149.299804688 l 1
 273.599609375 -145.700195312 143.700195312 -9.400390625 147.299804688 155.400390625 c 0
 147.299804688 156.299804688 147.400390625 157.200195312 147.400390625 158.099609375 c 0
 147.799804688 223.299804688 151.400390625 288.400390625 158.099609375 353.099609375 c 1
 73.2001953125 353.099609375 l 1
 73.2001953125 495.200195312 l 1
 178 495.200195312 l 1
 192.5 576.799804688 212.099609375 657.400390625 236.700195312 736.700195312 c 1
 403.400390625 685.099609375 l 1
 384 622.599609375 368.099609375 559.200195312 355.599609375 495.200195312 c 1
 910 495.200195312 l 1
 910 353.099609375 l 1
EndSplineSet
EndChar

StartChar: uniE14B
Encoding: 57675 57675 75
Width: 1000
Flags: HW
LayerCount: 2
Fore
SplineSet
332.5 353.099609375 m 1
 324.900390625 286.799804688 321 220 320.799804688 153 c 0
 320.099609375 128.299804688 327.900390625 105.099609375 339.799804688 85.5 c 1
 337.099609375 98.7001953125 335.700195312 112.299804688 335.700195312 126.299804688 c 0
 335.700195312 236.799804688 424.099609375 326.299804688 533.099609375 326.299804688 c 0
 638.799804688 326.299804688 725.200195312 242 730.200195312 136.099609375 c 1
 785.099609375 130.200195312 837.299804688 101.599609375 871.599609375 53 c 0
 894.5 20.5 908.599609375 -18.099609375 909.400390625 -57.900390625 c 1
 909.400390625 -57.900390625 l 1
 909.400390625 -142.299804688 l 1
 735.700195312 -142.299804688 l 1
 735.700195312 -58.099609375 l 2
 733.799804688 -43.7001953125 723.700195312 -32.599609375 708.799804688 -32.7001953125 c 0
 706.200195312 -32.7001953125 703.700195312 -33.099609375 701.200195312 -33.7998046875 c 2
 616.599609375 -94.099609375 l 2
 481.900390625 -189 296.200195312 -157.400390625 201.299804688 -22.7001953125 c 0
 166.200195312 27.2001953125 146.599609375 86.5 146.200195312 147.299804688 c 0
 146.200195312 216.099609375 149.799804688 284.799804688 156.900390625 353.099609375 c 1
 73.2001953125 353.099609375 l 1
 73.2001953125 495.200195312 l 1
 176.900390625 495.200195312 l 1
 191.400390625 576.799804688 211 657.5 235.599609375 736.900390625 c 1
 402.299804688 685.200195312 l 1
 382.900390625 622.700195312 367 559.200195312 354.5 495.200195312 c 1
 910 495.200195312 l 1
 910 353.099609375 l 1
 332.5 353.099609375 l 1
533 181.200195312 m 0
 504.200195312 181.200195312 480.700195312 156.599609375 480.700195312 126.299804688 c 0
 480.700195312 96 504.099609375 71.400390625 533 71.400390625 c 0
 541.799804688 71.400390625 550.099609375 73.7001953125 557.400390625 77.7001953125 c 2
 566.900390625 84.5 l 2
 578.200195312 94.599609375 585.299804688 109.599609375 585.299804688 126.299804688 c 0
 585.299804688 156.599609375 561.900390625 181.200195312 533 181.200195312 c 0
EndSplineSet
EndChar

StartChar: uniE14C
Encoding: 57676 57676 76
Width: 1000
Flags: HW
LayerCount: 2
Fore
SplineSet
729.099609375 233.700195312 m 0
 831.400390625 196 883.700195312 82.5 845.900390625 -19.7998046875 c 0
 808.200195312 -122.099609375 694.700195312 -174.400390625 592.400390625 -136.599609375 c 0
 576.400390625 -130.700195312 561.299804688 -122.799804688 547.400390625 -113 c 1
 630.200195312 5.099609375 l 1
 654.200195312 -11.7001953125 687.299804688 -5.900390625 704.099609375 18.099609375 c 0
 720.900390625 42.099609375 715.099609375 75.2001953125 691.099609375 92 c 0
 690.099609375 92.7001953125 689.099609375 93.400390625 688.099609375 94 c 0
 561.700195312 152.599609375 411.599609375 97.900390625 352.5 -28.400390625 c 0
 340.799804688 -53.5 333.299804688 -80.2001953125 330.200195312 -107.599609375 c 0
 330.099609375 -116.099609375 330.099609375 -124.5 330.099609375 -133 c 1
 328.700195312 -133 l 1
 184.400390625 -133 l 1
 158.099609375 -133 l 1
 158.099609375 30.099609375 171.5 192.599609375 198 353.099609375 c 1
 73.2001953125 353.099609375 l 1
 73.2001953125 495.200195312 l 1
 225 495.200195312 l 1
 242.799804688 577.900390625 264.200195312 659.900390625 289 740.900390625 c 1
 453.400390625 690.5 l 1
 433.599609375 625.900390625 416.200195312 560.799804688 401.200195312 495.200195312 c 1
 910 495.200195312 l 1
 910 353.099609375 l 1
 372.5 353.099609375 l 1
 362.799804688 297.599609375 354.700195312 241.900390625 348.299804688 185.900390625 c 1
 413.900390625 233.599609375 494.599609375 261.700195312 581.799804688 261.700195312 c 0
 632.299804688 261.700195312 682.299804688 252.400390625 729.099609375 233.700195312 c 0
763.400390625 274.900390625 m 0
 763.400390625 302.514648438 785.786132812 324.900390625 813.400390625 324.900390625 c 0
 841.014648438 324.900390625 863.400390625 302.514648438 863.400390625 274.900390625 c 0
 863.400390625 247.286132812 841.014648438 224.900390625 813.400390625 224.900390625 c 0
 785.786132812 224.900390625 763.400390625 247.286132812 763.400390625 274.900390625 c 0
878.03125 129.038085938 m 0
 858.504882812 148.563476562 858.504882812 180.221679688 878.03125 199.748046875 c 0
 897.557617188 219.2734375 929.21484375 219.2734375 948.741210938 199.748046875 c 0
 968.267578125 180.221679688 968.267578125 148.563476562 948.741210938 129.038085938 c 0
 929.21484375 109.51171875 897.557617188 109.51171875 878.03125 129.038085938 c 0
EndSplineSet
EndChar

StartChar: uniE14D
Encoding: 57677 57677 77
Width: 1000
Flags: HW
LayerCount: 2
Fore
SplineSet
620.400390625 28 m 1
 915.5 28 l 1
 915.5 -145.700195312 l 1
 444 -145.700195312 l 2
 279.299804688 -142.099609375 148.799804688 -7.400390625 152.400390625 157.400390625 c 0
 152.400390625 158.299804688 152.5 159.099609375 152.5 160 c 0
 152.900390625 224.599609375 156.400390625 289 163 353.099609375 c 1
 73.2001953125 353.099609375 l 1
 73.2001953125 495.200195312 l 1
 182.799804688 495.200195312 l 1
 197.299804688 577.400390625 217 658.700195312 241.799804688 738.599609375 c 1
 408.599609375 686.900390625 l 1
 389 623.799804688 373 559.799804688 360.400390625 495.200195312 c 1
 910 495.200195312 l 1
 910 353.099609375 l 1
 338.599609375 353.099609375 l 1
 336.299804688 332.799804688 334.299804688 312.400390625 332.700195312 292 c 1
 365.099609375 314.700195312 404.599609375 328 447.200195312 328 c 0
 557.700195312 328 647.200195312 238.5 647.200195312 128 c 0
 647.200195312 91.599609375 637.400390625 57.400390625 620.400390625 28 c 1
447.200195312 75 m 0
 476.5 75 500.200195312 98.7001953125 500.200195312 128 c 0
 500.200195312 157.299804688 476.5 181 447.200195312 181 c 0
 417.900390625 181 394.200195312 157.299804688 394.200195312 128 c 0
 394.200195312 98.7001953125 417.900390625 75 447.200195312 75 c 0
EndSplineSet
EndChar

StartChar: uniE14E
Encoding: 57678 57678 78
Width: 1000
Flags: HW
LayerCount: 2
Fore
SplineSet
626.099609375 27.599609375 m 1
 920.799804688 27.599609375 l 1
 920.799804688 -146 l 1
 450.599609375 -146 l 2
 288.700195312 -142.5 158.599609375 -12.2998046875 157.700195312 148.700195312 c 0
 157.700195312 217 161.299804688 285.299804688 168.299804688 353.099609375 c 1
 73.2001953125 353.099609375 l 1
 73.2001953125 495.200195312 l 1
 188.200195312 495.200195312 l 1
 202.700195312 577.299804688 222.400390625 658.5 247.099609375 738.299804688 c 1
 413.799804688 686.5 l 1
 394.299804688 623.5 378.200195312 559.700195312 365.700195312 495.200195312 c 1
 910 495.200195312 l 1
 910 353.099609375 l 1
 343.900390625 353.099609375 l 1
 341.400390625 331.599609375 339.400390625 310 337.700195312 288.400390625 c 1
 370.5 313 411.099609375 327.599609375 455.099609375 327.599609375 c 0
 564.099609375 327.599609375 652.5 238.099609375 652.5 127.599609375 c 0
 652.5 91.2001953125 642.900390625 57 626.099609375 27.599609375 c 1
455.099609375 72.7998046875 m 0
 484 72.7998046875 507.400390625 97.400390625 507.400390625 127.700195312 c 0
 507.400390625 158 484 182.599609375 455.099609375 182.599609375 c 0
 426.299804688 182.599609375 402.799804688 158 402.799804688 127.700195312 c 0
 402.799804688 97.400390625 426.200195312 72.7998046875 455.099609375 72.7998046875 c 0
668.299804688 267.099609375 m 0
 668.299804688 294.713867188 690.685546875 317.099609375 718.299804688 317.099609375 c 0
 745.9140625 317.099609375 768.299804688 294.713867188 768.299804688 267.099609375 c 0
 768.299804688 239.485351562 745.9140625 217.099609375 718.299804688 217.099609375 c 0
 690.685546875 217.099609375 668.299804688 239.485351562 668.299804688 267.099609375 c 0
819.739257812 231.71484375 m 0
 800.212890625 251.241210938 800.212890625 282.899414062 819.739257812 302.424804688 c 0
 839.265625 321.951171875 870.923828125 321.951171875 890.44921875 302.424804688 c 0
 909.975585938 282.899414062 909.975585938 251.241210938 890.44921875 231.71484375 c 0
 870.923828125 212.189453125 839.265625 212.189453125 819.739257812 231.71484375 c 0
EndSplineSet
EndChar

StartChar: uniE14F
Encoding: 57679 57679 79
Width: 1000
Flags: HW
LayerCount: 2
Fore
SplineSet
743.400390625 305.299804688 m 0
 854.400390625 305.299804688 944.400390625 215.400390625 944.400390625 104.299804688 c 0
 944.400390625 -6.7998046875 854.299804688 -96.7998046875 743.299804688 -96.7998046875 c 0
 734.299804688 -96.7998046875 725.5 -96.2001953125 716.799804688 -95.099609375 c 1
 716.799804688 -149.700195312 l 1
 542.200195312 -149.700195312 l 1
 542.200195312 -20.599609375 l 1
 446.200195312 25.7001953125 l 1
 437.200195312 -75.599609375 351 -155 246 -155 c 0
 135 -155 45 -66.2001953125 45 43.400390625 c 0
 45 153 135 241.799804688 246.099609375 241.799804688 c 0
 258.700195312 241.799804688 271.099609375 240.599609375 283.099609375 238.400390625 c 1
 283.099609375 353.099609375 l 1
 73.2001953125 353.099609375 l 1
 73.2001953125 495.200195312 l 1
 283.099609375 495.200195312 l 1
 283.099609375 723.299804688 l 1
 457.700195312 723.299804688 l 1
 457.700195312 495.200195312 l 1
 910 495.200195312 l 1
 910 353.099609375 l 1
 457.700195312 353.099609375 l 1
 457.700195312 169.599609375 l 1
 543.799804688 128.099609375 l 1
 555.599609375 227.900390625 640.400390625 305.299804688 743.400390625 305.299804688 c 0
246 -9.2001953125 m 0
 276.5 -9.2001953125 301.200195312 14.400390625 301.200195312 43.400390625 c 0
 301.200195312 72.5 276.5 96 246 96 c 0
 215.5 96 190.799804688 72.400390625 190.799804688 43.400390625 c 0
 190.799804688 14.2998046875 215.5 -9.2001953125 246 -9.2001953125 c 0
743.400390625 51 m 0
 772.799804688 51 796.700195312 74.7998046875 796.700195312 104.299804688 c 0
 796.700195312 133.799804688 772.900390625 157.599609375 743.400390625 157.599609375 c 0
 713.900390625 157.599609375 690.099609375 133.700195312 690.099609375 104.299804688 c 0
 690.099609375 74.7998046875 714 51 743.400390625 51 c 0
EndSplineSet
EndChar

StartChar: uniE150
Encoding: 57680 57680 80
Width: 1000
Flags: HW
LayerCount: 2
Fore
SplineSet
865.5 222.700195312 m 2
 875 217.200195312 878.200195312 205 872.799804688 195.5 c 0
 867.299804688 186 855.099609375 182.700195312 845.599609375 188.200195312 c 2
 707.799804688 267.799804688 l 2
 698.299804688 273.299804688 695 285.5 700.5 295 c 0
 706 304.5 718.200195312 307.799804688 727.700195312 302.299804688 c 2
 865.5 222.700195312 l 2
401.599609375 495.200195312 m 1
 910 495.200195312 l 1
 910 353.099609375 l 1
 372.799804688 353.099609375 l 1
 362.799804688 296.700195312 354.599609375 240.099609375 348.099609375 183.200195312 c 1
 413.700195312 230.900390625 494.400390625 259 581.599609375 259 c 0
 629.099609375 259 676.099609375 250.5 720.5 233.900390625 c 0
 800.200195312 208.5 857.900390625 133.900390625 857.900390625 45.7998046875 c 0
 857.900390625 -63.2001953125 769.5 -151.599609375 660.5 -151.599609375 c 0
 551.5 -151.599609375 463.099609375 -63.2001953125 463.099609375 45.7998046875 c 0
 463.099609375 60.099609375 464.599609375 74 467.5 87.5 c 1
 418.599609375 62.900390625 377.299804688 22.2998046875 352.299804688 -31.2001953125 c 0
 340.599609375 -56.2998046875 333.099609375 -83 330 -110.400390625 c 0
 329.900390625 -118.900390625 329.900390625 -127.299804688 329.900390625 -135.799804688 c 1
 328.5 -135.799804688 l 1
 184.200195312 -135.799804688 l 1
 157.900390625 -135.799804688 l 1
 157.900390625 28.2001953125 171.400390625 191.700195312 198.200195312 353.099609375 c 1
 73.2001953125 353.099609375 l 1
 73.2001953125 495.200195312 l 1
 225.400390625 495.200195312 l 1
 243.099609375 577 264.200195312 658 288.700195312 738.099609375 c 1
 453.200195312 687.799804688 l 1
 433.700195312 624.099609375 416.5 559.900390625 401.599609375 495.200195312 c 1
660.5 98.099609375 m 0
 631.599609375 98.099609375 608.200195312 74.7001953125 608.200195312 45.7998046875 c 0
 608.200195312 16.900390625 631.599609375 -6.5 660.5 -6.5 c 0
 689.400390625 -6.5 712.799804688 16.900390625 712.799804688 45.7998046875 c 0
 712.799804688 74.7001953125 689.400390625 98.099609375 660.5 98.099609375 c 0
EndSplineSet
EndChar

StartChar: uniE151
Encoding: 57681 57681 81
Width: 1000
Flags: HW
LayerCount: 2
Fore
SplineSet
852.900390625 222.299804688 m 2
 862.400390625 216.799804688 865.599609375 204.599609375 860.200195312 195.099609375 c 0
 854.700195312 185.599609375 842.5 182.299804688 833 187.799804688 c 2
 695.099609375 267.400390625 l 2
 685.599609375 272.900390625 682.299804688 285.099609375 687.799804688 294.599609375 c 0
 693.299804688 304.099609375 705.5 307.400390625 715 301.900390625 c 2
 852.900390625 222.299804688 l 2
385.799804688 495.200195312 m 1
 910 495.200195312 l 1
 910 353.099609375 l 1
 357 353.099609375 l 1
 347 296.599609375 338.700195312 239.700195312 332.200195312 182.700195312 c 1
 397.700195312 230.400390625 478.5 258.599609375 565.799804688 258.599609375 c 0
 616.299804688 258.599609375 666.299804688 249.299804688 713.099609375 230.599609375 c 0
 815.400390625 192.799804688 867.700195312 79.2998046875 829.799804688 -23 c 0
 792.099609375 -125.299804688 678.599609375 -177.599609375 576.299804688 -139.799804688 c 0
 560.299804688 -133.900390625 545.200195312 -126 531.299804688 -116.200195312 c 1
 614.200195312 1.900390625 l 1
 638.200195312 -14.900390625 671.299804688 -9.099609375 688.099609375 14.900390625 c 0
 704.900390625 38.900390625 699.099609375 72 675.099609375 88.7998046875 c 0
 674.099609375 89.5 673.099609375 90.2001953125 672.099609375 90.7998046875 c 0
 545.700195312 149.400390625 395.599609375 94.7001953125 336.5 -31.599609375 c 0
 324.599609375 -57.2001953125 317 -84.5 314.099609375 -112.400390625 c 0
 314 -120.299804688 314 -128.299804688 314 -136.200195312 c 1
 312.700195312 -136.200195312 l 1
 168.400390625 -136.200195312 l 1
 142.099609375 -136.200195312 l 1
 142.099609375 27.900390625 155.700195312 191.599609375 182.5 353.099609375 c 1
 73.2001953125 353.099609375 l 1
 73.2001953125 495.200195312 l 1
 209.599609375 495.200195312 l 1
 227.200195312 576.599609375 248.200195312 657.200195312 272.599609375 737 c 1
 437 686.700195312 l 1
 417.700195312 623.400390625 400.599609375 559.5 385.799804688 495.200195312 c 1
EndSplineSet
EndChar

StartChar: uniE152
Encoding: 57682 57682 82
Width: 1000
Flags: HW
LayerCount: 2
Fore
SplineSet
815.200195312 82.2001953125 m 1
 935.200195312 -41.599609375 l 1
 791.200195312 -181.200195312 568.900390625 -190.099609375 414.900390625 -70.7001953125 c 1
 378.5 -119.700195312 319.799804688 -151.5 253.5 -151.5 c 0
 143 -151.5 53.5 -63.099609375 53.5 45.900390625 c 0
 53.5 154.900390625 143 243.299804688 253.5 243.299804688 c 0
 255.299804688 243.299804688 257.099609375 243.200195312 258.799804688 243.200195312 c 1
 258.799804688 353.099609375 l 1
 73.2001953125 353.099609375 l 1
 73.2001953125 495.200195312 l 1
 258.799804688 495.200195312 l 1
 258.799804688 722.200195312 l 1
 432.400390625 722.200195312 l 1
 432.400390625 495.200195312 l 1
 910 495.200195312 l 1
 910 353.099609375 l 1
 432.400390625 353.099609375 l 1
 432.400390625 245.700195312 l 2
 431.599609375 121.200195312 532.299804688 19.5 656.799804688 18.7001953125 c 0
 715.900390625 18.2998046875 772.799804688 41.099609375 815.200195312 82.2001953125 c 1
253.5 -6.400390625 m 0
 283.799804688 -6.400390625 308.400390625 17 308.5 46 c 0
 308.5 49.900390625 308 53.7001953125 307.200195312 57.2998046875 c 0
 305.799804688 64.7001953125 302 71.5 296.900390625 78.099609375 c 0
 290.099609375 86.5 280.599609375 92.7998046875 269.700195312 96 c 2
 262.200195312 97.599609375 l 1
 258.799804688 98 l 2
 257 98.099609375 255.299804688 98.2001953125 253.5 98.2001953125 c 0
 223.200195312 98.2001953125 198.599609375 74.7998046875 198.599609375 45.900390625 c 0
 198.599609375 17 223.200195312 -6.400390625 253.5 -6.400390625 c 0
603.5 264.200195312 m 2
 761.400390625 264.200195312 l 2
 771.599609375 264.200195312 779.799804688 256 779.799804688 245.799804688 c 0
 779.799804688 235.599609375 771.599609375 227.400390625 761.400390625 227.400390625 c 2
 603.5 227.400390625 l 2
 593.299804688 227.400390625 585.099609375 235.700195312 585.099609375 245.799804688 c 0
 585.099609375 256 593.299804688 264.200195312 603.5 264.200195312 c 2
EndSplineSet
EndChar

StartChar: uniE153
Encoding: 57683 57683 83
Width: 1000
Flags: HW
LayerCount: 2
Fore
SplineSet
835.200195312 263.200195312 m 2
 845.400390625 263.200195312 853.599609375 254.900390625 853.700195312 244.799804688 c 0
 853.700195312 234.599609375 845.5 226.400390625 835.299804688 226.400390625 c 2
 672.099609375 226.400390625 l 2
 661.900390625 226.400390625 653.700195312 234.599609375 653.700195312 244.799804688 c 0
 653.700195312 255 661.900390625 263.200195312 672.099609375 263.200195312 c 2
 835.200195312 263.200195312 l 2
392.099609375 495.200195312 m 1
 910 495.200195312 l 1
 910 353.099609375 l 1
 363.200195312 353.099609375 l 1
 361.400390625 343 359.700195312 332.900390625 358 322.700195312 c 1
 370.200195312 325.099609375 382.799804688 326.299804688 395.700195312 326.299804688 c 0
 506.200195312 326.299804688 595.799804688 236.900390625 595.799804688 126.400390625 c 0
 595.799804688 15.900390625 506.299804688 -73.599609375 395.799804688 -73.599609375 c 0
 369.5 -73.599609375 344.400390625 -68.5 321.400390625 -59.2998046875 c 1
 320.700195312 -85.099609375 320.299804688 -111 320.299804688 -136.799804688 c 1
 148.400390625 -136.799804688 l 1
 148.400390625 27.5 162 191.400390625 188.900390625 353.099609375 c 1
 73.2001953125 353.099609375 l 1
 73.2001953125 495.200195312 l 1
 216.099609375 495.200195312 l 1
 233.599609375 576.400390625 254.599609375 656.799804688 278.900390625 736.400390625 c 1
 443.200195312 686 l 1
 423.900390625 622.900390625 406.900390625 559.299804688 392.099609375 495.200195312 c 1
395.700195312 179.299804688 m 0
 366.400390625 179.299804688 342.700195312 155.599609375 342.700195312 126.299804688 c 0
 342.700195312 97 366.400390625 73.2998046875 395.700195312 73.2998046875 c 0
 425 73.2998046875 448.700195312 97 448.700195312 126.299804688 c 0
 448.700195312 155.599609375 425 179.299804688 395.700195312 179.299804688 c 0
EndSplineSet
EndChar

StartChar: uniE154
Encoding: 57684 57684 84
Width: 1000
Flags: HW
LayerCount: 2
Fore
SplineSet
866.5 310.599609375 m 2
 878.200195312 310.599609375 887.599609375 301.099609375 887.599609375 289.5 c 0
 887.599609375 277.799804688 878.099609375 268.400390625 866.5 268.400390625 c 2
 708.599609375 268.400390625 l 2
 696.900390625 268.400390625 687.5 277.799804688 687.5 289.5 c 0
 687.5 301.200195312 697 310.599609375 708.599609375 310.599609375 c 2
 866.5 310.599609375 l 2
364.200195312 495.200195312 m 1
 910 495.200195312 l 1
 910 353.099609375 l 1
 342.299804688 353.099609375 l 1
 334.700195312 286.799804688 330.799804688 220.099609375 330.599609375 153.200195312 c 0
 328.5 86.7001953125 381.599609375 30.7998046875 447.400390625 26.400390625 c 2
 482.299804688 25.099609375 l 1
 601.299804688 28.599609375 697.5 125.099609375 699.599609375 245.200195312 c 1
 873.400390625 242.200195312 l 1
 873.200195312 232.700195312 872.700195312 223.400390625 871.900390625 214.099609375 c 2
 871.900390625 -147.299804688 l 1
 740.299804688 -147.299804688 l 1
 740.299804688 -47.7998046875 l 1
 669.299804688 -111.200195312 575.5 -149.400390625 472.900390625 -148.700195312 c 2
 449.299804688 -149 l 1
 287.299804688 -145.5 156.900390625 -13.599609375 156 147.400390625 c 0
 156 216.200195312 159.599609375 284.799804688 166.700195312 353.099609375 c 1
 73.2001953125 353.099609375 l 1
 73.2001953125 495.200195312 l 1
 186.599609375 495.200195312 l 1
 201.099609375 576.799804688 220.700195312 657.599609375 245.400390625 737 c 1
 412.099609375 685.400390625 l 1
 392.700195312 622.799804688 376.700195312 559.299804688 364.200195312 495.200195312 c 1
EndSplineSet
EndChar

StartChar: uniE155
Encoding: 57685 57685 85
Width: 1000
Flags: HW
LayerCount: 2
Fore
SplineSet
740.599609375 646.200195312 m 5
 740.599609375 693.299804688 778.799804688 731.400390625 826 731.400390625 c 4
 873.19921875 731.400390625 911.399414062 693.200195312 911.399414062 646.200195312 c 4
 911.399414062 599.200195312 873.19921875 561 826 561 c 4
 778.799804688 561 740.599609375 599.200195312 740.599609375 646.200195312 c 5
 740.599609375 646.200195312 l 5
803.299804688 646.200195312 m 5
 803.299804688 633.799804688 813.5 623.599609375 825.899414062 623.599609375 c 4
 838.399414062 623.599609375 848.5 633.700195312 848.5 646.200195312 c 4
 848.5 658.700195312 838.299804688 668.799804688 825.899414062 668.799804688 c 4
 813.5 668.799804688 803.299804688 658.799804688 803.299804688 646.200195312 c 5
 803.299804688 646.200195312 l 5
910 353.099609375 m 1
 382.599609375 353.099609375 l 1
 372.700195312 296.700195312 364.5 240.099609375 358 183.200195312 c 1
 424.5 231.599609375 506.599609375 260.200195312 595.400390625 260.200195312 c 0
 653.900390625 260.200195312 711.099609375 246.200195312 764.200195312 221.700195312 c 0
 827.400390625 188.5 870.5 122.299804688 870.5 45.900390625 c 0
 870.5 -63.7001953125 781.700195312 -152.5 672.099609375 -152.5 c 0
 562.5 -152.5 473.700195312 -63.7001953125 473.700195312 45.900390625 c 0
 473.700195312 60 475.200195312 73.7001953125 478 87 c 1
 428.700195312 62 387.200195312 21.2001953125 362.099609375 -32.400390625 c 0
 350.400390625 -57.2998046875 342.900390625 -84 339.900390625 -111.200195312 c 0
 339.799804688 -119.700195312 339.799804688 -128.099609375 339.799804688 -136.599609375 c 1
 338.400390625 -136.599609375 l 1
 193.299804688 -136.599609375 l 1
 166.799804688 -136.599609375 l 1
 166.799804688 27.599609375 180.299804688 191.400390625 207 353.099609375 c 1
 73.2001953125 353.099609375 l 1
 73.2001953125 495.200195312 l 1
 234.099609375 495.200195312 l 1
 252 578.200195312 273.400390625 660.5 298.299804688 741.900390625 c 1
 463.799804688 691.299804688 l 1
 444 626.5 426.5 561.099609375 411.400390625 495.200195312 c 1
 910 495.200195312 l 1
 910 353.099609375 l 1
672.099609375 98.599609375 m 0
 643 98.599609375 619.5 75 619.5 46 c 0
 619.5 16.900390625 643.099609375 -6.599609375 672.099609375 -6.599609375 c 0
 701.099609375 -6.599609375 724.700195312 16.900390625 724.700195312 46 c 0
 724.700195312 75.099609375 701.200195312 98.599609375 672.099609375 98.599609375 c 0
EndSplineSet
EndChar

StartChar: uniE156
Encoding: 57686 57686 86
Width: 1000
Flags: HW
LayerCount: 2
Fore
SplineSet
740.599609375 646.200195312 m 5
 740.599609375 693.299804688 778.799804688 731.400390625 826 731.400390625 c 4
 873.19921875 731.400390625 911.399414062 693.200195312 911.399414062 646.200195312 c 4
 911.399414062 599.200195312 873.19921875 561 826 561 c 4
 778.799804688 561 740.599609375 599.200195312 740.599609375 646.200195312 c 5
 740.599609375 646.200195312 l 5
803.299804688 646.200195312 m 5
 803.299804688 633.799804688 813.5 623.599609375 825.899414062 623.599609375 c 4
 838.399414062 623.599609375 848.5 633.700195312 848.5 646.200195312 c 4
 848.5 658.700195312 838.299804688 668.799804688 825.899414062 668.799804688 c 4
 813.5 668.799804688 803.299804688 658.799804688 803.299804688 646.200195312 c 5
 803.299804688 646.200195312 l 5
910 353.099609375 m 2
 367.799804688 353.099609375 l 1
 357.900390625 296.900390625 349.700195312 240.5 343.200195312 183.799804688 c 1
 408.799804688 231.5 489.5 259.599609375 576.700195312 259.599609375 c 0
 628 259.599609375 679.299804688 251.200195312 726.700195312 231.900390625 c 0
 830.5 194.599609375 884 81.2998046875 846.099609375 -21.099609375 c 0
 808.299804688 -123.5 693.5 -176.299804688 589.700195312 -139 c 0
 573.599609375 -133.200195312 558.400390625 -125.400390625 544.299804688 -115.799804688 c 1
 627.200195312 2.400390625 l 1
 652.700195312 -13.900390625 687.299804688 -7.400390625 704.400390625 17 c 0
 721.5 41.400390625 714.700195312 74.2998046875 689.099609375 90.599609375 c 0
 687.700195312 91.599609375 686.099609375 92.400390625 684.599609375 93.2001953125 c 0
 558 152.400390625 406.599609375 96.099609375 347.400390625 -30.5 c 0
 335.700195312 -55.599609375 328.200195312 -82.2998046875 325.099609375 -109.700195312 c 0
 325 -118.200195312 325 -126.599609375 325 -135.099609375 c 1
 323.599609375 -135.099609375 l 1
 179.299804688 -135.099609375 l 1
 153 -135.099609375 l 1
 153 28.7001953125 166.5 192 193.200195312 353.099609375 c 1
 73.2001953125 353.099609375 l 1
 73.2001953125 495.200195312 l 1
 220.299804688 495.200195312 l 1
 238 577.200195312 259.200195312 658.400390625 283.799804688 738.799804688 c 1
 448.299804688 688.400390625 l 1
 428.799804688 624.5 411.5 560.099609375 396.599609375 495.200195312 c 1
 910 495.200195312 l 1
 910 353.099609375 l 2
EndSplineSet
EndChar

StartChar: uniE157
Encoding: 57687 57687 87
Width: 1000
Flags: HW
LayerCount: 2
Fore
SplineSet
740.599609375 646.200195312 m 5
 740.599609375 693.299804688 778.799804688 731.400390625 826 731.400390625 c 4
 873.19921875 731.400390625 911.399414062 693.200195312 911.399414062 646.200195312 c 4
 911.399414062 599.200195312 873.19921875 561 826 561 c 4
 778.799804688 561 740.599609375 599.200195312 740.599609375 646.200195312 c 5
 740.599609375 646.200195312 l 5
803.299804688 646.200195312 m 5
 803.299804688 633.799804688 813.5 623.599609375 825.899414062 623.599609375 c 4
 838.399414062 623.599609375 848.5 633.700195312 848.5 646.200195312 c 4
 848.5 658.700195312 838.299804688 668.799804688 825.899414062 668.799804688 c 4
 813.5 668.799804688 803.299804688 658.799804688 803.299804688 646.200195312 c 5
 803.299804688 646.200195312 l 5
825.099609375 81 m 1
 945 -42.7998046875 l 1
 800.700195312 -182.599609375 577.799804688 -191.299804688 423.700195312 -71.099609375 c 1
 387.400390625 -120.5 328.299804688 -152.700195312 261.700195312 -152.700195312 c 0
 151.200195312 -152.700195312 61.7001953125 -64.2998046875 61.7001953125 44.7001953125 c 0
 61.7001953125 153.700195312 151.200195312 242.099609375 261.700195312 242.099609375 c 0
 263.5 242.099609375 265.299804688 242 267 242 c 1
 267 353.099609375 l 1
 73.2001953125 353.099609375 l 1
 73.2001953125 495.200195312 l 1
 267 495.200195312 l 1
 267 721 l 1
 440.700195312 721 l 1
 440.700195312 495.200195312 l 1
 910 495.200195312 l 1
 910 353.099609375 l 1
 440.700195312 353.099609375 l 1
 440.700195312 244.5 l 2
 439.900390625 120 542.200195312 18.2998046875 666.700195312 17.5 c 0
 725.799804688 17.099609375 782.700195312 39.900390625 825.099609375 81 c 1
261.700195312 -7.599609375 m 0
 292.099609375 -7.599609375 316.599609375 15.7998046875 316.5 44.7001953125 c 0
 316.5 51.900390625 315 58.7001953125 312.299804688 64.900390625 c 0
 311.700195312 66.2001953125 311 67.5 310.400390625 68.7998046875 c 0
 303.799804688 81 292.099609375 90.400390625 278.099609375 94.599609375 c 0
 277.900390625 94.7001953125 277.700195312 94.7998046875 277.5 94.7998046875 c 2
 268.400390625 96.599609375 l 2
 268.299804688 96.7001953125 268.099609375 96.7001953125 268 96.7001953125 c 2
 267 96.7998046875 l 2
 265.200195312 96.900390625 263.5 97 261.700195312 97 c 0
 231.400390625 97 206.799804688 73.599609375 206.799804688 44.7001953125 c 0
 206.799804688 15.7998046875 231.400390625 -7.599609375 261.700195312 -7.599609375 c 0
EndSplineSet
EndChar

StartChar: uniE158
Encoding: 57688 57688 88
Width: 1000
Flags: HW
LayerCount: 2
Fore
SplineSet
740.599609375 646.200195312 m 5
 740.599609375 693.299804688 778.799804688 731.400390625 826 731.400390625 c 4
 873.19921875 731.400390625 911.399414062 693.200195312 911.399414062 646.200195312 c 4
 911.399414062 599.200195312 873.19921875 561 826 561 c 4
 778.799804688 561 740.599609375 599.200195312 740.599609375 646.200195312 c 5
 740.599609375 646.200195312 l 5
803.299804688 646.200195312 m 5
 803.299804688 633.799804688 813.5 623.599609375 825.899414062 623.599609375 c 4
 838.399414062 623.599609375 848.5 633.700195312 848.5 646.200195312 c 4
 848.5 658.700195312 838.299804688 668.799804688 825.899414062 668.799804688 c 4
 813.5 668.799804688 803.299804688 658.799804688 803.299804688 646.200195312 c 5
 803.299804688 646.200195312 l 5
910 353.099609375 m 2
 373 353.099609375 l 1
 371.200195312 343 369.5 332.900390625 367.799804688 322.799804688 c 1
 380 325.099609375 392.5 326.299804688 405.299804688 326.299804688 c 0
 515.700195312 326.299804688 605.299804688 236.900390625 605.299804688 126.400390625 c 0
 605.299804688 15.900390625 515.799804688 -73.599609375 405.299804688 -73.599609375 c 0
 379.099609375 -73.599609375 354.099609375 -68.599609375 331.099609375 -59.400390625 c 1
 330.400390625 -85.2001953125 330 -111 330 -136.799804688 c 1
 157.900390625 -136.799804688 l 1
 157.900390625 27.5 171.5 191.400390625 198.400390625 353.099609375 c 1
 73.2001953125 353.099609375 l 1
 73.2001953125 495.200195312 l 1
 225.599609375 495.200195312 l 1
 243.200195312 576.599609375 264.299804688 657.299804688 288.700195312 737.099609375 c 1
 453.299804688 686.700195312 l 1
 433.900390625 623.400390625 416.799804688 559.5 402 495.200195312 c 1
 910 495.200195312 l 1
 910 353.099609375 l 2
405.299804688 179.299804688 m 0
 376 179.299804688 352.299804688 155.599609375 352.299804688 126.299804688 c 0
 352.299804688 97 376 73.2998046875 405.299804688 73.2998046875 c 0
 434.5 73.2998046875 458.299804688 97 458.299804688 126.299804688 c 0
 458.299804688 155.599609375 434.599609375 179.299804688 405.299804688 179.299804688 c 0
EndSplineSet
EndChar

StartChar: uniE159
Encoding: 57689 57689 89
Width: 1000
Flags: HW
LayerCount: 2
Fore
SplineSet
740.599609375 646.200195312 m 5
 740.599609375 693.299804688 778.799804688 731.400390625 826 731.400390625 c 4
 873.19921875 731.400390625 911.399414062 693.200195312 911.399414062 646.200195312 c 4
 911.399414062 599.200195312 873.19921875 561 826 561 c 4
 778.799804688 561 740.599609375 599.200195312 740.599609375 646.200195312 c 5
 740.599609375 646.200195312 l 5
803.299804688 646.200195312 m 5
 803.299804688 633.799804688 813.5 623.599609375 825.899414062 623.599609375 c 4
 838.399414062 623.599609375 848.5 633.700195312 848.5 646.200195312 c 4
 848.5 658.700195312 838.299804688 668.799804688 825.899414062 668.799804688 c 4
 813.5 668.799804688 803.299804688 658.799804688 803.299804688 646.200195312 c 5
 803.299804688 646.200195312 l 5
862.400390625 207 m 1
 946.599609375 162.700195312 989.200195312 63 958.900390625 -30.5 c 0
 924.900390625 -135 812.700195312 -192.200195312 708.200195312 -158.200195312 c 0
 679.200195312 -148.799804688 653.400390625 -133.099609375 632.200195312 -112.799804688 c 1
 581 -136.200195312 524 -149.099609375 464.099609375 -148.700195312 c 2
 440.5 -149 l 1
 278.5 -145.5 148.200195312 -13.599609375 147.299804688 147.400390625 c 0
 147.299804688 216.200195312 150.900390625 284.799804688 158 353.099609375 c 1
 73.2001953125 353.099609375 l 1
 73.2001953125 495.200195312 l 1
 178 495.200195312 l 1
 192.5 576.900390625 212.099609375 657.599609375 236.700195312 737 c 1
 403.5 685.299804688 l 1
 384.099609375 622.700195312 368.099609375 559.299804688 355.599609375 495.200195312 c 1
 910 495.200195312 l 1
 910 353.099609375 l 1
 333.700195312 353.099609375 l 1
 326.099609375 286.799804688 322.200195312 220 322 153.099609375 c 0
 320 86.599609375 372.900390625 30.7001953125 438.700195312 26.2998046875 c 2
 484.200195312 25.599609375 l 1
 598.299804688 34.400390625 688.900390625 128.700195312 690.900390625 245.200195312 c 1
 864.599609375 242.200195312 l 1
 864.299804688 230.299804688 863.599609375 218.599609375 862.400390625 207 c 1
775.799804688 -23.599609375 m 0
 805.900390625 -20.2001953125 827.599609375 7 824.200195312 37.2001953125 c 0
 823.299804688 45.2001953125 820.700195312 52.7998046875 816.599609375 59.5 c 1
 800.400390625 29.599609375 780.400390625 2 757.400390625 -22.599609375 c 1
 763.299804688 -23.900390625 769.5 -24.2998046875 775.799804688 -23.599609375 c 0
EndSplineSet
EndChar

StartChar: uniE15A
Encoding: 57690 57690 90
Width: 1000
Flags: HW
LayerCount: 2
Fore
SplineSet
740.599609375 646.200195312 m 5
 740.599609375 693.299804688 778.799804688 731.400390625 826 731.400390625 c 4
 873.19921875 731.400390625 911.399414062 693.200195312 911.399414062 646.200195312 c 4
 911.399414062 599.200195312 873.19921875 561 826 561 c 4
 778.799804688 561 740.599609375 599.200195312 740.599609375 646.200195312 c 5
 740.599609375 646.200195312 l 5
803.299804688 646.200195312 m 5
 803.299804688 633.799804688 813.5 623.599609375 825.899414062 623.599609375 c 4
 838.399414062 623.599609375 848.5 633.700195312 848.5 646.200195312 c 4
 848.5 658.700195312 838.299804688 668.799804688 825.899414062 668.799804688 c 4
 813.5 668.799804688 803.299804688 658.799804688 803.299804688 646.200195312 c 5
 803.299804688 646.200195312 l 5
910 353.099609375 m 2
 344 353.099609375 l 1
 336.200195312 284.900390625 332.299804688 216.200195312 332.299804688 147.400390625 c 0
 333 97.599609375 361.900390625 54.5 405.5 35.900390625 c 1
 391.900390625 63 384.200195312 93.7998046875 384.200195312 126.299804688 c 0
 384.200195312 236.799804688 472.599609375 326.299804688 581.599609375 326.299804688 c 0
 647 326.299804688 705 294 740.900390625 244.400390625 c 1
 871.400390625 242.099609375 l 1
 873.599609375 242.099609375 l 1
 873.599609375 -147.400390625 l 1
 736.799804688 -147.400390625 l 1
 736.799804688 -49.2001953125 l 1
 666 -111.700195312 572.700195312 -149.400390625 470.900390625 -148.700195312 c 2
 447.299804688 -149 l 1
 282.599609375 -145.5 154.299804688 -9.099609375 157.900390625 155.700195312 c 0
 157.900390625 156.599609375 157.900390625 157.400390625 157.900390625 158.299804688 c 0
 158.299804688 223.400390625 161.900390625 288.400390625 168.599609375 353.099609375 c 1
 73.2001953125 353.099609375 l 1
 73.2001953125 495.200195312 l 1
 188.5 495.200195312 l 1
 202.900390625 576.599609375 222.400390625 657.099609375 246.900390625 736.299804688 c 1
 413.5 684.599609375 l 1
 394.200195312 622.299804688 378.299804688 559 365.900390625 495.200195312 c 1
 910 495.200195312 l 1
 910 353.099609375 l 2
581.599609375 181.200195312 m 0
 552.700195312 181.200195312 529.299804688 156.599609375 529.299804688 126.299804688 c 0
 529.299804688 96 552.700195312 71.400390625 581.599609375 71.400390625 c 0
 610.5 71.400390625 633.900390625 96 633.900390625 126.299804688 c 0
 633.900390625 156.599609375 610.5 181.200195312 581.599609375 181.200195312 c 0
EndSplineSet
EndChar

StartChar: uniE15B
Encoding: 57691 57691 91
Width: 1000
Flags: HW
LayerCount: 2
Fore
SplineSet
740.599609375 646.200195312 m 5
 740.599609375 693.299804688 778.799804688 731.400390625 826 731.400390625 c 4
 873.19921875 731.400390625 911.399414062 693.200195312 911.399414062 646.200195312 c 4
 911.399414062 599.200195312 873.19921875 561 826 561 c 4
 778.799804688 561 740.599609375 599.200195312 740.599609375 646.200195312 c 5
 740.599609375 646.200195312 l 5
803.299804688 646.200195312 m 5
 803.299804688 633.799804688 813.5 623.599609375 825.899414062 623.599609375 c 4
 838.399414062 623.599609375 848.5 633.700195312 848.5 646.200195312 c 4
 848.5 658.700195312 838.299804688 668.799804688 825.899414062 668.799804688 c 4
 813.5 668.799804688 803.299804688 658.799804688 803.299804688 646.200195312 c 5
 803.299804688 646.200195312 l 5
910 353.099609375 m 1
 333.599609375 353.099609375 l 1
 325.799804688 284.900390625 321.900390625 216.099609375 321.900390625 147.200195312 c 0
 322.900390625 83.099609375 372.700195312 30.2001953125 436.799804688 26.099609375 c 2
 473.599609375 24.900390625 l 1
 591.599609375 29.599609375 686.5 125.700195312 688.599609375 245 c 1
 862.299804688 241.900390625 l 1
 863.099609375 241.900390625 l 1
 863.099609375 -147.599609375 l 1
 726.299804688 -147.599609375 l 1
 726.299804688 -50.7998046875 l 1
 655.599609375 -112.599609375 563 -149.700195312 461.900390625 -149 c 2
 438.299804688 -149.299804688 l 1
 273.599609375 -145.700195312 143.700195312 -9.400390625 147.299804688 155.400390625 c 0
 147.299804688 156.299804688 147.400390625 157.200195312 147.400390625 158.099609375 c 0
 147.799804688 223.299804688 151.400390625 288.400390625 158.099609375 353.099609375 c 1
 73.2001953125 353.099609375 l 1
 73.2001953125 495.200195312 l 1
 178 495.200195312 l 1
 192.5 576.799804688 212.099609375 657.400390625 236.700195312 736.700195312 c 1
 403.400390625 685.099609375 l 1
 384 622.599609375 368.099609375 559.200195312 355.599609375 495.200195312 c 1
 910 495.200195312 l 1
 910 353.099609375 l 1
EndSplineSet
EndChar

StartChar: uniE15C
Encoding: 57692 57692 92
Width: 1000
Flags: HW
LayerCount: 2
Fore
SplineSet
740.599609375 646.200195312 m 5
 740.599609375 693.299804688 778.799804688 731.400390625 826 731.400390625 c 4
 873.19921875 731.400390625 911.399414062 693.200195312 911.399414062 646.200195312 c 4
 911.399414062 599.200195312 873.19921875 561 826 561 c 4
 778.799804688 561 740.599609375 599.200195312 740.599609375 646.200195312 c 5
 740.599609375 646.200195312 l 5
803.299804688 646.200195312 m 5
 803.299804688 633.799804688 813.5 623.599609375 825.899414062 623.599609375 c 4
 838.399414062 623.599609375 848.5 633.700195312 848.5 646.200195312 c 4
 848.5 658.700195312 838.299804688 668.799804688 825.899414062 668.799804688 c 4
 813.5 668.799804688 803.299804688 658.799804688 803.299804688 646.200195312 c 5
 803.299804688 646.200195312 l 5
332.5 353.099609375 m 1
 324.900390625 286.799804688 321 220 320.799804688 153 c 0
 320.099609375 128.299804688 327.900390625 105.099609375 339.799804688 85.5 c 1
 337.099609375 98.7001953125 335.700195312 112.299804688 335.700195312 126.299804688 c 0
 335.700195312 236.799804688 424.099609375 326.299804688 533.099609375 326.299804688 c 0
 638.799804688 326.299804688 725.200195312 242 730.200195312 136.099609375 c 1
 785.099609375 130.200195312 837.299804688 101.599609375 871.599609375 53 c 0
 894.5 20.5 908.599609375 -18.099609375 909.400390625 -57.900390625 c 1
 909.400390625 -57.900390625 l 1
 909.400390625 -142.299804688 l 1
 735.700195312 -142.299804688 l 1
 735.700195312 -58.099609375 l 2
 733.799804688 -43.7001953125 723.700195312 -32.599609375 708.799804688 -32.7001953125 c 0
 706.200195312 -32.7001953125 703.700195312 -33.099609375 701.200195312 -33.7998046875 c 2
 616.599609375 -94.099609375 l 2
 481.900390625 -189 296.200195312 -157.400390625 201.299804688 -22.7001953125 c 0
 166.200195312 27.2001953125 146.599609375 86.5 146.200195312 147.299804688 c 0
 146.200195312 216.099609375 149.799804688 284.799804688 156.900390625 353.099609375 c 1
 73.2001953125 353.099609375 l 1
 73.2001953125 495.200195312 l 1
 176.900390625 495.200195312 l 1
 191.400390625 576.799804688 211 657.5 235.599609375 736.900390625 c 1
 402.299804688 685.200195312 l 1
 382.900390625 622.700195312 367 559.200195312 354.5 495.200195312 c 1
 910 495.200195312 l 1
 910 353.099609375 l 1
 332.5 353.099609375 l 1
533 181.200195312 m 0
 504.200195312 181.200195312 480.700195312 156.599609375 480.700195312 126.299804688 c 0
 480.700195312 96 504.099609375 71.400390625 533 71.400390625 c 0
 541.799804688 71.400390625 550.099609375 73.7001953125 557.400390625 77.7001953125 c 2
 566.900390625 84.5 l 2
 578.200195312 94.599609375 585.299804688 109.599609375 585.299804688 126.299804688 c 0
 585.299804688 156.599609375 561.900390625 181.200195312 533 181.200195312 c 0
EndSplineSet
EndChar

